<svg width="75" height="76" viewBox="0 0 75 76" fill="none" xmlns="http://www.w3.org/2000/svg">
<path d="M17.1816 31.3424H23.5656V44.6614H19.6136V32.7674L21.3236 34.4964H17.1816V31.3424Z" fill="#FFF7F2"/>
<path d="M32.1734 31.2284C34.0987 31.2284 35.5807 31.8111 36.6194 32.9764C37.6581 34.1417 38.1774 35.8137 38.1774 37.9924C38.1774 40.1711 37.6581 41.8494 36.6194 43.0274C35.5807 44.2054 34.0987 44.7944 32.1734 44.7944C30.2354 44.7944 28.747 44.2054 27.7084 43.0274C26.6697 41.8494 26.1504 40.1711 26.1504 37.9924C26.1504 35.8137 26.6697 34.1417 27.7084 32.9764C28.747 31.8111 30.2354 31.2284 32.1734 31.2284ZM32.1734 34.0974C31.4641 34.0974 30.9574 34.3887 30.6534 34.9714C30.3494 35.5541 30.1974 36.5611 30.1974 37.9924C30.1974 39.4111 30.3494 40.4181 30.6534 41.0134C30.9574 41.6087 31.4641 41.9064 32.1734 41.9064C32.8701 41.9064 33.364 41.6087 33.6554 41.0134C33.9594 40.4181 34.1114 39.4111 34.1114 37.9924C34.1114 36.5611 33.9594 35.5541 33.6554 34.9714C33.364 34.3887 32.8701 34.0974 32.1734 34.0974Z" fill="#FFF7F2"/>
<path d="M42.9496 31.2854C44.1023 31.2854 45.0206 31.6527 45.7046 32.3874C46.4013 33.1094 46.7496 34.0911 46.7496 35.3324C46.7496 36.5737 46.4013 37.5617 45.7046 38.2964C45.0206 39.0311 44.1023 39.3984 42.9496 39.3984C42.177 39.3984 41.5056 39.2337 40.9356 38.9044C40.3656 38.5751 39.9223 38.1064 39.6056 37.4984C39.289 36.8777 39.1306 36.1557 39.1306 35.3324C39.1306 34.0911 39.4726 33.1094 40.1566 32.3874C40.8533 31.6527 41.7843 31.2854 42.9496 31.2854ZM42.9496 33.3184C42.519 33.3184 42.177 33.5021 41.9236 33.8694C41.683 34.2241 41.5626 34.7117 41.5626 35.3324C41.5626 35.9531 41.683 36.4471 41.9236 36.8144C42.177 37.1817 42.519 37.3654 42.9496 37.3654C43.3803 37.3654 43.716 37.1817 43.9566 36.8144C44.21 36.4471 44.3366 35.9531 44.3366 35.3324C44.3366 34.7117 44.21 34.2241 43.9566 33.8694C43.716 33.5021 43.3803 33.3184 42.9496 33.3184ZM51.7276 31.3424H54.3116L44.9636 44.6614H42.3606L51.7276 31.3424ZM53.7796 36.6244C54.9323 36.6244 55.8507 36.9917 56.5346 37.7264C57.2313 38.4484 57.5797 39.4301 57.5797 40.6714C57.5797 41.9127 57.2313 42.9007 56.5346 43.6354C55.8507 44.3701 54.9323 44.7374 53.7796 44.7374C53.007 44.7374 52.3356 44.5727 51.7656 44.2434C51.1956 43.9141 50.7523 43.4454 50.4356 42.8374C50.119 42.2167 49.9606 41.4947 49.9606 40.6714C49.9606 39.4301 50.3026 38.4484 50.9866 37.7264C51.6833 36.9917 52.6143 36.6244 53.7796 36.6244ZM53.7796 38.6574C53.349 38.6574 53.007 38.8411 52.7537 39.2084C52.513 39.5631 52.3927 40.0507 52.3927 40.6714C52.3927 41.2921 52.513 41.7861 52.7537 42.1534C53.007 42.5207 53.349 42.7044 53.7796 42.7044C54.2103 42.7044 54.546 42.5207 54.7866 42.1534C55.04 41.7861 55.1666 41.2921 55.1666 40.6714C55.1666 40.0507 55.04 39.5631 54.7866 39.2084C54.546 38.8411 54.2103 38.6574 53.7796 38.6574Z" fill="#FFF7F2"/>
<path d="M8.10488 36.4663L6.5534 35.2042L8.10488 36.4663L10.8267 33.1204C11.9056 31.7941 12.3675 30.0704 12.0962 28.3823L11.412 24.1238C11.2617 23.1882 11.7887 22.2755 12.6741 21.9378L16.7042 20.4011C18.3018 19.792 19.5636 18.5302 20.1727 16.9326L21.7094 12.9025C22.0471 12.017 22.9598 11.4901 23.8955 11.6404L28.1539 12.3246C29.8421 12.5959 31.5657 12.134 32.8921 11.0551L36.2379 8.33327C36.973 7.73525 38.027 7.73525 38.7621 8.33327L42.1079 11.0551C43.4343 12.134 45.1579 12.5959 46.8461 12.3246L51.1045 11.6404C52.0402 11.4901 52.9529 12.017 53.2906 12.9025L54.8273 16.9326C55.4364 18.5302 56.6982 19.792 58.2958 20.4011L62.3259 21.9378C63.2113 22.2755 63.7383 23.1882 63.588 24.1238L62.9038 28.3823C62.6325 30.0704 63.0944 31.7941 64.1733 33.1205L66.8951 36.4663C67.4931 37.2014 67.4931 38.2554 66.8951 38.9905L64.1733 42.3363C63.0944 43.6627 62.6325 45.3863 62.9038 47.0745L63.588 51.3329C63.7383 52.2686 63.2113 53.1813 62.3259 53.519L58.2958 55.0557C56.6982 55.6648 55.4364 56.9266 54.8273 58.5242L53.2906 62.5543C52.9529 63.4397 52.0402 63.9667 51.1045 63.8164L46.8461 63.1322C45.1579 62.8609 43.4343 63.3228 42.1079 64.4017L38.7621 67.1235C38.027 67.7215 36.973 67.7215 36.2379 67.1235L34.9758 68.675L36.2379 67.1235L32.8921 64.4017C31.5657 63.3228 29.8421 62.8609 28.1539 63.1322L23.8955 63.8164C22.9598 63.9667 22.0471 63.4397 21.7094 62.5543L20.1727 58.5242C19.5636 56.9266 18.3018 55.6648 16.7042 55.0557L12.6741 53.519C11.7887 53.1813 11.2617 52.2686 11.412 51.3329L12.0962 47.0745C12.3675 45.3863 11.9056 43.6627 10.8267 42.3363L9.30482 43.5743L10.8267 42.3363L8.10488 38.9905C7.50686 38.2554 7.50685 37.2014 8.10488 36.4663Z" stroke="#FFF2E8" stroke-width="4"/>
</svg>
