<svg width="75" height="76" viewBox="0 0 75 76" fill="none" xmlns="http://www.w3.org/2000/svg">
<path d="M12.5 16.2206L31.9098 6.54418C35.4289 4.7898 39.5711 4.7898 43.0902 6.54418L62.5 16.2206V44.0139C62.5 53.6106 53.6028 60.0888 37.5 70.2284C21.3972 60.0888 12.5 51.5334 12.5 44.0139V16.2206Z" stroke="#FFF2E8" stroke-width="4" stroke-linecap="round" stroke-linejoin="round"/>
<path d="M28.9501 48.4484C28.5368 48.4484 28.1735 48.3484 27.8601 48.1484C27.5535 47.9417 27.3135 47.6451 27.1401 47.2584C26.9735 46.8717 26.8901 46.4084 26.8901 45.8684C26.8901 45.3084 26.9768 44.8351 27.1501 44.4484C27.3301 44.0617 27.5768 43.7651 27.8901 43.5584C28.2101 43.3517 28.5768 43.2484 28.9901 43.2484C29.4435 43.2484 29.8068 43.3884 30.0801 43.6684C30.3601 43.9417 30.5401 44.2917 30.6201 44.7184L30.4601 44.9284V41.2284H32.1601V48.3484H30.6401L30.5301 46.6484L30.7301 46.7984C30.6901 47.1317 30.5868 47.4217 30.4201 47.6684C30.2601 47.9151 30.0535 48.1084 29.8001 48.2484C29.5535 48.3817 29.2701 48.4484 28.9501 48.4484ZM29.5401 47.1984C29.7335 47.1984 29.8968 47.1484 30.0301 47.0484C30.1701 46.9417 30.2768 46.7851 30.3501 46.5784C30.4235 46.3717 30.4601 46.1184 30.4601 45.8184C30.4601 45.5384 30.4235 45.3017 30.3501 45.1084C30.2835 44.9084 30.1801 44.7584 30.0401 44.6584C29.9068 44.5517 29.7435 44.4984 29.5501 44.4984C29.2568 44.4984 29.0235 44.6084 28.8501 44.8284C28.6835 45.0417 28.6001 45.3817 28.6001 45.8484C28.6001 46.3151 28.6835 46.6584 28.8501 46.8784C29.0168 47.0917 29.2468 47.1984 29.5401 47.1984Z" fill="#FFF7F2"/>
<path d="M35.9697 45.1784C35.9697 44.9451 35.903 44.7617 35.7697 44.6284C35.643 44.4884 35.4697 44.4184 35.2497 44.4184C35.0297 44.4184 34.8397 44.4751 34.6797 44.5884C34.5263 44.6951 34.4197 44.8884 34.3597 45.1684L32.9197 44.8284C33.013 44.3484 33.2597 43.9651 33.6597 43.6784C34.0597 43.3917 34.623 43.2484 35.3497 43.2484C35.8363 43.2484 36.2497 43.3217 36.5897 43.4684C36.9363 43.6084 37.1997 43.8217 37.3797 44.1084C37.5663 44.3884 37.6597 44.7351 37.6597 45.1484V46.9784C37.6597 47.2384 37.7763 47.3684 38.0097 47.3684C38.1297 47.3684 38.2263 47.3551 38.2997 47.3284L38.1997 48.2984C37.9997 48.3917 37.7563 48.4384 37.4697 48.4384C37.2097 48.4384 36.9797 48.3984 36.7797 48.3184C36.5797 48.2317 36.423 48.1051 36.3097 47.9384C36.1963 47.7651 36.1397 47.5484 36.1397 47.2884V47.2284L36.3297 47.1584C36.3297 47.4451 36.243 47.6851 36.0697 47.8784C35.903 48.0717 35.683 48.2151 35.4097 48.3084C35.143 48.4017 34.863 48.4484 34.5697 48.4484C34.2297 48.4484 33.933 48.3951 33.6797 48.2884C33.4263 48.1817 33.2297 48.0284 33.0897 47.8284C32.9563 47.6217 32.8897 47.3684 32.8897 47.0684C32.8897 46.7084 32.9963 46.4117 33.2097 46.1784C33.4297 45.9384 33.773 45.7717 34.2397 45.6784L36.1297 45.2884L36.1197 46.1884L35.1597 46.3884C34.9597 46.4284 34.8097 46.4884 34.7097 46.5684C34.6163 46.6417 34.5697 46.7551 34.5697 46.9084C34.5697 47.0551 34.623 47.1651 34.7297 47.2384C34.8363 47.3117 34.963 47.3484 35.1097 47.3484C35.223 47.3484 35.3297 47.3317 35.4297 47.2984C35.5363 47.2651 35.6297 47.2151 35.7097 47.1484C35.7897 47.0751 35.853 46.9851 35.8997 46.8784C35.9463 46.7717 35.9697 46.6451 35.9697 46.4984V45.1784Z" fill="#FFF7F2"/>
<path d="M43.4784 43.3484L41.6584 48.3484C41.4718 48.8751 41.2684 49.2951 41.0484 49.6084C40.8284 49.9217 40.5684 50.1484 40.2684 50.2884C39.9684 50.4284 39.6084 50.4984 39.1884 50.4984C38.9084 50.4984 38.6518 50.4684 38.4184 50.4084C38.1851 50.3484 37.9818 50.2651 37.8084 50.1584L38.1484 49.0084C38.2684 49.0951 38.3951 49.1551 38.5284 49.1884C38.6618 49.2284 38.8318 49.2484 39.0384 49.2484C39.2318 49.2484 39.3884 49.2151 39.5084 49.1484C39.6351 49.0817 39.7351 48.9551 39.8084 48.7684L39.9384 48.4584L39.3584 47.0984L37.8584 43.3484H39.7284L40.4984 46.1984L40.7384 47.2584L41.0184 46.1584L41.7884 43.3484H43.4784Z" fill="#FFF7F2"/>
<path d="M45.8953 48.4484C45.3953 48.4484 44.9286 48.3684 44.4953 48.2084C44.0686 48.0417 43.7153 47.8051 43.4353 47.4984L44.2353 46.5584C44.402 46.7717 44.622 46.9517 44.8953 47.0984C45.1753 47.2384 45.4853 47.3084 45.8253 47.3084C46.032 47.3084 46.202 47.2784 46.3353 47.2184C46.4686 47.1584 46.5353 47.0651 46.5353 46.9384C46.5353 46.8451 46.502 46.7717 46.4353 46.7184C46.3686 46.6584 46.2353 46.6084 46.0353 46.5684L45.3353 46.4284C44.7086 46.3017 44.262 46.1151 43.9953 45.8684C43.7353 45.6151 43.6053 45.2851 43.6053 44.8784C43.6053 44.6051 43.6886 44.3451 43.8553 44.0984C44.022 43.8451 44.2786 43.6417 44.6253 43.4884C44.972 43.3284 45.4153 43.2484 45.9553 43.2484C46.462 43.2484 46.9086 43.3217 47.2953 43.4684C47.682 43.6151 47.9886 43.8284 48.2153 44.1084L47.4053 45.0284C47.2453 44.8284 47.0386 44.6717 46.7853 44.5584C46.532 44.4451 46.2786 44.3884 46.0253 44.3884C45.8653 44.3884 45.7286 44.4051 45.6153 44.4384C45.5086 44.4651 45.4286 44.5051 45.3753 44.5584C45.322 44.6117 45.2953 44.6784 45.2953 44.7584C45.2953 44.8451 45.3353 44.9217 45.4153 44.9884C45.502 45.0484 45.6586 45.1017 45.8853 45.1484L46.7953 45.3284C47.3086 45.4217 47.6786 45.5917 47.9053 45.8384C48.132 46.0851 48.2453 46.3817 48.2453 46.7284C48.2453 47.0551 48.1586 47.3484 47.9853 47.6084C47.812 47.8684 47.552 48.0751 47.2053 48.2284C46.8586 48.3751 46.422 48.4484 45.8953 48.4484Z" fill="#FFF7F2"/>
<path d="M32.8053 30.4183C33.8302 30.6008 34.6646 31.018 35.3085 31.6697C35.9655 32.3215 36.294 33.1688 36.294 34.2116C36.294 35.098 36.0575 35.8867 35.5844 36.5776C35.1245 37.2554 34.4675 37.7833 33.6134 38.1614C32.7724 38.5394 31.7672 38.7284 30.5977 38.7284C29.5596 38.7284 28.5347 38.572 27.5229 38.2591C26.5243 37.9332 25.6833 37.5096 25 36.9882L26.4783 34.2116C27.0696 34.707 27.6872 35.0785 28.331 35.3262C28.9749 35.5738 29.6253 35.6977 30.2823 35.6977C30.716 35.6977 31.0773 35.6455 31.3664 35.5412C31.6686 35.4239 31.892 35.2545 32.0366 35.0329C32.1942 34.8113 32.2731 34.544 32.2731 34.2312C32.2731 33.7619 32.1023 33.4034 31.7606 33.1558C31.419 32.8951 30.9196 32.7647 30.2626 32.7647H27.7989V30.6334L32.0366 26.6055L32.5293 27.8178H25.7293V24.8262H35.6238V27.153L30.7948 31.4547L30.3809 29.9491L32.8053 30.4183Z" fill="#FFF7F2"/>
<path d="M43.7716 24.7284C45.7689 24.7284 47.3063 25.328 48.3838 26.5273C49.4613 27.7265 50 29.4472 50 31.6893C50 33.9314 49.4613 35.6586 48.3838 36.8709C47.3063 38.0831 45.7689 38.6893 43.7716 38.6893C41.7611 38.6893 40.2171 38.0831 39.1396 36.8709C38.0622 35.6586 37.5234 33.9314 37.5234 31.6893C37.5234 29.4472 38.0622 27.7265 39.1396 26.5273C40.2171 25.328 41.7611 24.7284 43.7716 24.7284ZM43.7716 27.6809C43.0357 27.6809 42.5101 27.9807 42.1947 28.5803C41.8794 29.18 41.7217 30.2163 41.7217 31.6893C41.7217 33.1493 41.8794 34.1856 42.1947 34.7982C42.5101 35.4109 43.0357 35.7172 43.7716 35.7172C44.4943 35.7172 45.0067 35.4109 45.309 34.7982C45.6243 34.1856 45.782 33.1493 45.782 31.6893C45.782 30.2163 45.6243 29.18 45.309 28.5803C45.0067 27.9807 44.4943 27.6809 43.7716 27.6809Z" fill="#FFF7F2"/>
</svg>
