<svg width="64" height="65" viewBox="0 0 64 65" fill="none" xmlns="http://www.w3.org/2000/svg">
<rect y="0.0285645" width="64" height="64" rx="32" fill="white"/>
<path d="M18 31.0286C17.4477 31.0286 17 31.4763 17 32.0286C17 32.5808 17.4477 33.0286 18 33.0286V31.0286ZM46.7071 32.7357C47.0976 32.3451 47.0976 31.712 46.7071 31.3215L40.3431 24.9575C39.9526 24.567 39.3195 24.567 38.9289 24.9575C38.5384 25.348 38.5384 25.9812 38.9289 26.3717L44.5858 32.0286L38.9289 37.6854C38.5384 38.0759 38.5384 38.7091 38.9289 39.0996C39.3195 39.4902 39.9526 39.4902 40.3431 39.0996L46.7071 32.7357ZM18 33.0286H46V31.0286H18V33.0286Z" fill="#134E0D"/>
</svg>
