<svg width="32" height="32" viewBox="0 0 32 32" fill="none" xmlns="http://www.w3.org/2000/svg">
<rect width="32" height="32" rx="16" fill="white"/>
<path d="M8.64645 15.6464C8.45118 15.8417 8.45118 16.1583 8.64645 16.3536L11.8284 19.5355C12.0237 19.7308 12.3403 19.7308 12.5355 19.5355C12.7308 19.3403 12.7308 19.0237 12.5355 18.8284L9.70711 16L12.5355 13.1716C12.7308 12.9763 12.7308 12.6597 12.5355 12.4645C12.3403 12.2692 12.0237 12.2692 11.8284 12.4645L8.64645 15.6464ZM23 16.5C23.2761 16.5 23.5 16.2761 23.5 16C23.5 15.7239 23.2761 15.5 23 15.5V16.5ZM9 16.5H23V15.5H9V16.5Z" fill="#134E0D"/>
</svg>
