<svg width="64" height="65" viewBox="0 0 64 65" fill="none" xmlns="http://www.w3.org/2000/svg">
<rect y="0.0285645" width="64" height="64" rx="32" fill="white"/>
<path d="M17.2929 31.3215C16.9024 31.712 16.9024 32.3451 17.2929 32.7357L23.6569 39.0996C24.0474 39.4902 24.6805 39.4902 25.0711 39.0996C25.4616 38.7091 25.4616 38.0759 25.0711 37.6854L19.4142 32.0286L25.0711 26.3717C25.4616 25.9812 25.4616 25.348 25.0711 24.9575C24.6805 24.567 24.0474 24.567 23.6569 24.9575L17.2929 31.3215ZM46 33.0286C46.5523 33.0286 47 32.5808 47 32.0286C47 31.4763 46.5523 31.0286 46 31.0286V33.0286ZM18 33.0286H46V31.0286H18V33.0286Z" fill="#134E0D"/>
</svg>
