<svg width="24" height="25" viewBox="0 0 24 25" fill="none" xmlns="http://www.w3.org/2000/svg">
<path d="M2.3999 2.12109C1.84762 2.12109 1.3999 2.56881 1.3999 3.12109C1.3999 3.67338 1.84762 4.12109 2.3999 4.12109V2.12109ZM4.69244 3.12109L5.65767 2.85968C5.53961 2.42378 5.14405 2.12109 4.69244 2.12109V3.12109ZM8.41781 16.8763L7.45259 17.1377C7.58285 17.6187 8.04737 17.9304 8.54185 17.8686L8.41781 16.8763ZM19.8805 15.4435L20.0045 16.4358C20.4292 16.3827 20.773 16.0652 20.8598 15.6461L19.8805 15.4435ZM21.5999 7.13304L22.5792 7.33564C22.6401 7.04113 22.5652 6.73483 22.3753 6.50161C22.1854 6.2684 21.9007 6.13304 21.5999 6.13304V7.13304ZM5.77901 7.13304L4.81378 7.39445L5.77901 7.13304ZM2.3999 4.12109H4.69244V2.12109H2.3999V4.12109ZM8.54185 17.8686L20.0045 16.4358L19.7565 14.4512L8.29378 15.884L8.54185 17.8686ZM20.8598 15.6461L22.5792 7.33564L20.6206 6.93043L18.9012 15.2409L20.8598 15.6461ZM3.72721 3.38251L4.81378 7.39445L6.74423 6.87162L5.65767 2.85968L3.72721 3.38251ZM4.81378 7.39445L7.45259 17.1377L9.38304 16.6149L6.74423 6.87162L4.81378 7.39445ZM21.5999 6.13304H5.77901V8.13304H21.5999V6.13304ZM10.9999 20.6284C10.9999 20.9045 10.776 21.1284 10.4999 21.1284V23.1284C11.8806 23.1284 12.9999 22.0091 12.9999 20.6284H10.9999ZM10.4999 21.1284C10.2238 21.1284 9.9999 20.9045 9.9999 20.6284H7.9999C7.9999 22.0091 9.11919 23.1284 10.4999 23.1284V21.1284ZM9.9999 20.6284C9.9999 20.3522 10.2238 20.1284 10.4999 20.1284V18.1284C9.11919 18.1284 7.9999 19.2477 7.9999 20.6284H9.9999ZM10.4999 20.1284C10.776 20.1284 10.9999 20.3522 10.9999 20.6284H12.9999C12.9999 19.2477 11.8806 18.1284 10.4999 18.1284V20.1284ZM18.9999 20.6284C18.9999 20.9045 18.776 21.1284 18.4999 21.1284V23.1284C19.8806 23.1284 20.9999 22.0091 20.9999 20.6284H18.9999ZM18.4999 21.1284C18.2238 21.1284 17.9999 20.9045 17.9999 20.6284H15.9999C15.9999 22.0091 17.1192 23.1284 18.4999 23.1284V21.1284ZM17.9999 20.6284C17.9999 20.3522 18.2238 20.1284 18.4999 20.1284V18.1284C17.1192 18.1284 15.9999 19.2477 15.9999 20.6284H17.9999ZM18.4999 20.1284C18.776 20.1284 18.9999 20.3522 18.9999 20.6284H20.9999C20.9999 19.2477 19.8806 18.1284 18.4999 18.1284V20.1284Z" fill="#134E0D"/>
</svg>
