<svg width="24" height="25" viewBox="0 0 24 25" fill="none" xmlns="http://www.w3.org/2000/svg">
<path d="M4.80005 6.53299L4.35284 5.63856C4.01405 5.80795 3.80005 6.15422 3.80005 6.53299H4.80005ZM12 22.133L11.4661 22.9785C11.7923 23.1845 12.2078 23.1845 12.534 22.9785L12 22.133ZM19.2001 6.53299L20.2001 6.53299C20.2001 6.15422 19.986 5.80795 19.6473 5.63856L19.2001 6.53299ZM10.3901 3.73797L9.94287 2.84355L10.3901 3.73797ZM13.61 3.73797L14.0572 2.84354L13.61 3.73797ZM14.7001 12.6331C15.2523 12.6331 15.7001 12.1854 15.7001 11.6331C15.7001 11.0808 15.2523 10.6331 14.7001 10.6331V12.6331ZM9.30005 10.6331C8.74776 10.6331 8.30005 11.0808 8.30005 11.6331C8.30005 12.1854 8.74776 12.6331 9.30005 12.6331L9.30005 10.6331ZM11 14.333C11 14.8853 11.4478 15.333 12 15.333C12.5523 15.333 13 14.8853 13 14.333H11ZM13 8.93299C13 8.3807 12.5523 7.93299 12 7.93299C11.4478 7.93299 11 8.3807 11 8.93299H13ZM9.94287 2.84355L4.35284 5.63856L5.24726 7.42742L10.8373 4.6324L9.94287 2.84355ZM3.80005 6.53299L3.80005 14.561H5.80005L5.80005 6.53299H3.80005ZM3.80005 14.561C3.80005 16.0405 4.66312 17.4426 5.94389 18.7602C7.24512 20.0989 9.12195 21.4981 11.4661 22.9785L12.534 21.2875C10.2405 19.8391 8.51738 18.5383 7.37801 17.3662C6.21818 16.173 5.80005 15.2535 5.80005 14.561H3.80005ZM12.534 22.9785C14.839 21.5229 16.7279 20.2707 18.0344 19.0069C19.3682 17.7167 20.2001 16.3133 20.2001 14.561H18.2001C18.2001 15.5807 17.7507 16.4988 16.6439 17.5694C15.5098 18.6665 13.7987 19.8143 11.4661 21.2875L12.534 22.9785ZM20.2001 14.561C20.2001 14.5556 20.2001 14.5502 20.2001 14.5447C20.2001 14.5393 20.2001 14.5338 20.2001 14.5284C20.2001 14.5229 20.2001 14.5175 20.2001 14.512C20.2001 14.5065 20.2001 14.5011 20.2001 14.4956C20.2001 14.4901 20.2001 14.4846 20.2001 14.4791C20.2001 14.4736 20.2001 14.4681 20.2001 14.4625C20.2001 14.457 20.2001 14.4515 20.2001 14.4459C20.2001 14.4404 20.2001 14.4348 20.2001 14.4293C20.2001 14.4237 20.2001 14.4181 20.2001 14.4125C20.2001 14.407 20.2001 14.4014 20.2001 14.3958C20.2001 14.3902 20.2001 14.3846 20.2001 14.379C20.2001 14.3733 20.2001 14.3677 20.2001 14.3621C20.2001 14.3565 20.2001 14.3508 20.2001 14.3452C20.2001 14.3395 20.2001 14.3339 20.2001 14.3282C20.2001 14.3225 20.2001 14.3168 20.2001 14.3112C20.2001 14.3055 20.2001 14.2998 20.2001 14.2941C20.2001 14.2884 20.2001 14.2827 20.2001 14.2769C20.2001 14.2712 20.2001 14.2655 20.2001 14.2598C20.2001 14.254 20.2001 14.2483 20.2001 14.2425C20.2001 14.2368 20.2001 14.231 20.2001 14.2252C20.2001 14.2195 20.2001 14.2137 20.2001 14.2079C20.2001 14.2021 20.2001 14.1963 20.2001 14.1905C20.2001 14.1847 20.2001 14.1789 20.2001 14.1731C20.2001 14.1673 20.2001 14.1614 20.2001 14.1556C20.2001 14.1498 20.2001 14.1439 20.2001 14.1381C20.2001 14.1322 20.2001 14.1264 20.2001 14.1205C20.2001 14.1146 20.2001 14.1087 20.2001 14.1029C20.2001 14.097 20.2001 14.0911 20.2001 14.0852C20.2001 14.0793 20.2001 14.0734 20.2001 14.0675C20.2001 14.0615 20.2001 14.0556 20.2001 14.0497C20.2001 14.0438 20.2001 14.0378 20.2001 14.0319C20.2001 14.0259 20.2001 14.02 20.2001 14.014C20.2001 14.0081 20.2001 14.0021 20.2001 13.9961C20.2001 13.9901 20.2001 13.9842 20.2001 13.9782C20.2001 13.9722 20.2001 13.9662 20.2001 13.9602C20.2001 13.9542 20.2001 13.9481 20.2001 13.9421C20.2001 13.9361 20.2001 13.9301 20.2001 13.924C20.2001 13.918 20.2001 13.912 20.2001 13.9059C20.2001 13.8998 20.2001 13.8938 20.2001 13.8877C20.2001 13.8817 20.2001 13.8756 20.2001 13.8695C20.2001 13.8634 20.2001 13.8573 20.2001 13.8512C20.2001 13.8452 20.2001 13.8391 20.2001 13.8329C20.2001 13.8268 20.2001 13.8207 20.2001 13.8146C20.2001 13.8085 20.2001 13.8023 20.2001 13.7962C20.2001 13.7901 20.2001 13.7839 20.2001 13.7778C20.2001 13.7716 20.2001 13.7655 20.2001 13.7593C20.2001 13.7531 20.2001 13.747 20.2001 13.7408C20.2001 13.7346 20.2001 13.7284 20.2001 13.7222C20.2001 13.7161 20.2001 13.7099 20.2001 13.7037C20.2001 13.6974 20.2001 13.6912 20.2001 13.685C20.2001 13.6788 20.2001 13.6726 20.2001 13.6663C20.2001 13.6601 20.2001 13.6539 20.2001 13.6476C20.2001 13.6414 20.2001 13.6351 20.2001 13.6289C20.2001 13.6226 20.2001 13.6164 20.2001 13.6101C20.2001 13.6038 20.2001 13.5976 20.2001 13.5913C20.2001 13.585 20.2001 13.5787 20.2001 13.5724C20.2001 13.5661 20.2001 13.5598 20.2001 13.5535C20.2001 13.5472 20.2001 13.5409 20.2001 13.5346C20.2001 13.5282 20.2001 13.5219 20.2001 13.5156C20.2001 13.5093 20.2001 13.5029 20.2001 13.4966C20.2001 13.4902 20.2001 13.4839 20.2001 13.4775C20.2001 13.4712 20.2001 13.4648 20.2001 13.4584C20.2001 13.4521 20.2001 13.4457 20.2001 13.4393C20.2001 13.4329 20.2001 13.4266 20.2001 13.4202C20.2001 13.4138 20.2001 13.4074 20.2001 13.401C20.2001 13.3946 20.2001 13.3882 20.2001 13.3818C20.2001 13.3753 20.2001 13.3689 20.2001 13.3625C20.2001 13.3561 20.2001 13.3496 20.2001 13.3432C20.2001 13.3368 20.2001 13.3303 20.2001 13.3239C20.2001 13.3174 20.2001 13.311 20.2001 13.3045C20.2001 13.2981 20.2001 13.2916 20.2001 13.2851C20.2001 13.2787 20.2001 13.2722 20.2001 13.2657C20.2001 13.2592 20.2001 13.2527 20.2001 13.2463C20.2001 13.2398 20.2001 13.2333 20.2001 13.2268C20.2001 13.2203 20.2001 13.2138 20.2001 13.2073C20.2001 13.2007 20.2001 13.1942 20.2001 13.1877C20.2001 13.1812 20.2001 13.1747 20.2001 13.1681C20.2001 13.1616 20.2001 13.1551 20.2001 13.1485C20.2001 13.142 20.2001 13.1354 20.2001 13.1289C20.2001 13.1223 20.2001 13.1158 20.2001 13.1092C20.2001 13.1026 20.2001 13.0961 20.2001 13.0895C20.2001 13.0829 20.2001 13.0764 20.2001 13.0698C20.2001 13.0632 20.2001 13.0566 20.2001 13.05C20.2001 13.0434 20.2001 13.0368 20.2001 13.0302C20.2001 13.0236 20.2001 13.017 20.2001 13.0104C20.2001 13.0038 20.2001 12.9972 20.2001 12.9906C20.2001 12.984 20.2001 12.9774 20.2001 12.9707C20.2001 12.9641 20.2001 12.9575 20.2001 12.9508C20.2001 12.9442 20.2001 12.9376 20.2001 12.9309C20.2001 12.9243 20.2001 12.9176 20.2001 12.911C20.2001 12.9043 20.2001 12.8977 20.2001 12.891C20.2001 12.8843 20.2001 12.8777 20.2001 12.871C20.2001 12.8643 20.2001 12.8577 20.2001 12.851C20.2001 12.8443 20.2001 12.8376 20.2001 12.8309C20.2001 12.8243 20.2001 12.8176 20.2001 12.8109C20.2001 12.8042 20.2001 12.7975 20.2001 12.7908C20.2001 12.7841 20.2001 12.7774 20.2001 12.7707C20.2001 12.7639 20.2001 12.7572 20.2001 12.7505C20.2001 12.7438 20.2001 12.7371 20.2001 12.7304C20.2001 12.7236 20.2001 12.7169 20.2001 12.7102C20.2001 12.7034 20.2001 12.6967 20.2001 12.69C20.2001 12.6832 20.2001 12.6765 20.2001 12.6697C20.2001 12.663 20.2001 12.6562 20.2001 12.6495C20.2001 12.6427 20.2001 12.636 20.2001 12.6292C20.2001 12.6224 20.2001 12.6157 20.2001 12.6089C20.2001 12.6021 20.2001 12.5954 20.2001 12.5886C20.2001 12.5818 20.2001 12.575 20.2001 12.5683C20.2001 12.5615 20.2001 12.5547 20.2001 12.5479C20.2001 12.5411 20.2001 12.5343 20.2001 12.5275C20.2001 12.5207 20.2001 12.5139 20.2001 12.5071C20.2001 12.5003 20.2001 12.4935 20.2001 12.4867C20.2001 12.4799 20.2001 12.4731 20.2001 12.4663C20.2001 12.4595 20.2001 12.4527 20.2001 12.4458C20.2001 12.439 20.2001 12.4322 20.2001 12.4254C20.2001 12.4186 20.2001 12.4117 20.2001 12.4049C20.2001 12.3981 20.2001 12.3912 20.2001 12.3844C20.2001 12.3776 20.2001 12.3707 20.2001 12.3639C20.2001 12.357 20.2001 12.3502 20.2001 12.3433C20.2001 12.3365 20.2001 12.3296 20.2001 12.3228C20.2001 12.3159 20.2001 12.3091 20.2001 12.3022C20.2001 12.2954 20.2001 12.2885 20.2001 12.2816C20.2001 12.2748 20.2001 12.2679 20.2001 12.261C20.2001 12.2542 20.2001 12.2473 20.2001 12.2404C20.2001 12.2336 20.2001 12.2267 20.2001 12.2198C20.2001 12.2129 20.2001 12.2061 20.2001 12.1992C20.2001 12.1923 20.2001 12.1854 20.2001 12.1785C20.2001 12.1716 20.2001 12.1647 20.2001 12.1579C20.2001 12.151 20.2001 12.1441 20.2001 12.1372C20.2001 12.1303 20.2001 12.1234 20.2001 12.1165C20.2001 12.1096 20.2001 12.1027 20.2001 12.0958C20.2001 12.0889 20.2001 12.082 20.2001 12.0751C20.2001 12.0682 20.2001 12.0612 20.2001 12.0543C20.2001 12.0474 20.2001 12.0405 20.2001 12.0336C20.2001 12.0267 20.2001 12.0198 20.2001 12.0129C20.2001 12.0059 20.2001 11.999 20.2001 11.9921C20.2001 11.9852 20.2001 11.9782 20.2001 11.9713C20.2001 11.9644 20.2001 11.9575 20.2001 11.9505C20.2001 11.9436 20.2001 11.9367 20.2001 11.9298C20.2001 11.9228 20.2001 11.9159 20.2001 11.909C20.2001 11.902 20.2001 11.8951 20.2001 11.8882C20.2001 11.8812 20.2001 11.8743 20.2001 11.8673C20.2001 11.8604 20.2001 11.8535 20.2001 11.8465C20.2001 11.8396 20.2001 11.8326 20.2001 11.8257C20.2001 11.8187 20.2001 11.8118 20.2001 11.8048C20.2001 11.7979 20.2001 11.7909 20.2001 11.784C20.2001 11.777 20.2001 11.7701 20.2001 11.7631C20.2001 11.7562 20.2001 11.7492 20.2001 11.7423C20.2001 11.7353 20.2001 11.7284 20.2001 11.7214C20.2001 11.7145 20.2001 11.7075 20.2001 11.7006C20.2001 11.6936 20.2001 11.6866 20.2001 11.6797C20.2001 11.6727 20.2001 11.6658 20.2001 11.6588C20.2001 11.6518 20.2001 11.6449 20.2001 11.6379C20.2001 11.631 20.2001 11.624 20.2001 11.617C20.2001 11.6101 20.2001 11.6031 20.2001 11.5961C20.2001 11.5892 20.2001 11.5822 20.2001 11.5752C20.2001 11.5683 20.2001 11.5613 20.2001 11.5543C20.2001 11.5474 20.2001 11.5404 20.2001 11.5334C20.2001 11.5265 20.2001 11.5195 20.2001 11.5125C20.2001 11.5056 20.2001 11.4986 20.2001 11.4916C20.2001 11.4847 20.2001 11.4777 20.2001 11.4707C20.2001 11.4637 20.2001 11.4568 20.2001 11.4498C20.2001 11.4428 20.2001 11.4359 20.2001 11.4289C20.2001 11.4219 20.2001 11.4149 20.2001 11.408C20.2001 11.401 20.2001 11.394 20.2001 11.3871C20.2001 11.3801 20.2001 11.3731 20.2001 11.3661C20.2001 11.3592 20.2001 11.3522 20.2001 11.3452C20.2001 11.3383 20.2001 11.3313 20.2001 11.3243C20.2001 11.3174 20.2001 11.3104 20.2001 11.3034C20.2001 11.2964 20.2001 11.2895 20.2001 11.2825C20.2001 11.2755 20.2001 11.2686 20.2001 11.2616C20.2001 11.2546 20.2001 11.2477 20.2001 11.2407C20.2001 11.2337 20.2001 11.2268 20.2001 11.2198C20.2001 11.2128 20.2001 11.2058 20.2001 11.1989C20.2001 11.1919 20.2001 11.1849 20.2001 11.178C20.2001 11.171 20.2001 11.1641 20.2001 11.1571C20.2001 11.1501 20.2001 11.1432 20.2001 11.1362C20.2001 11.1292 20.2001 11.1223 20.2001 11.1153C20.2001 11.1083 20.2001 11.1014 20.2001 11.0944C20.2001 11.0875 20.2001 11.0805 20.2001 11.0735C20.2001 11.0666 20.2001 11.0596 20.2001 11.0527C20.2001 11.0457 20.2001 11.0388 20.2001 11.0318C20.2001 11.0248 20.2001 11.0179 20.2001 11.0109C20.2001 11.004 20.2001 10.997 20.2001 10.9901C20.2001 10.9831 20.2001 10.9762 20.2001 10.9692C20.2001 10.9623 20.2001 10.9553 20.2001 10.9484C20.2001 10.9414 20.2001 10.9345 20.2001 10.9276C20.2001 10.9206 20.2001 10.9137 20.2001 10.9067C20.2001 10.8998 20.2001 10.8928 20.2001 10.8859C20.2001 10.879 20.2001 10.872 20.2001 10.8651C20.2001 10.8582 20.2001 10.8512 20.2001 10.8443C20.2001 10.8374 20.2001 10.8304 20.2001 10.8235C20.2001 10.8166 20.2001 10.8096 20.2001 10.8027C20.2001 10.7958 20.2001 10.7889 20.2001 10.7819C20.2001 10.775 20.2001 10.7681 20.2001 10.7612C20.2001 10.7543 20.2001 10.7473 20.2001 10.7404C20.2001 10.7335 20.2001 10.7266 20.2001 10.7197C20.2001 10.7128 20.2001 10.7058 20.2001 10.6989C20.2001 10.692 20.2001 10.6851 20.2001 10.6782C20.2001 10.6713 20.2001 10.6644 20.2001 10.6575C20.2001 10.6506 20.2001 10.6437 20.2001 10.6368C20.2001 10.6299 20.2001 10.623 20.2001 10.6161C20.2001 10.6092 20.2001 10.6023 20.2001 10.5954C20.2001 10.5886 20.2001 10.5817 20.2001 10.5748C20.2001 10.5679 20.2001 10.561 20.2001 10.5541C20.2001 10.5473 20.2001 10.5404 20.2001 10.5335C20.2001 10.5266 20.2001 10.5198 20.2001 10.5129C20.2001 10.506 20.2001 10.4991 20.2001 10.4923C20.2001 10.4854 20.2001 10.4785 20.2001 10.4717C20.2001 10.4648 20.2001 10.458 20.2001 10.4511C20.2001 10.4443 20.2001 10.4374 20.2001 10.4306C20.2001 10.4237 20.2001 10.4169 20.2001 10.41C20.2001 10.4032 20.2001 10.3963 20.2001 10.3895C20.2001 10.3826 20.2001 10.3758 20.2001 10.369C20.2001 10.3621 20.2001 10.3553 20.2001 10.3485C20.2001 10.3416 20.2001 10.3348 20.2001 10.328C20.2001 10.3212 20.2001 10.3144 20.2001 10.3075C20.2001 10.3007 20.2001 10.2939 20.2001 10.2871C20.2001 10.2803 20.2001 10.2735 20.2001 10.2667C20.2001 10.2599 20.2001 10.2531 20.2001 10.2463C20.2001 10.2395 20.2001 10.2327 20.2001 10.2259C20.2001 10.2191 20.2001 10.2123 20.2001 10.2055C20.2001 10.1987 20.2001 10.1919 20.2001 10.1852C20.2001 10.1784 20.2001 10.1716 20.2001 10.1648C20.2001 10.1581 20.2001 10.1513 20.2001 10.1445C20.2001 10.1378 20.2001 10.131 20.2001 10.1242C20.2001 10.1175 20.2001 10.1107 20.2001 10.104C20.2001 10.0972 20.2001 10.0905 20.2001 10.0837C20.2001 10.077 20.2001 10.0702 20.2001 10.0635C20.2001 10.0568 20.2001 10.05 20.2001 10.0433C20.2001 10.0366 20.2001 10.0299 20.2001 10.0231C20.2001 10.0164 20.2001 10.0097 20.2001 10.003C20.2001 9.99626 20.2001 9.98955 20.2001 9.98284C20.2001 9.97614 20.2001 9.96943 20.2001 9.96273C20.2001 9.95604 20.2001 9.94934 20.2001 9.94265C20.2001 9.93596 20.2001 9.92927 20.2001 9.92259C20.2001 9.9159 20.2001 9.90923 20.2001 9.90255C20.2001 9.89588 20.2001 9.88921 20.2001 9.88254C20.2001 9.87587 20.2001 9.86921 20.2001 9.86255C20.2001 9.8559 20.2001 9.84924 20.2001 9.84259C20.2001 9.83594 20.2001 9.8293 20.2001 9.82266C20.2001 9.81602 20.2001 9.80938 20.2001 9.80275C20.2001 9.79612 20.2001 9.78949 20.2001 9.78287C20.2001 9.77624 20.2001 9.76962 20.2001 9.76301C20.2001 9.7564 20.2001 9.74979 20.2001 9.74318C20.2001 9.73658 20.2001 9.72998 20.2001 9.72338C20.2001 9.71678 20.2001 9.71019 20.2001 9.70361C20.2001 9.69702 20.2001 9.69044 20.2001 9.68386C20.2001 9.67729 20.2001 9.67071 20.2001 9.66415C20.2001 9.65758 20.2001 9.65102 20.2001 9.64446C20.2001 9.6379 20.2001 9.63135 20.2001 9.6248C20.2001 9.61825 20.2001 9.61171 20.2001 9.60517C20.2001 9.59864 20.2001 9.5921 20.2001 9.58557C20.2001 9.57905 20.2001 9.57252 20.2001 9.56601C20.2001 9.55949 20.2001 9.55298 20.2001 9.54647C20.2001 9.53996 20.2001 9.53346 20.2001 9.52696C20.2001 9.52047 20.2001 9.51397 20.2001 9.50749C20.2001 9.501 20.2001 9.49452 20.2001 9.48805C20.2001 9.48157 20.2001 9.4751 20.2001 9.46863C20.2001 9.46217 20.2001 9.45571 20.2001 9.44926C20.2001 9.4428 20.2001 9.43635 20.2001 9.42991C20.2001 9.42347 20.2001 9.41703 20.2001 9.4106C20.2001 9.40417 20.2001 9.39774 20.2001 9.39132C20.2001 9.3849 20.2001 9.37848 20.2001 9.37207C20.2001 9.36566 20.2001 9.35926 20.2001 9.35286C20.2001 9.34646 20.2001 9.34007 20.2001 9.33368C20.2001 9.3273 20.2001 9.32092 20.2001 9.31454C20.2001 9.30817 20.2001 9.3018 20.2001 9.29544C20.2001 9.28907 20.2001 9.28272 20.2001 9.27636C20.2001 9.27001 20.2001 9.26367 20.2001 9.25733C20.2001 9.25099 20.2001 9.24466 20.2001 9.23833C20.2001 9.232 20.2001 9.22568 20.2001 9.21937C20.2001 9.21305 20.2001 9.20674 20.2001 9.20044C20.2001 9.19414 20.2001 9.18784 20.2001 9.18155C20.2001 9.17526 20.2001 9.16898 20.2001 9.1627C20.2001 9.15642 20.2001 9.15015 20.2001 9.14389C20.2001 9.13762 20.2001 9.13137 20.2001 9.12511C20.2001 9.11886 20.2001 9.11262 20.2001 9.10638C20.2001 9.10014 20.2001 9.09391 20.2001 9.08768C20.2001 9.08146 20.2001 9.07524 20.2001 9.06902C20.2001 9.06281 20.2001 9.05661 20.2001 9.05041C20.2001 9.04421 20.2001 9.03801 20.2001 9.03183C20.2001 9.02564 20.2001 9.01946 20.2001 9.01329C20.2001 9.00712 20.2001 9.00095 20.2001 8.99479C20.2001 8.98864 20.2001 8.98248 20.2001 8.97634C20.2001 8.97019 20.2001 8.96406 20.2001 8.95792C20.2001 8.95179 20.2001 8.94567 20.2001 8.93955C20.2001 8.93343 20.2001 8.92732 20.2001 8.92122C20.2001 8.91512 20.2001 8.90902 20.2001 8.90293C20.2001 8.89684 20.2001 8.89076 20.2001 8.88469C20.2001 8.87861 20.2001 8.87255 20.2001 8.86649C20.2001 8.86043 20.2001 8.85437 20.2001 8.84833C20.2001 8.84228 20.2001 8.83624 20.2001 8.83021C20.2001 8.82418 20.2001 8.81816 20.2001 8.81214C20.2001 8.80613 20.2001 8.80012 20.2001 8.79412C20.2001 8.78811 20.2001 8.78212 20.2001 8.77613C20.2001 8.77015 20.2001 8.76417 20.2001 8.7582C20.2001 8.75223 20.2001 8.74626 20.2001 8.74031C20.2001 8.73435 20.2001 8.7284 20.2001 8.72246C20.2001 8.71652 20.2001 8.71059 20.2001 8.70467C20.2001 8.69874 20.2001 8.69282 20.2001 8.68691C20.2001 8.681 20.2001 8.6751 20.2001 8.66921C20.2001 8.66331 20.2001 8.65743 20.2001 8.65155C20.2001 8.64567 20.2001 8.6398 20.2001 8.63394C20.2001 8.62808 20.2001 8.62223 20.2001 8.61638C20.2001 8.61053 20.2001 8.6047 20.2001 8.59887C20.2001 8.59304 20.2001 8.58721 20.2001 8.5814C20.2001 8.57559 20.2001 8.56978 20.2001 8.56399C20.2001 8.55819 20.2001 8.5524 20.2001 8.54662C20.2001 8.54084 20.2001 8.53507 20.2001 8.5293C20.2001 8.52354 20.2001 8.51778 20.2001 8.51204C20.2001 8.50629 20.2001 8.50055 20.2001 8.49482C20.2001 8.48909 20.2001 8.48337 20.2001 8.47765C20.2001 8.47194 20.2001 8.46624 20.2001 8.46054C20.2001 8.45484 20.2001 8.44916 20.2001 8.44348C20.2001 8.4378 20.2001 8.43213 20.2001 8.42647C20.2001 8.4208 20.2001 8.41515 20.2001 8.40951C20.2001 8.40386 20.2001 8.39823 20.2001 8.3926C20.2001 8.38697 20.2001 8.38136 20.2001 8.37575C20.2001 8.37014 20.2001 8.36454 20.2001 8.35895C20.2001 8.35335 20.2001 8.34777 20.2001 8.3422C20.2001 8.33663 20.2001 8.33106 20.2001 8.32551C20.2001 8.31995 20.2001 8.3144 20.2001 8.30887C20.2001 8.30333 20.2001 8.2978 20.2001 8.29228C20.2001 8.28676 20.2001 8.28125 20.2001 8.27575C20.2001 8.27025 20.2001 8.26476 20.2001 8.25928C20.2001 8.2538 20.2001 8.24832 20.2001 8.24286C20.2001 8.2374 20.2001 8.23194 20.2001 8.2265C20.2001 8.22105 20.2001 8.21562 20.2001 8.21019C20.2001 8.20477 20.2001 8.19935 20.2001 8.19394C20.2001 8.18854 20.2001 8.18314 20.2001 8.17775C20.2001 8.17236 20.2001 8.16698 20.2001 8.16161C20.2001 8.15625 20.2001 8.15089 20.2001 8.14554C20.2001 8.14019 20.2001 8.13485 20.2001 8.12952C20.2001 8.12419 20.2001 8.11887 20.2001 8.11356C20.2001 8.10824 20.2001 8.10294 20.2001 8.09765C20.2001 8.09236 20.2001 8.08708 20.2001 8.08181C20.2001 8.07654 20.2001 8.07128 20.2001 8.06602C20.2001 8.06077 20.2001 8.05553 20.2001 8.0503C20.2001 8.04507 20.2001 8.03985 20.2001 8.03464C20.2001 8.02942 20.2001 8.02422 20.2001 8.01903C20.2001 8.01384 20.2001 8.00866 20.2001 8.00349C20.2001 7.99832 20.2001 7.99316 20.2001 7.98801C20.2001 7.98286 20.2001 7.97772 20.2001 7.97259C20.2001 7.96746 20.2001 7.96234 20.2001 7.95723C20.2001 7.95212 20.2001 7.94702 20.2001 7.94193C20.2001 7.93684 20.2001 7.93177 20.2001 7.9267C20.2001 7.92163 20.2001 7.91657 20.2001 7.91153C20.2001 7.90648 20.2001 7.90144 20.2001 7.89642C20.2001 7.89139 20.2001 7.88638 20.2001 7.88137C20.2001 7.87637 20.2001 7.87138 20.2001 7.86639C20.2001 7.86141 20.2001 7.85644 20.2001 7.85148C20.2001 7.84652 20.2001 7.84157 20.2001 7.83663C20.2001 7.83169 20.2001 7.82676 20.2001 7.82184C20.2001 7.81692 20.2001 7.81201 20.2001 7.80712C20.2001 7.80222 20.2001 7.79734 20.2001 7.79246C20.2001 7.78759 20.2001 7.78272 20.2001 7.77787C20.2001 7.77302 20.2001 7.76818 20.2001 7.76335C20.2001 7.75852 20.2001 7.7537 20.2001 7.74889C20.2001 7.74408 20.2001 7.73929 20.2001 7.7345C20.2001 7.72972 20.2001 7.72494 20.2001 7.72018C20.2001 7.71542 20.2001 7.71067 20.2001 7.70593C20.2001 7.70119 20.2001 7.69646 20.2001 7.69174C20.2001 7.68702 20.2001 7.68232 20.2001 7.67762C20.2001 7.67293 20.2001 7.66824 20.2001 7.66357C20.2001 7.6589 20.2001 7.65424 20.2001 7.64959C20.2001 7.64494 20.2001 7.64031 20.2001 7.63568C20.2001 7.63105 20.2001 7.62644 20.2001 7.62184C20.2001 7.61724 20.2001 7.61265 20.2001 7.60807C20.2001 7.60349 20.2001 7.59892 20.2001 7.59437C20.2001 7.58981 20.2001 7.58527 20.2001 7.58074C20.2001 7.57621 20.2001 7.57169 20.2001 7.56718C20.2001 7.56267 20.2001 7.55818 20.2001 7.55369C20.2001 7.54921 20.2001 7.54474 20.2001 7.54028C20.2001 7.53582 20.2001 7.53137 20.2001 7.52693C20.2001 7.5225 20.2001 7.51807 20.2001 7.51366C20.2001 7.50925 20.2001 7.50485 20.2001 7.50047C20.2001 7.49608 20.2001 7.4917 20.2001 7.48734C20.2001 7.48298 20.2001 7.47863 20.2001 7.47429C20.2001 7.46995 20.2001 7.46563 20.2001 7.46131C20.2001 7.457 20.2001 7.4527 20.2001 7.44841C20.2001 7.44412 20.2001 7.43985 20.2001 7.43558C20.2001 7.43132 20.2001 7.42707 20.2001 7.42283C20.2001 7.41859 20.2001 7.41437 20.2001 7.41015C20.2001 7.40594 20.2001 7.40174 20.2001 7.39755C20.2001 7.39336 20.2001 7.38919 20.2001 7.38502C20.2001 7.38086 20.2001 7.37671 20.2001 7.37258C20.2001 7.36844 20.2001 7.36431 20.2001 7.3602C20.2001 7.35609 20.2001 7.35199 20.2001 7.34791C20.2001 7.34382 20.2001 7.33975 20.2001 7.33569C20.2001 7.33163 20.2001 7.32758 20.2001 7.32355C20.2001 7.31951 20.2001 7.31549 20.2001 7.31149C20.2001 7.30748 20.2001 7.30348 20.2001 7.2995C20.2001 7.29552 20.2001 7.29155 20.2001 7.2876C20.2001 7.28364 20.2001 7.2797 20.2001 7.27577C20.2001 7.27184 20.2001 7.26792 20.2001 7.26402C20.2001 7.26012 20.2001 7.25623 20.2001 7.25236C20.2001 7.24848 20.2001 7.24462 20.2001 7.24077C20.2001 7.23692 20.2001 7.23308 20.2001 7.22926C20.2001 7.22544 20.2001 7.22163 20.2001 7.21784C20.2001 7.21404 20.2001 7.21026 20.2001 7.20649C20.2001 7.20273 20.2001 7.19897 20.2001 7.19523C20.2001 7.19149 20.2001 7.18776 20.2001 7.18405C20.2001 7.18034 20.2001 7.17664 20.2001 7.17295C20.2001 7.16927 20.2001 7.16559 20.2001 7.16194C20.2001 7.15828 20.2001 7.15463 20.2001 7.151C20.2001 7.14737 20.2001 7.14375 20.2001 7.14015C20.2001 7.13655 20.2001 7.13296 20.2001 7.12939C20.2001 7.12581 20.2001 7.12225 20.2001 7.1187C20.2001 7.11516 20.2001 7.11162 20.2001 7.10811C20.2001 7.10459 20.2001 7.10108 20.2001 7.09759C20.2001 7.0941 20.2001 7.09063 20.2001 7.08716C20.2001 7.0837 20.2001 7.08026 20.2001 7.07682C20.2001 7.07339 20.2001 7.06997 20.2001 7.06657C20.2001 7.06316 20.2001 7.05977 20.2001 7.05639C20.2001 7.05302 20.2001 7.04966 20.2001 7.04631C20.2001 7.04296 20.2001 7.03963 20.2001 7.03631C20.2001 7.03299 20.2001 7.02969 20.2001 7.0264C20.2001 7.02311 20.2001 7.01984 20.2001 7.01658C20.2001 7.01332 20.2001 7.01007 20.2001 7.00684C20.2001 7.00361 20.2001 7.0004 20.2001 6.99719C20.2001 6.99399 20.2001 6.99081 20.2001 6.98763C20.2001 6.98446 20.2001 6.98131 20.2001 6.97816C20.2001 6.97502 20.2001 6.9719 20.2001 6.96878C20.2001 6.96567 20.2001 6.96257 20.2001 6.95949C20.2001 6.95641 20.2001 6.95334 20.2001 6.95029C20.2001 6.94724 20.2001 6.9442 20.2001 6.94118C20.2001 6.93816 20.2001 6.93515 20.2001 6.93216C20.2001 6.92917 20.2001 6.92619 20.2001 6.92323C20.2001 6.92027 20.2001 6.91732 20.2001 6.91439C20.2001 6.91146 20.2001 6.90854 20.2001 6.90564C20.2001 6.90274 20.2001 6.89986 20.2001 6.89699C20.2001 6.89412 20.2001 6.89126 20.2001 6.88842C20.2001 6.88558 20.2001 6.88276 20.2001 6.87995C20.2001 6.87714 20.2001 6.87435 20.2001 6.87158C20.2001 6.8688 20.2001 6.86604 20.2001 6.86329C20.2001 6.86055 20.2001 6.85782 20.2001 6.8551C20.2001 6.85239 20.2001 6.84969 20.2001 6.847C20.2001 6.84432 20.2001 6.84165 20.2001 6.839C20.2001 6.83635 20.2001 6.83371 20.2001 6.83109C20.2001 6.82847 20.2001 6.82587 20.2001 6.82328C20.2001 6.82069 20.2001 6.81812 20.2001 6.81557C20.2001 6.81301 20.2001 6.81047 20.2001 6.80794C20.2001 6.80542 20.2001 6.80291 20.2001 6.80042C20.2001 6.79793 20.2001 6.79545 20.2001 6.79299C20.2001 6.79053 20.2001 6.78809 20.2001 6.78566C20.2001 6.78323 20.2001 6.78082 20.2001 6.77842C20.2001 6.77603 20.2001 6.77365 20.2001 6.77129C20.2001 6.76892 20.2001 6.76658 20.2001 6.76425C20.2001 6.76192 20.2001 6.7596 20.2001 6.7573C20.2001 6.75501 20.2001 6.75273 20.2001 6.75046C20.2001 6.7482 20.2001 6.74595 20.2001 6.74372C20.2001 6.74149 20.2001 6.73927 20.2001 6.73707C20.2001 6.73487 20.2001 6.73269 20.2001 6.73053C20.2001 6.72836 20.2001 6.72621 20.2001 6.72408C20.2001 6.72195 20.2001 6.71983 20.2001 6.71774C20.2001 6.71564 20.2001 6.71356 20.2001 6.71149C20.2001 6.70943 20.2001 6.70738 20.2001 6.70535C20.2001 6.70332 20.2001 6.7013 20.2001 6.69931C20.2001 6.69731 20.2001 6.69533 20.2001 6.69336C20.2001 6.6914 20.2001 6.68945 20.2001 6.68753C20.2001 6.6856 20.2001 6.68368 20.2001 6.68179C20.2001 6.67989 20.2001 6.67802 20.2001 6.67615C20.2001 6.67429 20.2001 6.67245 20.2001 6.67062C20.2001 6.6688 20.2001 6.66699 20.2001 6.6652C20.2001 6.6634 20.2001 6.66163 20.2001 6.65987C20.2001 6.65812 20.2001 6.65638 20.2001 6.65465C20.2001 6.65293 20.2001 6.65122 20.2001 6.64954C20.2001 6.64785 20.2001 6.64618 20.2001 6.64453C20.2001 6.64287 20.2001 6.64124 20.2001 6.63962C20.2001 6.638 20.2001 6.6364 20.2001 6.63482C20.2001 6.63324 20.2001 6.63167 20.2001 6.63013C20.2001 6.62858 20.2001 6.62705 20.2001 6.62554C20.2001 6.62403 20.2001 6.62253 20.2001 6.62106C20.2001 6.61958 20.2001 6.61812 20.2001 6.61668C20.2001 6.61524 20.2001 6.61382 20.2001 6.61241C20.2001 6.61101 20.2001 6.60962 20.2001 6.60825C20.2001 6.60688 20.2001 6.60553 20.2001 6.6042C20.2001 6.60287 20.2001 6.60155 20.2001 6.60026C20.2001 6.59896 20.2001 6.59768 20.2001 6.59642C20.2001 6.59516 20.2001 6.59392 20.2001 6.59269C20.2001 6.59147 20.2001 6.59026 20.2001 6.58907C20.2001 6.58789 20.2001 6.58672 20.2001 6.58557C20.2001 6.58441 20.2001 6.58328 20.2001 6.58217C20.2001 6.58105 20.2001 6.57996 20.2001 6.57888C20.2001 6.5778 20.2001 6.57674 20.2001 6.5757C20.2001 6.57466 20.2001 6.57364 20.2001 6.57264C20.2001 6.57163 20.2001 6.57065 20.2001 6.56968C20.2001 6.56871 20.2001 6.56777 20.2001 6.56684C20.2001 6.56591 20.2001 6.565 20.2001 6.56411C20.2001 6.56321 20.2001 6.56234 20.2001 6.56149C20.2001 6.56063 20.2001 6.5598 20.2001 6.55898C20.2001 6.55816 20.2001 6.55737 20.2001 6.55659C20.2001 6.55581 20.2001 6.55505 20.2001 6.55431C20.2001 6.55357 20.2001 6.55284 20.2001 6.55214C20.2001 6.55144 20.2001 6.55075 20.2001 6.55009C20.2001 6.54942 20.2001 6.54878 20.2001 6.54815C20.2001 6.54752 20.2001 6.54692 20.2001 6.54633C20.2001 6.54574 20.2001 6.54517 20.2001 6.54462C20.2001 6.54407 20.2001 6.54354 20.2001 6.54303C20.2001 6.54252 20.2001 6.54202 20.2001 6.54155C20.2001 6.54108 20.2001 6.54062 20.2001 6.54019C20.2001 6.53976 20.2001 6.53934 20.2001 6.53895C20.2001 6.53855 20.2001 6.53817 20.2001 6.53782C20.2001 6.53746 20.2001 6.53713 20.2001 6.53681C20.2001 6.53649 20.2001 6.53619 20.2001 6.53592C20.2001 6.53564 20.2001 6.53538 20.2001 6.53514C20.2001 6.5349 20.2001 6.53468 20.2001 6.53448C20.2001 6.53429 20.2001 6.53411 20.2001 6.53395C20.2001 6.53379 20.2001 6.53365 20.2001 6.53353C20.2001 6.53341 20.2001 6.53331 20.2001 6.53323C20.2001 6.53315 20.2001 6.53309 20.2001 6.53305C20.2001 6.53301 20.2001 6.53299 19.2001 6.53299C18.2001 6.53299 18.2001 6.53301 18.2001 6.53305C18.2001 6.53309 18.2001 6.53315 18.2001 6.53323C18.2001 6.53331 18.2001 6.53341 18.2001 6.53353C18.2001 6.53365 18.2001 6.53379 18.2001 6.53395C18.2001 6.53411 18.2001 6.53429 18.2001 6.53448C18.2001 6.53468 18.2001 6.5349 18.2001 6.53514C18.2001 6.53538 18.2001 6.53564 18.2001 6.53592C18.2001 6.53619 18.2001 6.53649 18.2001 6.53681C18.2001 6.53713 18.2001 6.53746 18.2001 6.53782C18.2001 6.53817 18.2001 6.53855 18.2001 6.53895C18.2001 6.53934 18.2001 6.53976 18.2001 6.54019C18.2001 6.54062 18.2001 6.54108 18.2001 6.54155C18.2001 6.54202 18.2001 6.54252 18.2001 6.54303C18.2001 6.54354 18.2001 6.54407 18.2001 6.54462C18.2001 6.54517 18.2001 6.54574 18.2001 6.54633C18.2001 6.54692 18.2001 6.54752 18.2001 6.54815C18.2001 6.54878 18.2001 6.54942 18.2001 6.55009C18.2001 6.55075 18.2001 6.55144 18.2001 6.55214C18.2001 6.55284 18.2001 6.55357 18.2001 6.55431C18.2001 6.55505 18.2001 6.55581 18.2001 6.55659C18.2001 6.55737 18.2001 6.55816 18.2001 6.55898C18.2001 6.5598 18.2001 6.56063 18.2001 6.56149C18.2001 6.56234 18.2001 6.56321 18.2001 6.56411C18.2001 6.565 18.2001 6.56591 18.2001 6.56684C18.2001 6.56777 18.2001 6.56871 18.2001 6.56968C18.2001 6.57065 18.2001 6.57163 18.2001 6.57264C18.2001 6.57364 18.2001 6.57466 18.2001 6.5757C18.2001 6.57674 18.2001 6.5778 18.2001 6.57888C18.2001 6.57996 18.2001 6.58105 18.2001 6.58217C18.2001 6.58328 18.2001 6.58441 18.2001 6.58557C18.2001 6.58672 18.2001 6.58789 18.2001 6.58907C18.2001 6.59026 18.2001 6.59147 18.2001 6.59269C18.2001 6.59392 18.2001 6.59516 18.2001 6.59642C18.2001 6.59768 18.2001 6.59896 18.2001 6.60026C18.2001 6.60155 18.2001 6.60287 18.2001 6.6042C18.2001 6.60553 18.2001 6.60688 18.2001 6.60825C18.2001 6.60962 18.2001 6.61101 18.2001 6.61241C18.2001 6.61382 18.2001 6.61524 18.2001 6.61668C18.2001 6.61812 18.2001 6.61958 18.2001 6.62106C18.2001 6.62253 18.2001 6.62403 18.2001 6.62554C18.2001 6.62705 18.2001 6.62858 18.2001 6.63013C18.2001 6.63167 18.2001 6.63324 18.2001 6.63482C18.2001 6.6364 18.2001 6.638 18.2001 6.63962C18.2001 6.64124 18.2001 6.64287 18.2001 6.64453C18.2001 6.64618 18.2001 6.64785 18.2001 6.64954C18.2001 6.65122 18.2001 6.65293 18.2001 6.65465C18.2001 6.65638 18.2001 6.65812 18.2001 6.65987C18.2001 6.66163 18.2001 6.6634 18.2001 6.6652C18.2001 6.66699 18.2001 6.6688 18.2001 6.67062C18.2001 6.67245 18.2001 6.67429 18.2001 6.67615C18.2001 6.67802 18.2001 6.67989 18.2001 6.68179C18.2001 6.68368 18.2001 6.6856 18.2001 6.68753C18.2001 6.68945 18.2001 6.6914 18.2001 6.69336C18.2001 6.69533 18.2001 6.69731 18.2001 6.69931C18.2001 6.7013 18.2001 6.70332 18.2001 6.70535C18.2001 6.70738 18.2001 6.70943 18.2001 6.71149C18.2001 6.71356 18.2001 6.71564 18.2001 6.71774C18.2001 6.71983 18.2001 6.72195 18.2001 6.72408C18.2001 6.72621 18.2001 6.72836 18.2001 6.73053C18.2001 6.73269 18.2001 6.73487 18.2001 6.73707C18.2001 6.73927 18.2001 6.74149 18.2001 6.74372C18.2001 6.74595 18.2001 6.7482 18.2001 6.75046C18.2001 6.75273 18.2001 6.75501 18.2001 6.7573C18.2001 6.7596 18.2001 6.76192 18.2001 6.76425C18.2001 6.76658 18.2001 6.76892 18.2001 6.77129C18.2001 6.77365 18.2001 6.77603 18.2001 6.77842C18.2001 6.78082 18.2001 6.78323 18.2001 6.78566C18.2001 6.78809 18.2001 6.79053 18.2001 6.79299C18.2001 6.79545 18.2001 6.79793 18.2001 6.80042C18.2001 6.80291 18.2001 6.80542 18.2001 6.80794C18.2001 6.81047 18.2001 6.81301 18.2001 6.81557C18.2001 6.81812 18.2001 6.82069 18.2001 6.82328C18.2001 6.82587 18.2001 6.82847 18.2001 6.83109C18.2001 6.83371 18.2001 6.83635 18.2001 6.839C18.2001 6.84165 18.2001 6.84432 18.2001 6.847C18.2001 6.84969 18.2001 6.85239 18.2001 6.8551C18.2001 6.85782 18.2001 6.86055 18.2001 6.86329C18.2001 6.86604 18.2001 6.8688 18.2001 6.87158C18.2001 6.87435 18.2001 6.87714 18.2001 6.87995C18.2001 6.88276 18.2001 6.88558 18.2001 6.88842C18.2001 6.89126 18.2001 6.89412 18.2001 6.89699C18.2001 6.89986 18.2001 6.90274 18.2001 6.90564C18.2001 6.90854 18.2001 6.91146 18.2001 6.91439C18.2001 6.91732 18.2001 6.92027 18.2001 6.92323C18.2001 6.92619 18.2001 6.92917 18.2001 6.93216C18.2001 6.93515 18.2001 6.93816 18.2001 6.94118C18.2001 6.9442 18.2001 6.94724 18.2001 6.95029C18.2001 6.95334 18.2001 6.95641 18.2001 6.95949C18.2001 6.96257 18.2001 6.96567 18.2001 6.96878C18.2001 6.9719 18.2001 6.97502 18.2001 6.97816C18.2001 6.98131 18.2001 6.98446 18.2001 6.98763C18.2001 6.99081 18.2001 6.99399 18.2001 6.99719C18.2001 7.0004 18.2001 7.00361 18.2001 7.00684C18.2001 7.01007 18.2001 7.01332 18.2001 7.01658C18.2001 7.01984 18.2001 7.02311 18.2001 7.0264C18.2001 7.02969 18.2001 7.03299 18.2001 7.03631C18.2001 7.03963 18.2001 7.04296 18.2001 7.04631C18.2001 7.04966 18.2001 7.05302 18.2001 7.05639C18.2001 7.05977 18.2001 7.06316 18.2001 7.06657C18.2001 7.06997 18.2001 7.07339 18.2001 7.07682C18.2001 7.08026 18.2001 7.0837 18.2001 7.08716C18.2001 7.09063 18.2001 7.0941 18.2001 7.09759C18.2001 7.10108 18.2001 7.10459 18.2001 7.10811C18.2001 7.11162 18.2001 7.11516 18.2001 7.1187C18.2001 7.12225 18.2001 7.12581 18.2001 7.12939C18.2001 7.13296 18.2001 7.13655 18.2001 7.14015C18.2001 7.14375 18.2001 7.14737 18.2001 7.151C18.2001 7.15463 18.2001 7.15828 18.2001 7.16194C18.2001 7.16559 18.2001 7.16927 18.2001 7.17295C18.2001 7.17664 18.2001 7.18034 18.2001 7.18405C18.2001 7.18776 18.2001 7.19149 18.2001 7.19523C18.2001 7.19897 18.2001 7.20273 18.2001 7.20649C18.2001 7.21026 18.2001 7.21404 18.2001 7.21784C18.2001 7.22163 18.2001 7.22544 18.2001 7.22926C18.2001 7.23308 18.2001 7.23692 18.2001 7.24077C18.2001 7.24462 18.2001 7.24848 18.2001 7.25236C18.2001 7.25623 18.2001 7.26012 18.2001 7.26402C18.2001 7.26792 18.2001 7.27184 18.2001 7.27577C18.2001 7.2797 18.2001 7.28364 18.2001 7.2876C18.2001 7.29155 18.2001 7.29552 18.2001 7.2995C18.2001 7.30348 18.2001 7.30748 18.2001 7.31149C18.2001 7.31549 18.2001 7.31951 18.2001 7.32355C18.2001 7.32758 18.2001 7.33163 18.2001 7.33569C18.2001 7.33975 18.2001 7.34382 18.2001 7.34791C18.2001 7.35199 18.2001 7.35609 18.2001 7.3602C18.2001 7.36431 18.2001 7.36844 18.2001 7.37258C18.2001 7.37671 18.2001 7.38086 18.2001 7.38502C18.2001 7.38919 18.2001 7.39336 18.2001 7.39755C18.2001 7.40174 18.2001 7.40594 18.2001 7.41015C18.2001 7.41437 18.2001 7.41859 18.2001 7.42283C18.2001 7.42707 18.2001 7.43132 18.2001 7.43558C18.2001 7.43985 18.2001 7.44412 18.2001 7.44841C18.2001 7.4527 18.2001 7.457 18.2001 7.46131C18.2001 7.46563 18.2001 7.46995 18.2001 7.47429C18.2001 7.47863 18.2001 7.48298 18.2001 7.48734C18.2001 7.4917 18.2001 7.49608 18.2001 7.50047C18.2001 7.50485 18.2001 7.50925 18.2001 7.51366C18.2001 7.51807 18.2001 7.5225 18.2001 7.52693C18.2001 7.53137 18.2001 7.53582 18.2001 7.54028C18.2001 7.54474 18.2001 7.54921 18.2001 7.55369C18.2001 7.55818 18.2001 7.56267 18.2001 7.56718C18.2001 7.57169 18.2001 7.57621 18.2001 7.58074C18.2001 7.58527 18.2001 7.58981 18.2001 7.59437C18.2001 7.59892 18.2001 7.60349 18.2001 7.60807C18.2001 7.61265 18.2001 7.61724 18.2001 7.62184C18.2001 7.62644 18.2001 7.63105 18.2001 7.63568C18.2001 7.64031 18.2001 7.64494 18.2001 7.64959C18.2001 7.65424 18.2001 7.6589 18.2001 7.66357C18.2001 7.66824 18.2001 7.67293 18.2001 7.67762C18.2001 7.68232 18.2001 7.68702 18.2001 7.69174C18.2001 7.69646 18.2001 7.70119 18.2001 7.70593C18.2001 7.71067 18.2001 7.71542 18.2001 7.72018C18.2001 7.72494 18.2001 7.72972 18.2001 7.7345C18.2001 7.73929 18.2001 7.74408 18.2001 7.74889C18.2001 7.7537 18.2001 7.75852 18.2001 7.76335C18.2001 7.76818 18.2001 7.77302 18.2001 7.77787C18.2001 7.78272 18.2001 7.78759 18.2001 7.79246C18.2001 7.79734 18.2001 7.80222 18.2001 7.80712C18.2001 7.81201 18.2001 7.81692 18.2001 7.82184C18.2001 7.82676 18.2001 7.83169 18.2001 7.83663C18.2001 7.84157 18.2001 7.84652 18.2001 7.85148C18.2001 7.85644 18.2001 7.86141 18.2001 7.86639C18.2001 7.87138 18.2001 7.87637 18.2001 7.88137C18.2001 7.88638 18.2001 7.89139 18.2001 7.89642C18.2001 7.90144 18.2001 7.90648 18.2001 7.91153C18.2001 7.91657 18.2001 7.92163 18.2001 7.9267C18.2001 7.93177 18.2001 7.93684 18.2001 7.94193C18.2001 7.94702 18.2001 7.95212 18.2001 7.95723C18.2001 7.96234 18.2001 7.96746 18.2001 7.97259C18.2001 7.97772 18.2001 7.98286 18.2001 7.98801C18.2001 7.99316 18.2001 7.99832 18.2001 8.00349C18.2001 8.00866 18.2001 8.01384 18.2001 8.01903C18.2001 8.02422 18.2001 8.02942 18.2001 8.03464C18.2001 8.03985 18.2001 8.04507 18.2001 8.0503C18.2001 8.05553 18.2001 8.06077 18.2001 8.06602C18.2001 8.07128 18.2001 8.07654 18.2001 8.08181C18.2001 8.08708 18.2001 8.09236 18.2001 8.09765C18.2001 8.10294 18.2001 8.10824 18.2001 8.11356C18.2001 8.11887 18.2001 8.12419 18.2001 8.12952C18.2001 8.13485 18.2001 8.14019 18.2001 8.14554C18.2001 8.15089 18.2001 8.15625 18.2001 8.16161C18.2001 8.16698 18.2001 8.17236 18.2001 8.17775C18.2001 8.18314 18.2001 8.18854 18.2001 8.19394C18.2001 8.19935 18.2001 8.20477 18.2001 8.21019C18.2001 8.21562 18.2001 8.22105 18.2001 8.2265C18.2001 8.23194 18.2001 8.2374 18.2001 8.24286C18.2001 8.24832 18.2001 8.2538 18.2001 8.25928C18.2001 8.26476 18.2001 8.27025 18.2001 8.27575C18.2001 8.28125 18.2001 8.28676 18.2001 8.29228C18.2001 8.2978 18.2001 8.30333 18.2001 8.30887C18.2001 8.3144 18.2001 8.31995 18.2001 8.32551C18.2001 8.33106 18.2001 8.33663 18.2001 8.3422C18.2001 8.34777 18.2001 8.35335 18.2001 8.35895C18.2001 8.36454 18.2001 8.37014 18.2001 8.37575C18.2001 8.38136 18.2001 8.38697 18.2001 8.3926C18.2001 8.39823 18.2001 8.40386 18.2001 8.40951C18.2001 8.41515 18.2001 8.4208 18.2001 8.42647C18.2001 8.43213 18.2001 8.4378 18.2001 8.44348C18.2001 8.44916 18.2001 8.45484 18.2001 8.46054C18.2001 8.46624 18.2001 8.47194 18.2001 8.47765C18.2001 8.48337 18.2001 8.48909 18.2001 8.49482C18.2001 8.50055 18.2001 8.50629 18.2001 8.51204C18.2001 8.51778 18.2001 8.52354 18.2001 8.5293C18.2001 8.53507 18.2001 8.54084 18.2001 8.54662C18.2001 8.5524 18.2001 8.55819 18.2001 8.56399C18.2001 8.56978 18.2001 8.57559 18.2001 8.5814C18.2001 8.58721 18.2001 8.59304 18.2001 8.59887C18.2001 8.6047 18.2001 8.61053 18.2001 8.61638C18.2001 8.62223 18.2001 8.62808 18.2001 8.63394C18.2001 8.6398 18.2001 8.64567 18.2001 8.65155C18.2001 8.65743 18.2001 8.66331 18.2001 8.66921C18.2001 8.6751 18.2001 8.681 18.2001 8.68691C18.2001 8.69282 18.2001 8.69874 18.2001 8.70467C18.2001 8.71059 18.2001 8.71652 18.2001 8.72246C18.2001 8.7284 18.2001 8.73435 18.2001 8.74031C18.2001 8.74626 18.2001 8.75223 18.2001 8.7582C18.2001 8.76417 18.2001 8.77015 18.2001 8.77613C18.2001 8.78212 18.2001 8.78811 18.2001 8.79412C18.2001 8.80012 18.2001 8.80613 18.2001 8.81214C18.2001 8.81816 18.2001 8.82418 18.2001 8.83021C18.2001 8.83624 18.2001 8.84228 18.2001 8.84833C18.2001 8.85437 18.2001 8.86043 18.2001 8.86649C18.2001 8.87255 18.2001 8.87861 18.2001 8.88469C18.2001 8.89076 18.2001 8.89684 18.2001 8.90293C18.2001 8.90902 18.2001 8.91512 18.2001 8.92122C18.2001 8.92732 18.2001 8.93343 18.2001 8.93955C18.2001 8.94567 18.2001 8.95179 18.2001 8.95792C18.2001 8.96406 18.2001 8.97019 18.2001 8.97634C18.2001 8.98248 18.2001 8.98864 18.2001 8.99479C18.2001 9.00095 18.2001 9.00712 18.2001 9.01329C18.2001 9.01946 18.2001 9.02564 18.2001 9.03183C18.2001 9.03801 18.2001 9.04421 18.2001 9.05041C18.2001 9.05661 18.2001 9.06281 18.2001 9.06902C18.2001 9.07524 18.2001 9.08146 18.2001 9.08768C18.2001 9.09391 18.2001 9.10014 18.2001 9.10638C18.2001 9.11262 18.2001 9.11886 18.2001 9.12511C18.2001 9.13137 18.2001 9.13762 18.2001 9.14389C18.2001 9.15015 18.2001 9.15642 18.2001 9.1627C18.2001 9.16898 18.2001 9.17526 18.2001 9.18155C18.2001 9.18784 18.2001 9.19414 18.2001 9.20044C18.2001 9.20674 18.2001 9.21305 18.2001 9.21937C18.2001 9.22568 18.2001 9.232 18.2001 9.23833C18.2001 9.24466 18.2001 9.25099 18.2001 9.25733C18.2001 9.26367 18.2001 9.27001 18.2001 9.27636C18.2001 9.28272 18.2001 9.28907 18.2001 9.29544C18.2001 9.3018 18.2001 9.30817 18.2001 9.31454C18.2001 9.32092 18.2001 9.3273 18.2001 9.33368C18.2001 9.34007 18.2001 9.34646 18.2001 9.35286C18.2001 9.35926 18.2001 9.36566 18.2001 9.37207C18.2001 9.37848 18.2001 9.3849 18.2001 9.39132C18.2001 9.39774 18.2001 9.40417 18.2001 9.4106C18.2001 9.41703 18.2001 9.42347 18.2001 9.42991C18.2001 9.43635 18.2001 9.4428 18.2001 9.44926C18.2001 9.45571 18.2001 9.46217 18.2001 9.46863C18.2001 9.4751 18.2001 9.48157 18.2001 9.48805C18.2001 9.49452 18.2001 9.501 18.2001 9.50749C18.2001 9.51397 18.2001 9.52047 18.2001 9.52696C18.2001 9.53346 18.2001 9.53996 18.2001 9.54647C18.2001 9.55298 18.2001 9.55949 18.2001 9.56601C18.2001 9.57252 18.2001 9.57905 18.2001 9.58557C18.2001 9.5921 18.2001 9.59864 18.2001 9.60517C18.2001 9.61171 18.2001 9.61825 18.2001 9.6248C18.2001 9.63135 18.2001 9.6379 18.2001 9.64446C18.2001 9.65102 18.2001 9.65758 18.2001 9.66415C18.2001 9.67071 18.2001 9.67729 18.2001 9.68386C18.2001 9.69044 18.2001 9.69702 18.2001 9.70361C18.2001 9.71019 18.2001 9.71678 18.2001 9.72338C18.2001 9.72998 18.2001 9.73658 18.2001 9.74318C18.2001 9.74979 18.2001 9.7564 18.2001 9.76301C18.2001 9.76962 18.2001 9.77624 18.2001 9.78287C18.2001 9.78949 18.2001 9.79612 18.2001 9.80275C18.2001 9.80938 18.2001 9.81602 18.2001 9.82266C18.2001 9.8293 18.2001 9.83594 18.2001 9.84259C18.2001 9.84924 18.2001 9.8559 18.2001 9.86255C18.2001 9.86921 18.2001 9.87587 18.2001 9.88254C18.2001 9.88921 18.2001 9.89588 18.2001 9.90255C18.2001 9.90923 18.2001 9.9159 18.2001 9.92259C18.2001 9.92927 18.2001 9.93596 18.2001 9.94265C18.2001 9.94934 18.2001 9.95604 18.2001 9.96273C18.2001 9.96943 18.2001 9.97614 18.2001 9.98284C18.2001 9.98955 18.2001 9.99626 18.2001 10.003C18.2001 10.0097 18.2001 10.0164 18.2001 10.0231C18.2001 10.0299 18.2001 10.0366 18.2001 10.0433C18.2001 10.05 18.2001 10.0568 18.2001 10.0635C18.2001 10.0702 18.2001 10.077 18.2001 10.0837C18.2001 10.0905 18.2001 10.0972 18.2001 10.104C18.2001 10.1107 18.2001 10.1175 18.2001 10.1242C18.2001 10.131 18.2001 10.1378 18.2001 10.1445C18.2001 10.1513 18.2001 10.1581 18.2001 10.1648C18.2001 10.1716 18.2001 10.1784 18.2001 10.1852C18.2001 10.1919 18.2001 10.1987 18.2001 10.2055C18.2001 10.2123 18.2001 10.2191 18.2001 10.2259C18.2001 10.2327 18.2001 10.2395 18.2001 10.2463C18.2001 10.2531 18.2001 10.2599 18.2001 10.2667C18.2001 10.2735 18.2001 10.2803 18.2001 10.2871C18.2001 10.2939 18.2001 10.3007 18.2001 10.3075C18.2001 10.3144 18.2001 10.3212 18.2001 10.328C18.2001 10.3348 18.2001 10.3416 18.2001 10.3485C18.2001 10.3553 18.2001 10.3621 18.2001 10.369C18.2001 10.3758 18.2001 10.3826 18.2001 10.3895C18.2001 10.3963 18.2001 10.4032 18.2001 10.41C18.2001 10.4169 18.2001 10.4237 18.2001 10.4306C18.2001 10.4374 18.2001 10.4443 18.2001 10.4511C18.2001 10.458 18.2001 10.4648 18.2001 10.4717C18.2001 10.4785 18.2001 10.4854 18.2001 10.4923C18.2001 10.4991 18.2001 10.506 18.2001 10.5129C18.2001 10.5198 18.2001 10.5266 18.2001 10.5335C18.2001 10.5404 18.2001 10.5473 18.2001 10.5541C18.2001 10.561 18.2001 10.5679 18.2001 10.5748C18.2001 10.5817 18.2001 10.5886 18.2001 10.5954C18.2001 10.6023 18.2001 10.6092 18.2001 10.6161C18.2001 10.623 18.2001 10.6299 18.2001 10.6368C18.2001 10.6437 18.2001 10.6506 18.2001 10.6575C18.2001 10.6644 18.2001 10.6713 18.2001 10.6782C18.2001 10.6851 18.2001 10.692 18.2001 10.6989C18.2001 10.7058 18.2001 10.7128 18.2001 10.7197C18.2001 10.7266 18.2001 10.7335 18.2001 10.7404C18.2001 10.7473 18.2001 10.7543 18.2001 10.7612C18.2001 10.7681 18.2001 10.775 18.2001 10.7819C18.2001 10.7889 18.2001 10.7958 18.2001 10.8027C18.2001 10.8096 18.2001 10.8166 18.2001 10.8235C18.2001 10.8304 18.2001 10.8374 18.2001 10.8443C18.2001 10.8512 18.2001 10.8582 18.2001 10.8651C18.2001 10.872 18.2001 10.879 18.2001 10.8859C18.2001 10.8928 18.2001 10.8998 18.2001 10.9067C18.2001 10.9137 18.2001 10.9206 18.2001 10.9276C18.2001 10.9345 18.2001 10.9414 18.2001 10.9484C18.2001 10.9553 18.2001 10.9623 18.2001 10.9692C18.2001 10.9762 18.2001 10.9831 18.2001 10.9901C18.2001 10.997 18.2001 11.004 18.2001 11.0109C18.2001 11.0179 18.2001 11.0248 18.2001 11.0318C18.2001 11.0388 18.2001 11.0457 18.2001 11.0527C18.2001 11.0596 18.2001 11.0666 18.2001 11.0735C18.2001 11.0805 18.2001 11.0875 18.2001 11.0944C18.2001 11.1014 18.2001 11.1083 18.2001 11.1153C18.2001 11.1223 18.2001 11.1292 18.2001 11.1362C18.2001 11.1432 18.2001 11.1501 18.2001 11.1571C18.2001 11.1641 18.2001 11.171 18.2001 11.178C18.2001 11.1849 18.2001 11.1919 18.2001 11.1989C18.2001 11.2058 18.2001 11.2128 18.2001 11.2198C18.2001 11.2268 18.2001 11.2337 18.2001 11.2407C18.2001 11.2477 18.2001 11.2546 18.2001 11.2616C18.2001 11.2686 18.2001 11.2755 18.2001 11.2825C18.2001 11.2895 18.2001 11.2964 18.2001 11.3034C18.2001 11.3104 18.2001 11.3174 18.2001 11.3243C18.2001 11.3313 18.2001 11.3383 18.2001 11.3452C18.2001 11.3522 18.2001 11.3592 18.2001 11.3661C18.2001 11.3731 18.2001 11.3801 18.2001 11.3871C18.2001 11.394 18.2001 11.401 18.2001 11.408C18.2001 11.4149 18.2001 11.4219 18.2001 11.4289C18.2001 11.4359 18.2001 11.4428 18.2001 11.4498C18.2001 11.4568 18.2001 11.4637 18.2001 11.4707C18.2001 11.4777 18.2001 11.4847 18.2001 11.4916C18.2001 11.4986 18.2001 11.5056 18.2001 11.5125C18.2001 11.5195 18.2001 11.5265 18.2001 11.5334C18.2001 11.5404 18.2001 11.5474 18.2001 11.5543C18.2001 11.5613 18.2001 11.5683 18.2001 11.5752C18.2001 11.5822 18.2001 11.5892 18.2001 11.5961C18.2001 11.6031 18.2001 11.6101 18.2001 11.617C18.2001 11.624 18.2001 11.631 18.2001 11.6379C18.2001 11.6449 18.2001 11.6518 18.2001 11.6588C18.2001 11.6658 18.2001 11.6727 18.2001 11.6797C18.2001 11.6866 18.2001 11.6936 18.2001 11.7006C18.2001 11.7075 18.2001 11.7145 18.2001 11.7214C18.2001 11.7284 18.2001 11.7353 18.2001 11.7423C18.2001 11.7492 18.2001 11.7562 18.2001 11.7631C18.2001 11.7701 18.2001 11.777 18.2001 11.784C18.2001 11.7909 18.2001 11.7979 18.2001 11.8048C18.2001 11.8118 18.2001 11.8187 18.2001 11.8257C18.2001 11.8326 18.2001 11.8396 18.2001 11.8465C18.2001 11.8535 18.2001 11.8604 18.2001 11.8673C18.2001 11.8743 18.2001 11.8812 18.2001 11.8882C18.2001 11.8951 18.2001 11.902 18.2001 11.909C18.2001 11.9159 18.2001 11.9228 18.2001 11.9298C18.2001 11.9367 18.2001 11.9436 18.2001 11.9505C18.2001 11.9575 18.2001 11.9644 18.2001 11.9713C18.2001 11.9782 18.2001 11.9852 18.2001 11.9921C18.2001 11.999 18.2001 12.0059 18.2001 12.0129C18.2001 12.0198 18.2001 12.0267 18.2001 12.0336C18.2001 12.0405 18.2001 12.0474 18.2001 12.0543C18.2001 12.0612 18.2001 12.0682 18.2001 12.0751C18.2001 12.082 18.2001 12.0889 18.2001 12.0958C18.2001 12.1027 18.2001 12.1096 18.2001 12.1165C18.2001 12.1234 18.2001 12.1303 18.2001 12.1372C18.2001 12.1441 18.2001 12.151 18.2001 12.1579C18.2001 12.1647 18.2001 12.1716 18.2001 12.1785C18.2001 12.1854 18.2001 12.1923 18.2001 12.1992C18.2001 12.2061 18.2001 12.2129 18.2001 12.2198C18.2001 12.2267 18.2001 12.2336 18.2001 12.2404C18.2001 12.2473 18.2001 12.2542 18.2001 12.261C18.2001 12.2679 18.2001 12.2748 18.2001 12.2816C18.2001 12.2885 18.2001 12.2954 18.2001 12.3022C18.2001 12.3091 18.2001 12.3159 18.2001 12.3228C18.2001 12.3296 18.2001 12.3365 18.2001 12.3433C18.2001 12.3502 18.2001 12.357 18.2001 12.3639C18.2001 12.3707 18.2001 12.3776 18.2001 12.3844C18.2001 12.3912 18.2001 12.3981 18.2001 12.4049C18.2001 12.4117 18.2001 12.4186 18.2001 12.4254C18.2001 12.4322 18.2001 12.439 18.2001 12.4458C18.2001 12.4527 18.2001 12.4595 18.2001 12.4663C18.2001 12.4731 18.2001 12.4799 18.2001 12.4867C18.2001 12.4935 18.2001 12.5003 18.2001 12.5071C18.2001 12.5139 18.2001 12.5207 18.2001 12.5275C18.2001 12.5343 18.2001 12.5411 18.2001 12.5479C18.2001 12.5547 18.2001 12.5615 18.2001 12.5683C18.2001 12.575 18.2001 12.5818 18.2001 12.5886C18.2001 12.5954 18.2001 12.6021 18.2001 12.6089C18.2001 12.6157 18.2001 12.6224 18.2001 12.6292C18.2001 12.636 18.2001 12.6427 18.2001 12.6495C18.2001 12.6562 18.2001 12.663 18.2001 12.6697C18.2001 12.6765 18.2001 12.6832 18.2001 12.69C18.2001 12.6967 18.2001 12.7034 18.2001 12.7102C18.2001 12.7169 18.2001 12.7236 18.2001 12.7304C18.2001 12.7371 18.2001 12.7438 18.2001 12.7505C18.2001 12.7572 18.2001 12.7639 18.2001 12.7707C18.2001 12.7774 18.2001 12.7841 18.2001 12.7908C18.2001 12.7975 18.2001 12.8042 18.2001 12.8109C18.2001 12.8176 18.2001 12.8243 18.2001 12.8309C18.2001 12.8376 18.2001 12.8443 18.2001 12.851C18.2001 12.8577 18.2001 12.8643 18.2001 12.871C18.2001 12.8777 18.2001 12.8843 18.2001 12.891C18.2001 12.8977 18.2001 12.9043 18.2001 12.911C18.2001 12.9176 18.2001 12.9243 18.2001 12.9309C18.2001 12.9376 18.2001 12.9442 18.2001 12.9508C18.2001 12.9575 18.2001 12.9641 18.2001 12.9707C18.2001 12.9774 18.2001 12.984 18.2001 12.9906C18.2001 12.9972 18.2001 13.0038 18.2001 13.0104C18.2001 13.017 18.2001 13.0236 18.2001 13.0302C18.2001 13.0368 18.2001 13.0434 18.2001 13.05C18.2001 13.0566 18.2001 13.0632 18.2001 13.0698C18.2001 13.0764 18.2001 13.0829 18.2001 13.0895C18.2001 13.0961 18.2001 13.1026 18.2001 13.1092C18.2001 13.1158 18.2001 13.1223 18.2001 13.1289C18.2001 13.1354 18.2001 13.142 18.2001 13.1485C18.2001 13.1551 18.2001 13.1616 18.2001 13.1681C18.2001 13.1747 18.2001 13.1812 18.2001 13.1877C18.2001 13.1942 18.2001 13.2007 18.2001 13.2073C18.2001 13.2138 18.2001 13.2203 18.2001 13.2268C18.2001 13.2333 18.2001 13.2398 18.2001 13.2463C18.2001 13.2527 18.2001 13.2592 18.2001 13.2657C18.2001 13.2722 18.2001 13.2787 18.2001 13.2851C18.2001 13.2916 18.2001 13.2981 18.2001 13.3045C18.2001 13.311 18.2001 13.3174 18.2001 13.3239C18.2001 13.3303 18.2001 13.3368 18.2001 13.3432C18.2001 13.3496 18.2001 13.3561 18.2001 13.3625C18.2001 13.3689 18.2001 13.3753 18.2001 13.3818C18.2001 13.3882 18.2001 13.3946 18.2001 13.401C18.2001 13.4074 18.2001 13.4138 18.2001 13.4202C18.2001 13.4266 18.2001 13.4329 18.2001 13.4393C18.2001 13.4457 18.2001 13.4521 18.2001 13.4584C18.2001 13.4648 18.2001 13.4712 18.2001 13.4775C18.2001 13.4839 18.2001 13.4902 18.2001 13.4966C18.2001 13.5029 18.2001 13.5093 18.2001 13.5156C18.2001 13.5219 18.2001 13.5282 18.2001 13.5346C18.2001 13.5409 18.2001 13.5472 18.2001 13.5535C18.2001 13.5598 18.2001 13.5661 18.2001 13.5724C18.2001 13.5787 18.2001 13.585 18.2001 13.5913C18.2001 13.5976 18.2001 13.6038 18.2001 13.6101C18.2001 13.6164 18.2001 13.6226 18.2001 13.6289C18.2001 13.6351 18.2001 13.6414 18.2001 13.6476C18.2001 13.6539 18.2001 13.6601 18.2001 13.6663C18.2001 13.6726 18.2001 13.6788 18.2001 13.685C18.2001 13.6912 18.2001 13.6974 18.2001 13.7037C18.2001 13.7099 18.2001 13.7161 18.2001 13.7222C18.2001 13.7284 18.2001 13.7346 18.2001 13.7408C18.2001 13.747 18.2001 13.7531 18.2001 13.7593C18.2001 13.7655 18.2001 13.7716 18.2001 13.7778C18.2001 13.7839 18.2001 13.7901 18.2001 13.7962C18.2001 13.8023 18.2001 13.8085 18.2001 13.8146C18.2001 13.8207 18.2001 13.8268 18.2001 13.8329C18.2001 13.8391 18.2001 13.8452 18.2001 13.8512C18.2001 13.8573 18.2001 13.8634 18.2001 13.8695C18.2001 13.8756 18.2001 13.8817 18.2001 13.8877C18.2001 13.8938 18.2001 13.8998 18.2001 13.9059C18.2001 13.912 18.2001 13.918 18.2001 13.924C18.2001 13.9301 18.2001 13.9361 18.2001 13.9421C18.2001 13.9481 18.2001 13.9542 18.2001 13.9602C18.2001 13.9662 18.2001 13.9722 18.2001 13.9782C18.2001 13.9842 18.2001 13.9901 18.2001 13.9961C18.2001 14.0021 18.2001 14.0081 18.2001 14.014C18.2001 14.02 18.2001 14.0259 18.2001 14.0319C18.2001 14.0378 18.2001 14.0438 18.2001 14.0497C18.2001 14.0556 18.2001 14.0615 18.2001 14.0675C18.2001 14.0734 18.2001 14.0793 18.2001 14.0852C18.2001 14.0911 18.2001 14.097 18.2001 14.1029C18.2001 14.1087 18.2001 14.1146 18.2001 14.1205C18.2001 14.1264 18.2001 14.1322 18.2001 14.1381C18.2001 14.1439 18.2001 14.1498 18.2001 14.1556C18.2001 14.1614 18.2001 14.1673 18.2001 14.1731C18.2001 14.1789 18.2001 14.1847 18.2001 14.1905C18.2001 14.1963 18.2001 14.2021 18.2001 14.2079C18.2001 14.2137 18.2001 14.2195 18.2001 14.2252C18.2001 14.231 18.2001 14.2368 18.2001 14.2425C18.2001 14.2483 18.2001 14.254 18.2001 14.2598C18.2001 14.2655 18.2001 14.2712 18.2001 14.2769C18.2001 14.2827 18.2001 14.2884 18.2001 14.2941C18.2001 14.2998 18.2001 14.3055 18.2001 14.3112C18.2001 14.3168 18.2001 14.3225 18.2001 14.3282C18.2001 14.3339 18.2001 14.3395 18.2001 14.3452C18.2001 14.3508 18.2001 14.3565 18.2001 14.3621C18.2001 14.3677 18.2001 14.3733 18.2001 14.379C18.2001 14.3846 18.2001 14.3902 18.2001 14.3958C18.2001 14.4014 18.2001 14.407 18.2001 14.4125C18.2001 14.4181 18.2001 14.4237 18.2001 14.4293C18.2001 14.4348 18.2001 14.4404 18.2001 14.4459C18.2001 14.4515 18.2001 14.457 18.2001 14.4625C18.2001 14.4681 18.2001 14.4736 18.2001 14.4791C18.2001 14.4846 18.2001 14.4901 18.2001 14.4956C18.2001 14.5011 18.2001 14.5065 18.2001 14.512C18.2001 14.5175 18.2001 14.5229 18.2001 14.5284C18.2001 14.5338 18.2001 14.5393 18.2001 14.5447C18.2001 14.5502 18.2001 14.5556 18.2001 14.561H20.2001ZM19.6473 5.63856L14.0572 2.84354L13.1628 4.6324L18.7528 7.42742L19.6473 5.63856ZM10.8373 4.6324C11.5693 4.26641 12.4308 4.26641 13.1628 4.6324L14.0572 2.84354C12.7622 2.19603 11.2379 2.19603 9.94287 2.84355L10.8373 4.6324ZM14.7001 10.6331L12 10.6331L12 12.6331H14.7001V10.6331ZM12 10.6331H9.30005L9.30005 12.6331L12 12.6331L12 10.6331ZM13 14.333V11.6331H11L11 14.333H13ZM13 11.6331V8.93299H11V11.6331H13Z" fill="#33915C"/>
</svg>
