<svg width="24" height="25" viewBox="0 0 24 25" fill="none" xmlns="http://www.w3.org/2000/svg">
<path d="M2.3999 4.34526C2.3999 3.68252 2.93716 3.14526 3.5999 3.14526H5.9999C6.66264 3.14526 7.1999 3.68252 7.1999 4.34526V6.74526C7.1999 7.40801 6.66264 7.94526 5.9999 7.94526H3.5999C2.93716 7.94526 2.3999 7.40801 2.3999 6.74526V4.34526Z" stroke="#33915C" stroke-width="2"/>
<path d="M9.5999 4.34526C9.5999 3.68252 10.1372 3.14526 10.7999 3.14526H13.1999C13.8626 3.14526 14.3999 3.68252 14.3999 4.34526V6.74526C14.3999 7.40801 13.8626 7.94526 13.1999 7.94526H10.7999C10.1372 7.94526 9.5999 7.40801 9.5999 6.74526V4.34526Z" stroke="#33915C" stroke-width="2"/>
<path d="M16.7999 4.34526C16.7999 3.68252 17.3372 3.14526 17.9999 3.14526H20.3999C21.0626 3.14526 21.5999 3.68252 21.5999 4.34526V6.74526C21.5999 7.40801 21.0626 7.94526 20.3999 7.94526H17.9999C17.3372 7.94526 16.7999 7.40801 16.7999 6.74526V4.34526Z" stroke="#33915C" stroke-width="2"/>
<path d="M2.3999 11.5453C2.3999 10.8825 2.93716 10.3453 3.5999 10.3453H5.9999C6.66264 10.3453 7.1999 10.8825 7.1999 11.5453V13.9453C7.1999 14.608 6.66264 15.1453 5.9999 15.1453H3.5999C2.93716 15.1453 2.3999 14.608 2.3999 13.9453V11.5453Z" stroke="#33915C" stroke-width="2"/>
<path d="M9.5999 11.5453C9.5999 10.8825 10.1372 10.3453 10.7999 10.3453H13.1999C13.8626 10.3453 14.3999 10.8825 14.3999 11.5453V13.9453C14.3999 14.608 13.8626 15.1453 13.1999 15.1453H10.7999C10.1372 15.1453 9.5999 14.608 9.5999 13.9453V11.5453Z" stroke="#33915C" stroke-width="2"/>
<path d="M16.7999 11.5453C16.7999 10.8825 17.3372 10.3453 17.9999 10.3453H20.3999C21.0626 10.3453 21.5999 10.8825 21.5999 11.5453V13.9453C21.5999 14.608 21.0626 15.1453 20.3999 15.1453H17.9999C17.3372 15.1453 16.7999 14.608 16.7999 13.9453V11.5453Z" stroke="#33915C" stroke-width="2"/>
<path d="M2.3999 18.7453C2.3999 18.0825 2.93716 17.5453 3.5999 17.5453H5.9999C6.66264 17.5453 7.1999 18.0825 7.1999 18.7453V21.1453C7.1999 21.808 6.66264 22.3453 5.9999 22.3453H3.5999C2.93716 22.3453 2.3999 21.808 2.3999 21.1453V18.7453Z" stroke="#33915C" stroke-width="2"/>
<path d="M9.5999 18.7453C9.5999 18.0825 10.1372 17.5453 10.7999 17.5453H13.1999C13.8626 17.5453 14.3999 18.0825 14.3999 18.7453V21.1453C14.3999 21.808 13.8626 22.3453 13.1999 22.3453H10.7999C10.1372 22.3453 9.5999 21.808 9.5999 21.1453V18.7453Z" stroke="#33915C" stroke-width="2"/>
<path d="M16.7999 18.7453C16.7999 18.0825 17.3372 17.5453 17.9999 17.5453H20.3999C21.0626 17.5453 21.5999 18.0825 21.5999 18.7453V21.1453C21.5999 21.808 21.0626 22.3453 20.3999 22.3453H17.9999C17.3372 22.3453 16.7999 21.808 16.7999 21.1453V18.7453Z" stroke="#33915C" stroke-width="2"/>
</svg>
