<svg width="24" height="25" viewBox="0 0 24 25" fill="none" xmlns="http://www.w3.org/2000/svg">
<path d="M9.2069 16.4831C9.2069 17.8889 8.09533 19.0286 6.72414 19.0286C5.35295 19.0286 4.24138 17.8889 4.24138 16.4831M9.2069 16.4831C9.2069 15.0773 8.09533 13.9377 6.72414 13.9377C5.35295 13.9377 4.24138 15.0773 4.24138 16.4831M9.2069 16.4831H14.7931M4.24138 16.4831H3V6.02856C3 5.47628 3.44772 5.02856 4 5.02856H14.7931V16.4831M20.3793 16.4831C20.3793 17.8889 19.2677 19.0286 17.8966 19.0286C16.5254 19.0286 15.4138 17.8889 15.4138 16.4831M20.3793 16.4831C20.3793 15.0773 19.2677 13.9377 17.8966 13.9377C16.5254 13.9377 15.4138 15.0773 15.4138 16.4831M20.3793 16.4831H21V11.3922L17.8966 8.21038H14.7931V16.4831M15.4138 16.4831H14.7931" stroke="#134E0D" stroke-width="2" stroke-linecap="round" stroke-linejoin="round"/>
</svg>
