<svg width="115" height="115" viewBox="0 0 115 115" fill="none" xmlns="http://www.w3.org/2000/svg">
<path d="M19.6233 24.5813L49.16 9.85629C54.5151 7.18658 60.8184 7.18657 66.1735 9.85629L95.7103 24.5813V66.8754C95.7103 81.4791 82.171 91.3372 57.6668 106.767C33.1625 91.3372 19.6233 78.3181 19.6233 66.8754V24.5813Z" stroke="#94D591" stroke-width="6.08696" stroke-linecap="round" stroke-linejoin="round"/>
<path d="M43.8299 72.7973C43.2009 72.7973 42.648 72.6451 42.1712 72.3407C41.7045 72.0262 41.3393 71.5748 41.0755 70.9864C40.8219 70.398 40.6951 69.6929 40.6951 68.8712C40.6951 68.019 40.827 67.2987 41.0907 66.7103C41.3646 66.1219 41.74 65.6704 42.2168 65.356C42.7038 65.0415 43.2617 64.8842 43.8907 64.8842C44.5806 64.8842 45.1335 65.0973 45.5494 65.5233C45.9755 65.9393 46.2494 66.4719 46.3712 67.1212L46.1277 67.4407V61.8103H48.7146V72.6451H46.4016L46.2342 70.0581L46.5385 70.2864C46.4777 70.7936 46.3204 71.2349 46.0668 71.6103C45.8233 71.9857 45.5088 72.2799 45.1233 72.4929C44.748 72.6958 44.3168 72.7973 43.8299 72.7973ZM44.7277 70.8951C45.0219 70.8951 45.2704 70.819 45.4733 70.6668C45.6864 70.5045 45.8487 70.2661 45.9603 69.9516C46.0719 69.6371 46.1277 69.2516 46.1277 68.7951C46.1277 68.369 46.0719 68.0089 45.9603 67.7147C45.8588 67.4103 45.7016 67.182 45.4885 67.0299C45.2856 66.8675 45.0371 66.7864 44.7429 66.7864C44.2965 66.7864 43.9414 66.9538 43.6777 67.2886C43.4241 67.6132 43.2972 68.1306 43.2972 68.8407C43.2972 69.5509 43.4241 70.0733 43.6777 70.4081C43.9313 70.7328 44.2813 70.8951 44.7277 70.8951Z" fill="#33915C"/>
<path d="M54.5117 67.8212C54.5117 67.4661 54.4103 67.1871 54.2074 66.9842C54.0146 66.7712 53.7509 66.6647 53.4161 66.6647C53.0813 66.6647 52.7922 66.7509 52.5487 66.9233C52.3154 67.0857 52.1531 67.3799 52.0617 67.806L49.8704 67.2886C50.0125 66.5581 50.3878 65.9748 50.9965 65.5386C51.6052 65.1023 52.4625 64.8842 53.5683 64.8842C54.3088 64.8842 54.9378 64.9958 55.4552 65.219C55.9828 65.432 56.3835 65.7567 56.6574 66.1929C56.9415 66.619 57.0835 67.1465 57.0835 67.7755V70.5603C57.0835 70.956 57.261 71.1538 57.6161 71.1538C57.7987 71.1538 57.9458 71.1335 58.0574 71.0929L57.9052 72.569C57.6009 72.711 57.2306 72.782 56.7944 72.782C56.3987 72.782 56.0487 72.7212 55.7444 72.5994C55.44 72.4675 55.2016 72.2748 55.0291 72.0212C54.8567 71.7574 54.7704 71.4277 54.7704 71.032V70.9407L55.0596 70.8342C55.0596 71.2704 54.9277 71.6357 54.6639 71.9299C54.4103 72.2241 54.0755 72.4422 53.6596 72.5842C53.2538 72.7262 52.8277 72.7973 52.3813 72.7973C51.8639 72.7973 51.4125 72.7161 51.027 72.5538C50.6415 72.3915 50.3422 72.1581 50.1291 71.8538C49.9262 71.5393 49.8248 71.1538 49.8248 70.6973C49.8248 70.1494 49.9871 69.698 50.3117 69.3429C50.6465 68.9777 51.169 68.7241 51.8791 68.582L54.7552 67.9886L54.74 69.3581L53.2791 69.6625C52.9748 69.7233 52.7465 69.8147 52.5944 69.9364C52.4523 70.048 52.3813 70.2204 52.3813 70.4538C52.3813 70.677 52.4625 70.8444 52.6248 70.956C52.7871 71.0675 52.9799 71.1233 53.203 71.1233C53.3755 71.1233 53.5378 71.098 53.69 71.0473C53.8523 70.9965 53.9944 70.9204 54.1161 70.819C54.2378 70.7074 54.3342 70.5704 54.4052 70.4081C54.4762 70.2458 54.5117 70.0531 54.5117 69.8299V67.8212Z" fill="#33915C"/>
<path d="M65.9381 65.0364L63.1685 72.6451C62.8845 73.4465 62.5751 74.0857 62.2403 74.5625C61.9055 75.0393 61.5098 75.3842 61.0533 75.5973C60.5968 75.8103 60.049 75.9168 59.4098 75.9168C58.9838 75.9168 58.5932 75.8712 58.2381 75.7799C57.883 75.6886 57.5736 75.5618 57.3098 75.3994L57.8272 73.6494C58.0098 73.7813 58.2026 73.8726 58.4055 73.9233C58.6084 73.9842 58.8671 74.0147 59.1816 74.0147C59.4758 74.0147 59.7142 73.9639 59.8968 73.8625C60.0896 73.761 60.2417 73.5683 60.3533 73.2842L60.5511 72.8125L59.6685 70.7429L57.3859 65.0364H60.2316L61.4033 69.3733L61.7685 70.9864L62.1946 69.3125L63.3664 65.0364H65.9381Z" fill="#33915C"/>
<path d="M69.616 72.7973C68.8551 72.7973 68.1449 72.6755 67.4855 72.432C66.8362 72.1784 66.2986 71.8183 65.8725 71.3516L67.0899 69.9212C67.3435 70.2458 67.6783 70.5197 68.0942 70.7429C68.5203 70.956 68.992 71.0625 69.5094 71.0625C69.8239 71.0625 70.0826 71.0168 70.2855 70.9255C70.4884 70.8342 70.5899 70.6922 70.5899 70.4994C70.5899 70.3574 70.5391 70.2458 70.4377 70.1647C70.3362 70.0733 70.1333 69.9973 69.829 69.9364L68.7638 69.7233C67.8102 69.5306 67.1304 69.2465 66.7247 68.8712C66.329 68.4857 66.1312 67.9835 66.1312 67.3647C66.1312 66.9487 66.258 66.5531 66.5116 66.1777C66.7652 65.7922 67.1558 65.4828 67.6833 65.2494C68.2109 65.006 68.8855 64.8842 69.7073 64.8842C70.4783 64.8842 71.158 64.9958 71.7464 65.219C72.3348 65.4422 72.8015 65.7668 73.1464 66.1929L71.9138 67.5929C71.6703 67.2886 71.3558 67.0502 70.9703 66.8777C70.5848 66.7052 70.1993 66.619 69.8138 66.619C69.5703 66.619 69.3623 66.6444 69.1899 66.6951C69.0276 66.7357 68.9058 66.7965 68.8246 66.8777C68.7435 66.9589 68.7029 67.0603 68.7029 67.182C68.7029 67.3139 68.7638 67.4306 68.8855 67.532C69.0174 67.6233 69.2558 67.7045 69.6007 67.7755L70.9855 68.0494C71.7667 68.1915 72.3297 68.4502 72.6747 68.8255C73.0196 69.2009 73.192 69.6523 73.192 70.1799C73.192 70.677 73.0602 71.1233 72.7964 71.519C72.5326 71.9147 72.137 72.2291 71.6094 72.4625C71.0819 72.6857 70.4174 72.7973 69.616 72.7973Z" fill="#33915C"/>
<path d="M49.6964 45.3603C51.2561 45.638 52.5258 46.2727 53.5056 47.2646C54.5054 48.2564 55.0053 49.5458 55.0053 51.1327C55.0053 52.4816 54.6454 53.6817 53.9256 54.733C53.2257 55.7645 52.2259 56.5679 50.9262 57.1431C49.6464 57.7184 48.1167 58.006 46.3371 58.006C44.7574 58.006 43.1977 57.768 41.6581 57.2919C40.1384 56.796 38.8586 56.1513 37.8188 55.3578L40.0684 51.1327C40.9682 51.8865 41.908 52.4518 42.8878 52.8287C43.8676 53.2056 44.8574 53.394 45.8572 53.394C46.5171 53.394 47.067 53.3147 47.5069 53.156C47.9668 52.9775 48.3067 52.7196 48.5267 52.3824C48.7666 52.0452 48.8866 51.6385 48.8866 51.1624C48.8866 50.4483 48.6266 49.9028 48.1067 49.5259C47.5869 49.1292 46.827 48.9308 45.8272 48.9308H42.078V45.6876L48.5267 39.5581L49.2765 41.4029H38.9286V36.8504H53.9855V40.3912L46.637 46.9373L46.0072 44.6462L49.6964 45.3603Z" fill="#33915C"/>
<path d="M66.3843 36.7017C69.4236 36.7017 71.7632 37.6141 73.4028 39.4391C75.0425 41.264 75.8623 43.8825 75.8623 47.2943C75.8623 50.7062 75.0425 53.3345 73.4028 55.1793C71.7632 57.0241 69.4236 57.9465 66.3843 57.9465C63.3249 57.9465 60.9754 57.0241 59.3357 55.1793C57.696 53.3345 56.8762 50.7062 56.8762 47.2943C56.8762 43.8825 57.696 41.264 59.3357 39.4391C60.9754 37.6141 63.3249 36.7017 66.3843 36.7017ZM66.3843 41.1946C65.2645 41.1946 64.4647 41.6509 63.9848 42.5633C63.5049 43.4758 63.2649 45.0528 63.2649 47.2943C63.2649 49.516 63.5049 51.093 63.9848 52.0253C64.4647 52.9576 65.2645 53.4238 66.3843 53.4238C67.484 53.4238 68.2639 52.9576 68.7238 52.0253C69.2037 51.093 69.4436 49.516 69.4436 47.2943C69.4436 45.0528 69.2037 43.4758 68.7238 42.5633C68.2639 41.6509 67.484 41.1946 66.3843 41.1946Z" fill="#33915C"/>
</svg>
