<svg width="116" height="115" viewBox="0 0 116 115" fill="none" xmlns="http://www.w3.org/2000/svg">
<path d="M27.0806 46.7665H36.7953V67.0345H30.7814V48.935L33.3836 51.5661H27.0806V46.7665Z" fill="#33915C"/>
<path d="M49.8941 46.593C52.8239 46.593 55.0792 47.4797 56.6597 49.253C58.2403 51.0264 59.0306 53.5707 59.0306 56.8861C59.0306 60.2014 58.2403 62.7554 56.6597 64.548C55.0792 66.3406 52.8239 67.2369 49.8941 67.2369C46.945 67.2369 44.6801 66.3406 43.0995 64.548C41.5189 62.7554 40.7287 60.2014 40.7287 56.8861C40.7287 53.5707 41.5189 51.0264 43.0995 49.253C44.6801 47.4797 46.945 46.593 49.8941 46.593ZM49.8941 50.9589C48.8147 50.9589 48.0437 51.4022 47.581 52.2889C47.1184 53.1756 46.8871 54.7079 46.8871 56.8861C46.8871 59.0449 47.1184 60.5773 47.581 61.4832C48.0437 62.3892 48.8147 62.8421 49.8941 62.8421C50.9542 62.8421 51.706 62.3892 52.1493 61.4832C52.6119 60.5773 52.8432 59.0449 52.8432 56.8861C52.8432 54.7079 52.6119 53.1756 52.1493 52.2889C51.706 51.4022 50.9542 50.9589 49.8941 50.9589Z" fill="#33915C"/>
<path d="M66.2928 46.6798C68.0468 46.6798 69.4443 47.2387 70.4851 48.3567C71.5453 49.4554 72.0754 50.9492 72.0754 52.8382C72.0754 54.7272 71.5453 56.2307 70.4851 57.3487C69.4443 58.4666 68.0468 59.0256 66.2928 59.0256C65.117 59.0256 64.0954 58.775 63.228 58.2739C62.3606 57.7727 61.6859 57.0595 61.2041 56.1343C60.7222 55.1898 60.4812 54.0911 60.4812 52.8382C60.4812 50.9492 61.0017 49.4554 62.0425 48.3567C63.1027 47.2387 64.5194 46.6798 66.2928 46.6798ZM66.2928 49.7735C65.6374 49.7735 65.117 50.0529 64.7314 50.6119C64.3652 51.1516 64.1821 51.8937 64.1821 52.8382C64.1821 53.7827 64.3652 54.5345 64.7314 55.0935C65.117 55.6524 65.6374 55.9319 66.2928 55.9319C66.9481 55.9319 67.4589 55.6524 67.8251 55.0935C68.2107 54.5345 68.4034 53.7827 68.4034 52.8382C68.4034 51.8937 68.2107 51.1516 67.8251 50.6119C67.4589 50.0529 66.9481 49.7735 66.2928 49.7735ZM79.6506 46.7665H83.5828L69.3575 67.0345H65.3964L79.6506 46.7665ZM82.7732 54.8043C84.5272 54.8043 85.9247 55.3633 86.9656 56.4813C88.0257 57.58 88.5558 59.0738 88.5558 60.9628C88.5558 62.8518 88.0257 64.3553 86.9656 65.4732C85.9247 66.5912 84.5272 67.1502 82.7732 67.1502C81.5974 67.1502 80.5758 66.8996 79.7084 66.3985C78.841 65.8973 78.1664 65.1841 77.6845 64.2589C77.2026 63.3144 76.9617 62.2157 76.9617 60.9628C76.9617 59.0738 77.4821 57.58 78.523 56.4813C79.5831 55.3633 80.9999 54.8043 82.7732 54.8043ZM82.7732 57.898C82.1178 57.898 81.5974 58.1775 81.2119 58.7365C80.8457 59.2762 80.6625 60.0183 80.6625 60.9628C80.6625 61.9073 80.8457 62.659 81.2119 63.218C81.5974 63.777 82.1178 64.0565 82.7732 64.0565C83.4285 64.0565 83.9393 63.777 84.3056 63.218C84.6911 62.659 84.8838 61.9073 84.8838 60.9628C84.8838 60.0183 84.6911 59.2762 84.3056 58.7365C83.9393 58.1775 83.4285 57.898 82.7732 57.898Z" fill="#33915C"/>
<path d="M59.094 11.7525L64.1855 15.8944C66.2039 17.5363 68.8268 18.2391 71.3957 17.8263L77.876 16.7851C79.2999 16.5564 80.6888 17.3583 81.2026 18.7057L83.541 24.8384C84.468 27.2695 86.3882 29.1897 88.8193 30.1167L94.9519 32.4551C96.2994 32.9689 97.1013 34.3578 96.8725 35.7817L95.8313 42.262C95.4186 44.8308 96.1214 47.4538 97.7633 49.4721L101.905 54.5636C102.815 55.6823 102.815 57.2861 101.905 58.4048L97.7633 63.4963C96.1214 65.5147 95.4186 68.1376 95.8313 70.7065L96.8725 77.1868C97.1013 78.6106 96.2994 79.9996 94.9519 80.5134L88.8193 82.8518C86.3882 83.7788 84.468 85.699 83.541 88.13L81.2026 94.2627C80.6888 95.6102 79.2999 96.4121 77.876 96.1833L71.3957 95.1421C68.8268 94.7294 66.2039 95.4322 64.1855 97.0741L59.094 101.216C57.9753 102.126 56.3715 102.126 55.2529 101.216L50.1614 97.0741C48.143 95.4322 45.5201 94.7294 42.9512 95.1421L36.4709 96.1833C35.047 96.4121 33.6581 95.6102 33.1443 94.2627L30.8059 88.13C29.8789 85.699 27.9587 83.7788 25.5276 82.8518L19.395 80.5134C18.0475 79.9996 17.2456 78.6106 17.4744 77.1868L18.5156 70.7065C18.9283 68.1376 18.2255 65.5147 16.5836 63.4963L12.4417 58.4048C11.5317 57.2861 11.5317 55.6823 12.4417 54.5636L16.5836 49.4722C18.2255 47.4538 18.9283 44.8308 18.5156 42.262L17.4744 35.7817C17.2456 34.3578 18.0475 32.9689 19.395 32.4551L25.5276 30.1167C27.9587 29.1897 29.8789 27.2695 30.8059 24.8384L33.1443 18.7057C33.6581 17.3583 35.047 16.5564 36.4709 16.7851L42.9512 17.8263C45.52 18.2391 48.143 17.5363 50.1614 15.8944L55.2529 11.7525C56.3715 10.8425 57.9753 10.8425 59.094 11.7525Z" stroke="#94D591" stroke-width="6.08696"/>
</svg>
