<svg width="24" height="25" viewBox="0 0 24 25" fill="none" xmlns="http://www.w3.org/2000/svg">
<path d="M2.3999 4.22844C2.3999 3.5657 2.93716 3.02844 3.5999 3.02844H5.9999C6.66264 3.02844 7.1999 3.5657 7.1999 4.22844V6.62844C7.1999 7.29118 6.66264 7.82844 5.9999 7.82844H3.5999C2.93716 7.82844 2.3999 7.29118 2.3999 6.62844V4.22844Z" stroke="#EA6B26" stroke-width="2"/>
<path d="M9.5999 4.22844C9.5999 3.5657 10.1372 3.02844 10.7999 3.02844H13.1999C13.8626 3.02844 14.3999 3.5657 14.3999 4.22844V6.62844C14.3999 7.29118 13.8626 7.82844 13.1999 7.82844H10.7999C10.1372 7.82844 9.5999 7.29118 9.5999 6.62844V4.22844Z" stroke="#EA6B26" stroke-width="2"/>
<path d="M16.7999 4.22844C16.7999 3.5657 17.3372 3.02844 17.9999 3.02844H20.3999C21.0626 3.02844 21.5999 3.5657 21.5999 4.22844V6.62844C21.5999 7.29118 21.0626 7.82844 20.3999 7.82844H17.9999C17.3372 7.82844 16.7999 7.29118 16.7999 6.62844V4.22844Z" stroke="#EA6B26" stroke-width="2"/>
<path d="M2.3999 11.4284C2.3999 10.7657 2.93716 10.2284 3.5999 10.2284H5.9999C6.66264 10.2284 7.1999 10.7657 7.1999 11.4284V13.8284C7.1999 14.4912 6.66264 15.0284 5.9999 15.0284H3.5999C2.93716 15.0284 2.3999 14.4912 2.3999 13.8284V11.4284Z" stroke="#EA6B26" stroke-width="2"/>
<path d="M9.5999 11.4284C9.5999 10.7657 10.1372 10.2284 10.7999 10.2284H13.1999C13.8626 10.2284 14.3999 10.7657 14.3999 11.4284V13.8284C14.3999 14.4912 13.8626 15.0284 13.1999 15.0284H10.7999C10.1372 15.0284 9.5999 14.4912 9.5999 13.8284V11.4284Z" stroke="#EA6B26" stroke-width="2"/>
<path d="M16.7999 11.4284C16.7999 10.7657 17.3372 10.2284 17.9999 10.2284H20.3999C21.0626 10.2284 21.5999 10.7657 21.5999 11.4284V13.8284C21.5999 14.4912 21.0626 15.0284 20.3999 15.0284H17.9999C17.3372 15.0284 16.7999 14.4912 16.7999 13.8284V11.4284Z" stroke="#EA6B26" stroke-width="2"/>
<path d="M2.3999 18.6284C2.3999 17.9657 2.93716 17.4284 3.5999 17.4284H5.9999C6.66264 17.4284 7.1999 17.9657 7.1999 18.6284V21.0284C7.1999 21.6912 6.66264 22.2284 5.9999 22.2284H3.5999C2.93716 22.2284 2.3999 21.6912 2.3999 21.0284V18.6284Z" stroke="#EA6B26" stroke-width="2"/>
<path d="M9.5999 18.6284C9.5999 17.9657 10.1372 17.4284 10.7999 17.4284H13.1999C13.8626 17.4284 14.3999 17.9657 14.3999 18.6284V21.0284C14.3999 21.6912 13.8626 22.2284 13.1999 22.2284H10.7999C10.1372 22.2284 9.5999 21.6912 9.5999 21.0284V18.6284Z" stroke="#EA6B26" stroke-width="2"/>
<path d="M16.7999 18.6284C16.7999 17.9657 17.3372 17.4284 17.9999 17.4284H20.3999C21.0626 17.4284 21.5999 17.9657 21.5999 18.6284V21.0284C21.5999 21.6912 21.0626 22.2284 20.3999 22.2284H17.9999C17.3372 22.2284 16.7999 21.6912 16.7999 21.0284V18.6284Z" stroke="#EA6B26" stroke-width="2"/>
</svg>
