<svg xmlns="http://www.w3.org/2000/svg" version="1.1" xmlns:xlink="http://www.w3.org/1999/xlink" xmlns:svgjs="http://svgjs.dev/svgjs" width="65" height="62"><svg width="65" height="62" viewBox="0 0 65 62" fill="none" xmlns="http://www.w3.org/2000/svg">
<g clip-path="url(#clip0_444_2048)">
<path d="M7.06479 46.1637C9.03233 44.7695 10.8266 45.036 12.0907 46.8506L12.998 48.1423L16.4641 45.6921L17.2491 46.8096L7.74782 53.5347L6.05554 51.1153C4.78123 49.3008 5.15843 47.5067 7.07499 46.1535M7.85996 47.2914C6.57546 48.2038 6.3104 49.229 7.11577 50.3669L8.02307 51.6587L11.9479 48.8804L11.0406 47.5785C10.2353 46.4303 9.22602 46.3175 7.85996 47.2709" fill="#232323"></path>
<path d="M9.86857 37.8598L10.8778 41.0891L13.4672 40.9251L13.8954 42.2988L1.91688 42.9242L1.47852 41.5094L11.673 35.1533L12.1012 36.5271L9.87877 37.87L9.86857 37.8598ZM8.75737 38.5262L5.28106 40.6175C4.61842 41.0173 3.74169 41.4684 3.33391 41.6734V41.7247C3.79266 41.6529 4.78153 41.5197 5.54611 41.4684L9.58313 41.1916L8.75737 38.5364V38.5262Z" fill="#232323"></path>
<path d="M8.41043 35.0919L3.49669 34.9893C1.21313 34.9381 -0.0407902 33.6156 -1.22669e-05 31.6575C0.0407657 29.6584 1.29469 28.4487 3.53747 28.377L3.50689 29.7302C2.0083 29.8019 1.30488 30.4888 1.2743 31.6985C1.25391 32.816 1.96752 33.5849 3.52728 33.6156L8.44102 33.7181C9.98038 33.7489 10.7348 32.98 10.7552 31.8523C10.7857 30.6221 10.0823 29.9147 8.62452 29.7507L8.6551 28.3975C10.8571 28.582 12.0804 29.843 12.0397 31.8728C11.9989 33.8411 10.7144 35.1329 8.42063 35.0816" fill="#232323"></path>
<path d="M8.61457 26.6545L4.58775 25.0552C2.37555 24.1838 1.47843 22.4205 2.2736 20.4009C3.06877 18.3813 4.90378 17.7354 7.11598 18.6068L11.1428 20.2061C13.3652 21.0878 14.2725 22.8306 13.4773 24.8502C12.6822 26.8698 10.837 27.5361 8.61457 26.6545ZM10.6229 21.5081L6.59606 19.9088C5.09747 19.3142 3.99647 19.632 3.49694 20.893C2.99741 22.1642 3.58869 23.1586 5.08728 23.7532L9.1141 25.3525C10.6229 25.9574 11.7341 25.6396 12.2336 24.3683C12.7229 23.1074 12.1317 22.1232 10.6229 21.5183" fill="#232323"></path>
<path d="M22.2445 14.1063C21.7858 13.932 21.3168 13.7885 20.8479 13.6449C20.7867 14.7419 20.4095 15.7876 19.4818 16.4949C18.2789 17.4176 16.6682 17.3766 15.5468 15.9003C14.5783 14.6291 14.6802 13.1631 14.9147 11.7894C13.5996 11.287 12.5598 10.7437 12.0093 10.0261C11.2447 9.0214 11.1835 7.61691 12.4782 6.62248C13.8545 5.56655 15.1798 6.14065 15.924 7.16583C16.7191 8.27302 16.5764 9.62625 16.3521 10.9487C17.2696 11.2563 18.3197 11.5638 19.4309 11.9021C19.3187 11.3998 19.176 10.9385 19.0537 10.5797L20.1445 9.73902C20.4095 10.4771 20.6848 11.3793 20.7969 12.3225C21.6533 12.589 22.53 12.8761 23.4169 13.1836L22.2445 14.0858V14.1063ZM15.139 10.5284C15.3225 9.50323 15.3938 8.59082 14.9045 7.93471C14.4865 7.39137 13.7933 7.15558 13.2122 7.5964C12.6413 8.02698 12.6108 8.70359 13.0491 9.27769C13.3957 9.72877 14.1297 10.1286 15.1492 10.5284M19.5736 13.2656C18.3502 12.8966 17.1983 12.5685 16.1482 12.2199C15.9953 13.2554 15.9953 14.2293 16.5764 14.9777C17.1983 15.7978 18.126 15.9516 18.7988 15.4288C19.3901 14.9674 19.594 14.1473 19.5736 13.2554" fill="#232323"></path>
<path d="M32.7139 3.33182C32.9993 5.73073 31.9187 7.19674 29.7269 7.45303L28.157 7.63756L28.6565 11.8613L27.3006 12.0253L25.9346 0.420319L28.8502 0.0717588C31.042 -0.194787 32.4386 0.984166 32.7139 3.32157M31.3478 3.49585C31.1643 1.91708 30.3896 1.2097 29.0031 1.37373L27.4332 1.55826L28.004 6.34584L29.574 6.16131C30.9604 5.99728 31.5415 5.15663 31.3478 3.49585Z" fill="#232323"></path>
<path d="M40.1561 11.3487L39.891 12.6097L34.2637 11.4512L36.5982 0L42.0523 1.11744L41.7974 2.36816L37.6788 1.51726L36.9142 5.30016L40.7372 6.0793L40.4823 7.30951L36.6594 6.52012L35.854 10.4671L40.1561 11.3487Z" fill="#232323"></path>
<path d="M50.3407 9.4215C49.1072 11.5026 47.3741 11.9947 45.4678 10.8568L44.1119 10.0469L41.9507 13.7067L40.7783 13.0096L46.7217 2.97314L49.2499 4.48015C51.1461 5.6181 51.5335 7.40191 50.3407 9.4215ZM49.1582 8.71413C49.9635 7.35065 49.7902 6.31522 48.5873 5.5976L47.2314 4.78771L44.7746 8.92942L46.1304 9.73931C47.3334 10.4569 48.3018 10.1494 49.148 8.71413" fill="#232323"></path>
<path d="M56.8546 16.5361C55.0094 18.0943 53.205 17.9816 51.788 16.2798L50.7787 15.0701L47.5369 17.8073L46.6602 16.7616L55.5599 9.24707L57.4459 11.5127C58.8629 13.2145 58.6489 15.0291 56.8546 16.5463M55.9677 15.4699C57.1809 14.455 57.344 13.4093 56.4571 12.3329L55.4478 11.1231L51.7778 14.2294L52.787 15.4494C53.6841 16.5258 54.7036 16.5566 55.9779 15.4801" fill="#232323"></path>
<path d="M54.2859 27.167L53.0931 27.6489L50.9727 22.2769L61.7686 17.9609L63.8177 23.1483L62.6555 23.6199L61.0958 19.6935L57.5379 21.1287L58.9753 24.7681L57.8233 25.2294L56.3757 21.5901L52.6649 23.0766L54.2859 27.167Z" fill="#232323"></path>
<path d="M57.7414 30.9603L57.6905 29.7711L53.317 29.9659L53.2559 28.6024L64.8674 28.0796L64.9897 30.9296C65.0916 33.1337 63.8479 34.4049 61.6255 34.5074C59.7192 34.5895 58.4245 33.8001 57.9453 32.3546L53.5515 35.2558L53.4801 33.7078L57.7414 30.9603ZM58.975 29.7199L59.0361 31.1859C59.0973 32.5391 59.974 33.1952 61.5134 33.1337C63.0222 33.0619 63.7664 32.3341 63.7154 30.9911L63.644 29.5046L58.9648 29.7199H58.975Z" fill="#232323"></path>
<path d="M41.7466 36.6706C41.3184 36.6706 40.9922 36.6296 40.8393 36.6091C40.5232 36.5681 40.299 36.2708 40.3499 35.9529C40.3907 35.6351 40.6863 35.4096 41.0024 35.4609C41.2776 35.5019 43.1228 35.8094 44.652 34.0871C45.019 33.6771 45.284 33.2055 45.4676 32.6621C45.3554 32.5904 45.2433 32.5186 45.1413 32.4366C44.8559 32.2213 44.6214 31.965 44.4175 31.6677C44.3258 31.5344 44.2952 31.3704 44.336 31.2064C44.4889 30.5605 44.6418 29.2996 43.9792 28.0283C43.2452 26.6238 41.9301 26.0702 41.3082 25.7934C40.6761 25.5269 40.0033 25.3629 39.3101 25.3219C39.0043 25.3014 38.7698 25.0451 38.7698 24.7375V22.0003C38.0052 22.2463 37.2508 22.5539 36.5474 22.9332C35.7828 23.333 35.059 23.8149 34.376 24.3582C34.1211 24.5632 33.7643 24.5222 33.5604 24.2659C33.3565 24.0199 33.3973 23.6508 33.6521 23.4458C34.3862 22.8512 35.1711 22.3386 36.0071 21.8978C37.0163 21.3647 38.0969 20.9444 39.2081 20.6573C39.3814 20.6163 39.5649 20.6573 39.7077 20.7598C39.8504 20.8726 39.9319 21.0366 39.9319 21.2212V24.2044C40.564 24.2967 41.1757 24.4607 41.767 24.7068C42.4602 25.0041 44.0913 25.6909 45.019 27.4645C45.7632 28.8997 45.6918 30.3145 45.5389 31.1756C45.6307 31.2884 45.7428 31.3909 45.8651 31.4832C46.0282 31.6062 46.2016 31.6985 46.3851 31.7702C46.6603 31.8727 46.8132 32.1598 46.7419 32.4468C46.5278 33.3593 46.12 34.1589 45.5389 34.8253C44.1627 36.3733 42.9189 36.6398 41.767 36.6398" fill="#5EAF6C"></path>
<path d="M35.1301 30.5912C35.1301 31.0012 34.8039 31.3293 34.3961 31.3293C33.9883 31.3293 33.6621 31.0012 33.6621 30.5912C33.6621 30.1811 33.9883 29.853 34.3961 29.853C34.8039 29.853 35.1301 30.1811 35.1301 30.5912Z" fill="#5EAF6C"></path>
<path d="M43.0002 30.2835C43.0002 30.6936 42.674 31.0217 42.2662 31.0217C41.8584 31.0217 41.5322 30.6936 41.5322 30.2835C41.5322 29.8735 41.8584 29.5454 42.2662 29.5454C42.674 29.5454 43.0002 29.8735 43.0002 30.2835Z" fill="#5EAF6C"></path>
<path d="M17.3307 39.1209C17.1268 39.1209 16.9433 39.0184 16.8312 38.8441C16.719 38.6596 16.719 38.4238 16.8312 38.2393C18.1667 36.0352 19.3186 33.7695 20.2769 31.4936C20.5725 30.7863 20.7968 30.2122 20.9905 29.7098C21.5104 28.3566 21.8265 27.5364 22.693 26.4395C23.427 25.5066 25.3945 23.0257 28.7077 22.6464C28.8912 22.6259 33.2137 22.1748 35.7929 25.5169C36.8327 26.8598 37.1896 28.3156 37.3017 29.3613C37.6789 29.7098 38.0867 30.0276 38.5046 30.3044C39.1367 30.7247 39.8197 31.0631 40.5333 31.3193C40.7984 31.4116 40.9513 31.6884 40.9105 31.9652C40.7576 32.8571 40.4416 33.6773 39.9726 34.4154C39.4935 35.1638 38.1172 36.9578 35.6502 37.3576C32.7448 37.8292 30.6855 36.0044 30.2981 35.6353C30.0636 35.4098 30.0636 35.0407 30.2777 34.8152C30.502 34.5794 30.869 34.5794 31.0933 34.7947C31.2869 34.9792 33.0404 36.599 35.4565 36.2094C37.4648 35.8814 38.5964 34.4051 38.9838 33.79C39.2896 33.3082 39.5139 32.7854 39.6566 32.2318C39.0246 31.9652 38.4231 31.6474 37.8624 31.2783C37.3221 30.9195 36.8022 30.5095 36.3332 30.0584C36.2313 29.9559 36.1701 29.8226 36.1599 29.6791C36.0885 28.7769 35.8133 27.4442 34.8754 26.2242C34.4982 25.7424 34.0802 25.3528 33.6317 25.035C32.7244 25.9474 31.9496 26.9521 31.3073 28.0285C30.3185 29.6996 29.9821 31.022 29.6864 32.1805C29.5029 32.8981 29.3296 33.5747 29.034 34.2001C27.6577 37.0706 23.845 38.6801 17.3613 39.1107C17.3511 39.1107 17.3307 39.1107 17.3205 39.1107M29.3806 23.7741C29.0544 23.7741 28.8505 23.7946 28.8403 23.7946C25.996 24.1226 24.3139 26.2447 23.6003 27.1571C22.8459 28.1105 22.5707 28.8282 22.0711 30.1199C21.8672 30.6325 21.643 31.2168 21.3473 31.9345C20.5114 33.9233 19.5225 35.9121 18.4011 37.86C23.6819 37.3679 26.9135 35.9634 27.9941 33.6978C28.249 33.1749 28.3917 32.5803 28.5752 31.8934C28.8811 30.7145 29.2481 29.2485 30.3185 27.4339C30.9505 26.3575 31.7151 25.3528 32.5918 24.4404C31.3277 23.8766 30.0636 23.7843 29.3806 23.7843" fill="#5EAF6C"></path>
<path d="M33.4683 52.5196C35.1911 52.5196 36.9242 52.2223 38.6063 51.6072C40.5025 50.9203 42.2151 49.8746 43.6628 48.5521C44.4172 47.8653 45.9769 46.2865 47.1493 43.7851C47.8119 42.3703 48.1381 41.0991 48.3216 40.1764C48.444 39.7459 48.1789 39.3563 47.8833 39.305C47.5774 39.2538 47.19 39.5511 47.1799 40.0022C47.0575 40.6173 46.9046 41.1709 46.7517 41.663C46.5682 42.2063 46.3643 42.7496 46.1094 43.2827C44.5293 46.6761 41.7258 49.239 38.2189 50.5102C34.712 51.7814 30.9299 51.6072 27.5555 50.0079C26.5054 49.5056 25.5268 48.8905 24.6501 48.1728C24.2831 47.691 23.7224 47.65 23.5185 47.855C23.3452 48.0293 23.3554 48.4496 23.6204 48.8187C24.3748 49.4748 25.5268 50.3359 27.0661 51.0638C29.8798 52.3966 32.3877 52.5093 33.4785 52.5093" fill="#5EAF6C"></path>
<path d="M24.5687 56.9177L23.0396 56.2001L22.6114 57.1125L23.9571 57.7481L23.8143 58.0762L22.4687 57.4406L21.8366 58.7938L21.4492 58.6093L22.8051 55.6875L24.7216 56.5794L24.5687 56.9177Z" fill="#232323"></path>
<path d="M25.9855 58.3324C25.9855 58.3324 25.9345 58.3119 25.8938 58.2914C25.3025 58.0863 25.0374 58.5066 24.8539 58.9987L24.5277 59.9316L24.1709 59.8086L24.9355 57.6045L25.2821 57.7275L25.119 58.1991C25.4044 57.8813 25.7205 57.8198 26.118 57.9633L25.9855 58.3426V58.3324Z" fill="#232323"></path>
<path d="M28.3096 59.7779C28.1159 60.5468 27.6163 60.8954 26.9231 60.7314C26.2299 60.5571 25.9342 60.0137 26.1177 59.2654C26.3012 58.517 26.8416 58.1582 27.5246 58.3324C28.2076 58.4965 28.5033 59.0398 28.3198 59.7882M26.5051 59.3474C26.3726 59.9112 26.5561 60.3008 27.0047 60.4136C27.443 60.5263 27.7896 60.2495 27.9222 59.6959C28.0547 59.1526 27.8712 58.7425 27.4328 58.64C26.9945 58.5272 26.6377 58.8143 26.5051 59.3576" fill="#232323"></path>
<path d="M29.5843 59.1733C29.8085 58.9272 30.0328 58.8145 30.3692 58.8452C30.6751 58.876 30.879 59.0195 30.9707 59.3065C31.195 59.0605 31.4295 58.9375 31.7761 58.9682C32.2654 59.0092 32.4795 59.327 32.4387 59.7986L32.296 61.4287L31.9188 61.3979L32.0513 59.9319C32.0819 59.6038 32.0513 59.3475 31.6435 59.3065C31.2052 59.2655 31.0217 59.5526 30.9809 59.9832L30.8586 61.3056L30.4814 61.2749L30.6139 59.7781C30.6445 59.4706 30.6139 59.2245 30.2367 59.1835C29.727 59.1323 29.5741 59.5013 29.5333 59.9421L29.4211 61.1724L29.0439 61.1416L29.258 58.8145L29.6148 58.8452L29.5843 59.1835V59.1733Z" fill="#232323"></path>
<path d="M36.0881 57.9327C36.6998 57.8507 37.1789 58.0454 37.2707 58.7118C37.3624 59.4397 36.9342 59.737 36.3124 59.819L35.4458 59.9318L35.6192 61.244L35.2012 61.2953L34.7832 58.0967L36.0881 57.9224V57.9327ZM35.3949 59.5832L36.2002 59.4704C36.608 59.4192 36.9037 59.2654 36.8425 58.7938C36.7711 58.2812 36.4041 58.2607 35.9862 58.312L35.2318 58.4145L35.3847 59.5832H35.3949Z" fill="#232323"></path>
<path d="M40.4928 60.2393C40.4214 60.2906 40.3296 60.3316 40.2481 60.3521C40.034 60.4033 39.8913 60.3213 39.8301 60.106C39.6772 60.4136 39.4631 60.5879 39.1063 60.6801C38.6578 60.7929 38.3213 60.6289 38.2194 60.2291C38.1174 59.8292 38.3213 59.5217 38.8311 59.3167C39.351 59.1116 39.5345 59.0706 39.4529 58.7631C39.3918 58.517 39.1777 58.435 38.8413 58.5273C38.4946 58.6195 38.3519 58.7938 38.4029 59.1321L38.0461 59.2244C37.9339 58.7426 38.2092 58.3632 38.7903 58.2095C39.0961 58.1274 39.3714 58.1377 39.5549 58.2402C39.7486 58.353 39.8097 58.5888 39.8607 58.7836C39.9525 59.1219 40.0136 59.4602 40.1054 59.7985C40.1461 59.9625 40.2073 60.0138 40.3195 59.983C40.35 59.983 40.3704 59.9625 40.4112 59.942L40.4826 60.2291L40.4928 60.2393ZM39.1267 59.5012C38.8616 59.6037 38.5048 59.737 38.6068 60.0958C38.6679 60.3316 38.8718 60.4238 39.1573 60.3521C39.5039 60.2598 39.7791 59.9318 39.6976 59.6447L39.5855 59.2346C39.4733 59.3782 39.2796 59.4397 39.1267 59.5012Z" fill="#232323"></path>
<path d="M40.6559 57.7381L41.8793 59.3168L41.5836 57.3485L41.971 57.1947L43.1638 58.7837L42.9089 56.7949L43.2759 56.6411L43.4798 59.0913L43.1128 59.2451L41.9608 57.7278L42.2361 59.6141L41.8487 59.7679L40.2686 57.9021L40.6559 57.7381Z" fill="#232323"></path>
<path d="M45.284 56.241C45.1107 55.9847 44.8661 55.995 44.5806 56.159C44.3257 56.3025 44.234 56.5076 44.3257 56.6716C44.4583 56.8971 44.7437 56.7844 45.0496 56.6818C45.4369 56.5588 45.9263 56.405 46.1811 56.8459C46.4054 57.2354 46.2219 57.6865 45.7224 57.9838C45.1821 58.3016 44.7335 58.2298 44.4481 57.789L44.7743 57.5942C44.968 57.8915 45.2432 57.8915 45.5695 57.707C45.8651 57.5327 45.9874 57.2867 45.8651 57.0817C45.7326 56.8561 45.4879 56.9484 45.1617 57.0406C44.7641 57.1534 44.2748 57.3892 44.0097 56.9176C43.7956 56.5486 43.9689 56.1487 44.4379 55.8719C44.8864 55.6054 45.3656 55.6259 45.6103 56.0462L45.284 56.241Z" fill="#232323"></path>
<path d="M48.536 52.2739L47.7204 52.971L49.5656 55.1444L49.2394 55.4212L47.3942 53.2478L46.5786 53.9552L46.334 53.6681L48.2913 51.9868L48.536 52.2739Z" fill="#232323"></path>
<path d="M51.1761 51.874C51.747 52.4173 51.7979 53.0427 51.3086 53.5553C50.8193 54.0781 50.1974 54.0576 49.6367 53.5348C49.0862 53.0017 49.0454 52.3558 49.5246 51.8432C50.0139 51.3306 50.6154 51.3409 51.1761 51.874ZM49.9119 53.2375C50.3299 53.6373 50.7581 53.668 51.0843 53.3297C51.4003 53.0017 51.329 52.5711 50.9212 52.1713C50.5236 51.7817 50.0751 51.7509 49.759 52.079C49.443 52.4071 49.5144 52.8581 49.9119 53.2477" fill="#232323"></path>
<path d="M52.5013 47.1274L51.9202 48.0398L54.3057 49.5878L54.0713 49.9466L51.6857 48.3986L51.1047 49.3008L50.7988 49.106L52.1955 46.9224L52.5013 47.1274Z" fill="#232323"></path>
<path d="M55.9369 46.6047C55.9369 46.6867 55.8961 46.7789 55.8554 46.8609C55.7534 47.0557 55.5903 47.107 55.3966 47.0045C55.5189 47.3325 55.4986 47.6093 55.3354 47.9271C55.1214 48.3372 54.7747 48.4705 54.4077 48.2859C54.0407 48.0912 53.949 47.7323 54.1427 47.2095C54.3364 46.6867 54.4383 46.5226 54.1529 46.3791C53.9286 46.2663 53.7247 46.3689 53.5718 46.6764C53.4087 46.9942 53.4393 47.2198 53.7247 47.4145L53.5514 47.7529C53.113 47.5171 53.0213 47.0557 53.2965 46.5226C53.4393 46.2458 53.633 46.0408 53.8369 45.9793C54.0509 45.9075 54.265 46.0203 54.4485 46.1126C54.7544 46.2766 55.05 46.4509 55.366 46.6047C55.5189 46.6867 55.5903 46.6764 55.6413 46.5739C55.6617 46.5431 55.6617 46.5226 55.6719 46.4816L55.9369 46.6149V46.6047ZM54.4791 47.1275C54.3874 47.394 54.2344 47.7426 54.5709 47.9169C54.7849 48.0297 54.999 47.9374 55.1316 47.6811C55.2947 47.3633 55.2335 46.9327 54.9684 46.7994L54.5912 46.6047C54.6218 46.7789 54.5403 46.9635 54.4791 47.1275Z" fill="#232323"></path>
<path d="M53.8682 44.4414L53.7153 44.8002L53.2871 44.6157L53.44 44.2568L53.8682 44.4414ZM56.3964 45.4973L56.2435 45.8561L54.0925 44.954L54.2454 44.5951L56.3964 45.4973Z" fill="#232323"></path>
<path d="M53.8507 43.1249L53.7217 43.4922L56.7495 44.568L56.8786 44.2007L53.8507 43.1249Z" fill="#232323"></path>
</g>
<defs>
<clipPath id="SvgjsClipPath1001">
<rect width="65" height="61.4286" fill="white"></rect>
</clipPath>
</defs>
</svg><style>@media (prefers-color-scheme: light) { :root { filter: none; } }
@media (prefers-color-scheme: dark) { :root { filter: none; } }
</style></svg>