<svg width="75" height="76" viewBox="0 0 75 76" fill="none" xmlns="http://www.w3.org/2000/svg">
<path d="M34.4253 19.9471C34.9588 19.925 35.452 19.6423 35.7173 19.1794C35.9825 18.7164 35.9785 18.1445 35.731 17.668C34.785 15.9307 31.4658 10.1542 29.2996 8.89387C26.6009 7.32367 23.1343 8.25015 21.5839 10.9564C20.0336 13.6624 20.9703 17.151 23.6693 18.7213C25.8709 20.0023 32.4594 19.9902 34.4253 19.9471Z" stroke="#FFF2E8" stroke-width="4" stroke-linecap="round" stroke-linejoin="round"/>
<path d="M39.3842 17.6676C39.1364 18.1442 39.1328 18.716 39.398 19.1789C39.6632 19.6419 40.1567 19.9244 40.6899 19.9466C42.6559 19.9896 49.2798 19.9812 51.4459 18.7209C54.1447 17.1507 55.0818 13.6621 53.5314 10.9559C51.9811 8.24986 48.5146 7.32308 45.8156 8.89339C43.614 10.1743 40.3302 15.9303 39.3842 17.6676Z" stroke="#FFF2E8" stroke-width="4" stroke-linecap="round" stroke-linejoin="round"/>
<path d="M23 32.6288H30.8991V34.9622H26.0202V37.0039H30.5506V39.3373H26.0202V42.852H23V32.6288Z" fill="#FFF7F2"/>
<path d="M37.4353 37.456C36.9319 37.388 36.4915 37.4123 36.1139 37.5289C35.7461 37.6456 35.4605 37.8352 35.2572 38.0977C35.054 38.3505 34.9523 38.6713 34.9523 39.0602L34.2844 38.929C34.2844 38.0831 34.4102 37.3491 34.6619 36.7268C34.9233 36.1046 35.2911 35.6282 35.7655 35.2976C36.2398 34.9671 36.7964 34.8018 37.4353 34.8018V37.456ZM32.0192 34.9184H34.9523V42.852H32.0192V34.9184Z" fill="#FFF7F2"/>
<path d="M43.2483 38.156C43.258 37.8838 43.2144 37.6505 43.1176 37.456C43.0208 37.2519 42.8805 37.0963 42.6966 36.9893C42.5126 36.8727 42.2997 36.8143 42.0577 36.8143C41.7673 36.8143 41.5204 36.9018 41.3171 37.0768C41.1235 37.2421 40.9735 37.4706 40.867 37.7623C40.7605 38.054 40.7073 38.3845 40.7073 38.754C40.7073 39.1818 40.775 39.5464 40.9105 39.8478C41.0558 40.1492 41.2494 40.3825 41.4914 40.5478C41.743 40.7034 42.0335 40.7811 42.3626 40.7811C43.0015 40.7811 43.5823 40.5283 44.105 40.0228L45.6297 41.5249C45.2231 41.9819 44.7197 42.3367 44.1196 42.5895C43.5291 42.8326 42.8611 42.9541 42.1157 42.9541C41.2348 42.9541 40.4749 42.7888 39.836 42.4583C39.2068 42.118 38.718 41.6464 38.3695 41.0436C38.0307 40.4311 37.8613 39.7214 37.8613 38.9144C37.8613 38.088 38.0355 37.3685 38.384 36.756C38.7325 36.1435 39.2165 35.6671 39.836 35.3268C40.4653 34.9865 41.1961 34.8164 42.0286 34.8164C42.9579 34.8164 43.7372 35.0157 44.3664 35.4143C44.9956 35.8032 45.4603 36.3574 45.7604 37.0768C46.0701 37.7866 46.196 38.6276 46.1379 39.5998H40.3152V38.156H43.2483Z" fill="#FFF7F2"/>
<path d="M52.0967 38.156C52.1064 37.8838 52.0628 37.6505 51.966 37.456C51.8692 37.2519 51.7288 37.0963 51.5449 36.9893C51.361 36.8727 51.148 36.8143 50.906 36.8143C50.6156 36.8143 50.3688 36.9018 50.1655 37.0768C49.9719 37.2421 49.8218 37.4706 49.7153 37.7623C49.6089 38.054 49.5556 38.3845 49.5556 38.754C49.5556 39.1818 49.6234 39.5464 49.7589 39.8478C49.9041 40.1492 50.0977 40.3825 50.3397 40.5478C50.5914 40.7034 50.8818 40.7811 51.2109 40.7811C51.8498 40.7811 52.4307 40.5283 52.9534 40.0228L54.478 41.5249C54.0715 41.9819 53.5681 42.3367 52.9679 42.5895C52.3774 42.8326 51.7095 42.9541 50.9641 42.9541C50.0832 42.9541 49.3233 42.7888 48.6844 42.4583C48.0552 42.118 47.5663 41.6464 47.2178 41.0436C46.879 40.4311 46.7096 39.7214 46.7096 38.9144C46.7096 38.088 46.8839 37.3685 47.2324 36.756C47.5808 36.1435 48.0649 35.6671 48.6844 35.3268C49.3136 34.9865 50.0445 34.8164 50.877 34.8164C51.8063 34.8164 52.5855 35.0157 53.2148 35.4143C53.844 35.8032 54.3086 36.3574 54.6087 37.0768C54.9185 37.7866 55.0443 38.6276 54.9862 39.5998H49.1636V38.156H52.0967Z" fill="#FFF7F2"/>
<path d="M30.7071 53.7369C30.7071 53.9897 30.7652 54.1793 30.8814 54.3057C31.0072 54.4321 31.1718 54.4953 31.3751 54.4953C31.4912 54.4953 31.6268 54.4758 31.7817 54.4369C31.9365 54.3883 32.1011 54.33 32.2753 54.2619L32.7981 56.2891C32.527 56.4447 32.1931 56.571 31.7962 56.6683C31.409 56.7558 31.0121 56.7995 30.6055 56.7995C30.044 56.7995 29.5504 56.6974 29.1244 56.4933C28.7082 56.2891 28.379 55.9926 28.137 55.6037C27.9047 55.205 27.7885 54.7335 27.7885 54.189V46.9409H30.7071V53.7369ZM26.6995 49.143H32.6529V51.0243H26.6995V49.143Z" fill="#FFF7F2"/>
<path d="M37.695 48.6326C38.5759 48.6326 39.3454 48.8027 40.0037 49.143C40.662 49.4736 41.1702 49.9451 41.5283 50.5577C41.8962 51.1605 42.0801 51.8751 42.0801 52.7015C42.0801 53.5182 41.8962 54.2328 41.5283 54.8453C41.1702 55.4578 40.662 55.9342 40.0037 56.2745C39.3454 56.6051 38.5759 56.7704 37.695 56.7704C36.8044 56.7704 36.03 56.6051 35.3717 56.2745C34.7134 55.9342 34.2004 55.4578 33.8325 54.8453C33.4744 54.2328 33.2953 53.5182 33.2953 52.7015C33.2953 51.8751 33.4744 51.1605 33.8325 50.5577C34.2004 49.9451 34.7134 49.4736 35.3717 49.143C36.03 48.8027 36.8044 48.6326 37.695 48.6326ZM37.695 50.966C37.4046 50.966 37.148 51.0389 36.9254 51.1848C36.7124 51.3306 36.5479 51.5396 36.4317 51.8119C36.3155 52.0744 36.2574 52.3806 36.2574 52.7306C36.2574 53.0904 36.3155 53.4015 36.4317 53.664C36.5479 53.9265 36.7124 54.1307 36.9254 54.2765C37.148 54.4224 37.4046 54.4953 37.695 54.4953C37.9854 54.4953 38.2371 54.4224 38.45 54.2765C38.663 54.1307 38.8276 53.9265 38.9437 53.664C39.0599 53.4015 39.118 53.0904 39.118 52.7306C39.118 52.3806 39.0599 52.0744 38.9437 51.8119C38.8276 51.5396 38.663 51.3306 38.45 51.1848C38.2371 51.0389 37.9854 50.966 37.695 50.966Z" fill="#FFF7F2"/>
<path d="M47.7133 57.3391C47.4036 58.1169 46.9776 58.6906 46.4356 59.06C45.8935 59.4392 45.2255 59.6288 44.4317 59.6288C43.9477 59.6288 43.4976 59.5559 43.0813 59.41C42.6748 59.2739 42.2779 59.0552 41.8907 58.7538L43.1104 56.7849C43.4589 57.0863 43.8122 57.237 44.1704 57.237C44.3737 57.237 44.5431 57.1933 44.6786 57.1058C44.8238 57.028 44.94 56.9016 45.0271 56.7266L45.1723 56.4495L41.9052 48.7347H44.9109L46.6388 53.5911L48.1054 48.7347H51.024L47.7133 57.3391Z" fill="#FFF7F2"/>
</svg>
