<svg width="24" height="25" viewBox="0 0 24 25" fill="none" xmlns="http://www.w3.org/2000/svg">
<path d="M1.40675 15.996C1.34455 16.5448 1.73899 17.0401 2.28776 17.1023C2.83653 17.1645 3.33182 16.77 3.39403 16.2213L1.40675 15.996ZM3.52039 6.22778L2.87769 5.46166C2.68126 5.62645 2.55563 5.86039 2.52675 6.11515L3.52039 6.22778ZM6.40309 5.11475C6.82621 4.7598 6.88146 4.12905 6.52651 3.70593C6.17155 3.28282 5.5408 3.22756 5.11769 3.58252L6.40309 5.11475ZM20.6068 16.2213C20.669 16.77 21.1642 17.1645 21.713 17.1023C22.2618 17.0401 22.6562 16.5448 22.594 15.996L20.6068 16.2213ZM20.4804 6.22778L21.474 6.11515C21.4451 5.86039 21.3195 5.62645 21.1231 5.46166L20.4804 6.22778ZM18.8831 3.58252C18.46 3.22756 17.8292 3.28282 17.4743 3.70593C17.1193 4.12905 17.1746 4.7598 17.5977 5.11475L18.8831 3.58252ZM8.12039 16.3486C8.12039 17.652 7.06378 18.7086 5.76039 18.7086V20.7086C8.16835 20.7086 10.1204 18.7566 10.1204 16.3486H8.12039ZM5.76039 18.7086C4.457 18.7086 3.40039 17.652 3.40039 16.3486H1.40039C1.40039 18.7566 3.35243 20.7086 5.76039 20.7086V18.7086ZM3.40039 16.3486C3.40039 15.0452 4.457 13.9886 5.76039 13.9886V11.9886C3.35243 11.9886 1.40039 13.9407 1.40039 16.3486H3.40039ZM5.76039 13.9886C7.06378 13.9886 8.12039 15.0452 8.12039 16.3486H10.1204C10.1204 13.9407 8.16835 11.9886 5.76039 11.9886V13.9886ZM9.95553 16.1294C10.3651 15.4213 11.1281 14.9486 12.0004 14.9486V12.9486C10.3853 12.9486 8.97667 13.8273 8.22432 15.1279L9.95553 16.1294ZM12.0004 14.9486C12.8727 14.9486 13.6357 15.4213 14.0453 16.1294L15.7765 15.1279C15.0242 13.8273 13.6155 12.9486 12.0004 12.9486V14.9486ZM20.6004 16.3486C20.6004 17.652 19.5438 18.7086 18.2404 18.7086V20.7086C20.6483 20.7086 22.6004 18.7566 22.6004 16.3486H20.6004ZM18.2404 18.7086C16.937 18.7086 15.8804 17.652 15.8804 16.3486H13.8804C13.8804 18.7566 15.8324 20.7086 18.2404 20.7086V18.7086ZM15.8804 16.3486C15.8804 15.0452 16.937 13.9886 18.2404 13.9886V11.9886C15.8324 11.9886 13.8804 13.9407 13.8804 16.3486H15.8804ZM18.2404 13.9886C19.5438 13.9886 20.6004 15.0452 20.6004 16.3486H22.6004C22.6004 13.9407 20.6483 11.9886 18.2404 11.9886V13.9886ZM3.39403 16.2213L4.51403 6.34041L2.52675 6.11515L1.40675 15.996L3.39403 16.2213ZM4.16309 6.9939L6.40309 5.11475L5.11769 3.58252L2.87769 5.46166L4.16309 6.9939ZM22.594 15.996L21.474 6.11515L19.4868 6.34041L20.6068 16.2213L22.594 15.996ZM21.1231 5.46166L18.8831 3.58252L17.5977 5.11475L19.8377 6.9939L21.1231 5.46166Z" fill="#134E0D"/>
</svg>
