<svg width="24" height="25" viewBox="0 0 24 25" fill="none" xmlns="http://www.w3.org/2000/svg">
<path d="M23.7609 7.62852C23.7609 7.62852 23.5266 5.97383 22.8047 5.24727C21.8906 4.29102 20.8688 4.28633 20.4 4.23008C17.0438 3.98633 12.0047 3.98633 12.0047 3.98633H11.9953C11.9953 3.98633 6.95625 3.98633 3.6 4.23008C3.13125 4.28633 2.10938 4.29102 1.19531 5.24727C0.473438 5.97383 0.24375 7.62852 0.24375 7.62852C0.24375 7.62852 0 9.57383 0 11.5145V13.3332C0 15.2738 0.239062 17.2191 0.239062 17.2191C0.239062 17.2191 0.473437 18.8738 1.19062 19.6004C2.10469 20.5566 3.30469 20.5238 3.83906 20.627C5.76094 20.8098 12 20.866 12 20.866C12 20.866 17.0438 20.8566 20.4 20.6176C20.8688 20.5613 21.8906 20.5566 22.8047 19.6004C23.5266 18.8738 23.7609 17.2191 23.7609 17.2191C23.7609 17.2191 24 15.2785 24 13.3332V11.5145C24 9.57383 23.7609 7.62852 23.7609 7.62852ZM9.52031 15.541V8.7957L16.0031 12.1801L9.52031 15.541Z" fill="#134E0D"/>
</svg>
