<svg width="25" height="25" viewBox="0 0 25 25" fill="none" xmlns="http://www.w3.org/2000/svg">
<path d="M12.5 2.58965C15.7063 2.58965 16.0859 2.60371 17.3469 2.65996C18.5188 2.71152 19.1516 2.9084 19.5734 3.07246C20.1313 3.28809 20.5344 3.55059 20.9516 3.96777C21.3734 4.38965 21.6313 4.78809 21.8469 5.3459C22.0109 5.76777 22.2078 6.40527 22.2594 7.57246C22.3156 8.83809 22.3297 9.21777 22.3297 12.4193C22.3297 15.6256 22.3156 16.0053 22.2594 17.2662C22.2078 18.4381 22.0109 19.0709 21.8469 19.4928C21.6313 20.0506 21.3687 20.4537 20.9516 20.8709C20.5297 21.2928 20.1313 21.5506 19.5734 21.7662C19.1516 21.9303 18.5141 22.1271 17.3469 22.1787C16.0813 22.235 15.7016 22.249 12.5 22.249C9.29375 22.249 8.91406 22.235 7.65313 22.1787C6.48125 22.1271 5.84844 21.9303 5.42656 21.7662C4.86875 21.5506 4.46563 21.2881 4.04844 20.8709C3.62656 20.449 3.36875 20.0506 3.15313 19.4928C2.98906 19.0709 2.79219 18.4334 2.74063 17.2662C2.68438 16.0006 2.67031 15.6209 2.67031 12.4193C2.67031 9.21309 2.68438 8.8334 2.74063 7.57246C2.79219 6.40059 2.98906 5.76777 3.15313 5.3459C3.36875 4.78809 3.63125 4.38496 4.04844 3.96777C4.47031 3.5459 4.86875 3.28809 5.42656 3.07246C5.84844 2.9084 6.48594 2.71152 7.65313 2.65996C8.91406 2.60371 9.29375 2.58965 12.5 2.58965ZM12.5 0.428711C9.24219 0.428711 8.83438 0.442773 7.55469 0.499023C6.27969 0.555273 5.40313 0.761523 4.64375 1.05684C3.85156 1.36621 3.18125 1.77402 2.51563 2.44434C1.84531 3.10996 1.4375 3.78027 1.12813 4.56777C0.832812 5.33184 0.626563 6.20371 0.570313 7.47871C0.514063 8.76309 0.5 9.1709 0.5 12.4287C0.5 15.6865 0.514063 16.0943 0.570313 17.374C0.626563 18.649 0.832812 19.5256 1.12813 20.285C1.4375 21.0771 1.84531 21.7475 2.51563 22.4131C3.18125 23.0787 3.85156 23.4912 4.63906 23.7959C5.40313 24.0912 6.275 24.2975 7.55 24.3537C8.82969 24.41 9.2375 24.424 12.4953 24.424C15.7531 24.424 16.1609 24.41 17.4406 24.3537C18.7156 24.2975 19.5922 24.0912 20.3516 23.7959C21.1391 23.4912 21.8094 23.0787 22.475 22.4131C23.1406 21.7475 23.5531 21.0772 23.8578 20.2896C24.1531 19.5256 24.3594 18.6537 24.4156 17.3787C24.4719 16.099 24.4859 15.6912 24.4859 12.4334C24.4859 9.17559 24.4719 8.76777 24.4156 7.48809C24.3594 6.21309 24.1531 5.33652 23.8578 4.57715C23.5625 3.78027 23.1547 3.10996 22.4844 2.44434C21.8188 1.77871 21.1484 1.36621 20.3609 1.06152C19.5969 0.766211 18.725 0.559961 17.45 0.503711C16.1656 0.442773 15.7578 0.428711 12.5 0.428711Z" fill="#134E0D"/>
<path d="M12.5 6.26465C9.09688 6.26465 6.33594 9.02559 6.33594 12.4287C6.33594 15.8318 9.09688 18.5928 12.5 18.5928C15.9031 18.5928 18.6641 15.8318 18.6641 12.4287C18.6641 9.02559 15.9031 6.26465 12.5 6.26465ZM12.5 16.4271C10.2922 16.4271 8.50156 14.6365 8.50156 12.4287C8.50156 10.2209 10.2922 8.43027 12.5 8.43027C14.7078 8.43027 16.4984 10.2209 16.4984 12.4287C16.4984 14.6365 14.7078 16.4271 12.5 16.4271Z" fill="#134E0D"/>
<path d="M20.3469 6.0211C20.3469 6.81797 19.7 7.46016 18.9078 7.46016C18.1109 7.46016 17.4688 6.81328 17.4688 6.0211C17.4688 5.22422 18.1156 4.58203 18.9078 4.58203C19.7 4.58203 20.3469 5.22891 20.3469 6.0211Z" fill="#134E0D"/>
</svg>
