<svg width="25" height="25" viewBox="0 0 25 25" fill="none" xmlns="http://www.w3.org/2000/svg">
<path d="M12.5 2.38945C15.7063 2.38945 16.0859 2.40352 17.3469 2.45977C18.5188 2.51133 19.1516 2.7082 19.5734 2.87227C20.1313 3.08789 20.5344 3.35039 20.9516 3.76758C21.3734 4.18945 21.6313 4.58789 21.8469 5.1457C22.0109 5.56758 22.2078 6.20508 22.2594 7.37227C22.3156 8.63789 22.3297 9.01758 22.3297 12.2191C22.3297 15.4254 22.3156 15.8051 22.2594 17.066C22.2078 18.2379 22.0109 18.8707 21.8469 19.2926C21.6313 19.8504 21.3687 20.2535 20.9516 20.6707C20.5297 21.0926 20.1313 21.3504 19.5734 21.566C19.1516 21.7301 18.5141 21.927 17.3469 21.9785C16.0813 22.0348 15.7016 22.0488 12.5 22.0488C9.29375 22.0488 8.91406 22.0348 7.65313 21.9785C6.48125 21.927 5.84844 21.7301 5.42656 21.566C4.86875 21.3504 4.46563 21.0879 4.04844 20.6707C3.62656 20.2488 3.36875 19.8504 3.15313 19.2926C2.98906 18.8707 2.79219 18.2332 2.74063 17.066C2.68438 15.8004 2.67031 15.4207 2.67031 12.2191C2.67031 9.01289 2.68438 8.6332 2.74063 7.37227C2.79219 6.20039 2.98906 5.56758 3.15313 5.1457C3.36875 4.58789 3.63125 4.18477 4.04844 3.76758C4.47031 3.3457 4.86875 3.08789 5.42656 2.87227C5.84844 2.7082 6.48594 2.51133 7.65313 2.45977C8.91406 2.40352 9.29375 2.38945 12.5 2.38945ZM12.5 0.228516C9.24219 0.228516 8.83438 0.242578 7.55469 0.298828C6.27969 0.355078 5.40313 0.561328 4.64375 0.856641C3.85156 1.16602 3.18125 1.57383 2.51563 2.24414C1.84531 2.90977 1.4375 3.58008 1.12813 4.36758C0.832812 5.13164 0.626563 6.00352 0.570313 7.27852C0.514063 8.56289 0.5 8.9707 0.5 12.2285C0.5 15.4863 0.514063 15.8941 0.570313 17.1738C0.626563 18.4488 0.832812 19.3254 1.12813 20.0848C1.4375 20.877 1.84531 21.5473 2.51563 22.2129C3.18125 22.8785 3.85156 23.291 4.63906 23.5957C5.40313 23.891 6.275 24.0973 7.55 24.1535C8.82969 24.2098 9.2375 24.2238 12.4953 24.2238C15.7531 24.2238 16.1609 24.2098 17.4406 24.1535C18.7156 24.0973 19.5922 23.891 20.3516 23.5957C21.1391 23.291 21.8094 22.8785 22.475 22.2129C23.1406 21.5473 23.5531 20.877 23.8578 20.0895C24.1531 19.3254 24.3594 18.4535 24.4156 17.1785C24.4719 15.8988 24.4859 15.491 24.4859 12.2332C24.4859 8.97539 24.4719 8.56758 24.4156 7.28789C24.3594 6.01289 24.1531 5.13633 23.8578 4.37695C23.5625 3.58008 23.1547 2.90977 22.4844 2.24414C21.8188 1.57852 21.1484 1.16602 20.3609 0.861328C19.5969 0.566016 18.725 0.359766 17.45 0.303516C16.1656 0.242578 15.7578 0.228516 12.5 0.228516Z" fill="#FEFFFB"/>
<path d="M12.5 6.06445C9.09688 6.06445 6.33594 8.82539 6.33594 12.2285C6.33594 15.6316 9.09688 18.3926 12.5 18.3926C15.9031 18.3926 18.6641 15.6316 18.6641 12.2285C18.6641 8.82539 15.9031 6.06445 12.5 6.06445ZM12.5 16.227C10.2922 16.227 8.50156 14.4363 8.50156 12.2285C8.50156 10.0207 10.2922 8.23008 12.5 8.23008C14.7078 8.23008 16.4984 10.0207 16.4984 12.2285C16.4984 14.4363 14.7078 16.227 12.5 16.227Z" fill="#FEFFFB"/>
<path d="M20.3469 5.8209C20.3469 6.61778 19.7 7.25996 18.9078 7.25996C18.1109 7.25996 17.4688 6.61309 17.4688 5.8209C17.4688 5.02402 18.1156 4.38184 18.9078 4.38184C19.7 4.38184 20.3469 5.02871 20.3469 5.8209Z" fill="#FEFFFB"/>
</svg>
