<svg width="24" height="25" viewBox="0 0 24 25" fill="none" xmlns="http://www.w3.org/2000/svg">
<path d="M4.7998 6.41598L4.35259 5.52156C4.01381 5.69095 3.7998 6.03721 3.7998 6.41598H4.7998ZM11.9998 22.016L11.4658 22.8615C11.792 23.0675 12.2076 23.0675 12.5338 22.8615L11.9998 22.016ZM19.1998 6.41598L20.1998 6.41598C20.1998 6.03721 19.9858 5.69095 19.647 5.52156L19.1998 6.41598ZM10.3898 3.62097L9.94262 2.72654L10.3898 3.62097ZM13.6098 3.62097L14.057 2.72654L13.6098 3.62097ZM14.6998 12.5161C15.2521 12.5161 15.6998 12.0684 15.6998 11.5161C15.6998 10.9638 15.2521 10.5161 14.6998 10.5161V12.5161ZM9.29981 10.5161C8.74752 10.5161 8.29981 10.9638 8.29981 11.5161C8.29981 12.0684 8.74752 12.5161 9.29981 12.5161L9.29981 10.5161ZM10.9998 14.216C10.9998 14.7683 11.4475 15.216 11.9998 15.216C12.5521 15.216 12.9998 14.7683 12.9998 14.216H10.9998ZM12.9998 8.81598C12.9998 8.2637 12.5521 7.81598 11.9998 7.81598C11.4475 7.81598 10.9998 8.2637 10.9998 8.81598H12.9998ZM9.94262 2.72654L4.35259 5.52156L5.24702 7.31041L10.837 4.5154L9.94262 2.72654ZM3.7998 6.41598L3.7998 14.444H5.7998L5.7998 6.41598H3.7998ZM3.7998 14.444C3.7998 15.9235 4.66287 17.3256 5.94365 18.6432C7.24487 19.9818 9.12171 21.3811 11.4658 22.8615L12.5338 21.1705C10.2403 19.7221 8.51714 18.4213 7.37776 17.2492C6.21794 16.056 5.7998 15.1365 5.7998 14.444H3.7998ZM12.5338 22.8615C14.8387 21.4058 16.7277 20.1537 18.0342 18.8899C19.368 17.5997 20.1998 16.1963 20.1998 14.444H18.1998C18.1998 15.4637 17.7504 16.3818 16.6436 17.4524C15.5095 18.5495 13.7985 19.6973 11.4658 21.1705L12.5338 22.8615ZM20.1998 14.444C20.1998 14.4386 20.1998 14.4331 20.1998 14.4277C20.1998 14.4223 20.1998 14.4168 20.1998 14.4114C20.1998 14.4059 20.1998 14.4005 20.1998 14.395C20.1998 14.3895 20.1998 14.3841 20.1998 14.3786C20.1998 14.3731 20.1998 14.3676 20.1998 14.3621C20.1998 14.3566 20.1998 14.351 20.1998 14.3455C20.1998 14.34 20.1998 14.3345 20.1998 14.3289C20.1998 14.3234 20.1998 14.3178 20.1998 14.3123C20.1998 14.3067 20.1998 14.3011 20.1998 14.2955C20.1998 14.29 20.1998 14.2844 20.1998 14.2788C20.1998 14.2732 20.1998 14.2676 20.1998 14.262C20.1998 14.2563 20.1998 14.2507 20.1998 14.2451C20.1998 14.2395 20.1998 14.2338 20.1998 14.2282C20.1998 14.2225 20.1998 14.2168 20.1998 14.2112C20.1998 14.2055 20.1998 14.1998 20.1998 14.1941C20.1998 14.1885 20.1998 14.1828 20.1998 14.1771C20.1998 14.1714 20.1998 14.1657 20.1998 14.1599C20.1998 14.1542 20.1998 14.1485 20.1998 14.1428C20.1998 14.137 20.1998 14.1313 20.1998 14.1255C20.1998 14.1198 20.1998 14.114 20.1998 14.1082C20.1998 14.1025 20.1998 14.0967 20.1998 14.0909C20.1998 14.0851 20.1998 14.0793 20.1998 14.0735C20.1998 14.0677 20.1998 14.0619 20.1998 14.0561C20.1998 14.0503 20.1998 14.0444 20.1998 14.0386C20.1998 14.0328 20.1998 14.0269 20.1998 14.0211C20.1998 14.0152 20.1998 14.0094 20.1998 14.0035C20.1998 13.9976 20.1998 13.9917 20.1998 13.9859C20.1998 13.98 20.1998 13.9741 20.1998 13.9682C20.1998 13.9623 20.1998 13.9564 20.1998 13.9505C20.1998 13.9445 20.1998 13.9386 20.1998 13.9327C20.1998 13.9268 20.1998 13.9208 20.1998 13.9149C20.1998 13.9089 20.1998 13.903 20.1998 13.897C20.1998 13.8911 20.1998 13.8851 20.1998 13.8791C20.1998 13.8731 20.1998 13.8671 20.1998 13.8612C20.1998 13.8552 20.1998 13.8492 20.1998 13.8432C20.1998 13.8372 20.1998 13.8311 20.1998 13.8251C20.1998 13.8191 20.1998 13.8131 20.1998 13.807C20.1998 13.801 20.1998 13.7949 20.1998 13.7889C20.1998 13.7828 20.1998 13.7768 20.1998 13.7707C20.1998 13.7647 20.1998 13.7586 20.1998 13.7525C20.1998 13.7464 20.1998 13.7403 20.1998 13.7342C20.1998 13.7281 20.1998 13.722 20.1998 13.7159C20.1998 13.7098 20.1998 13.7037 20.1998 13.6976C20.1998 13.6915 20.1998 13.6853 20.1998 13.6792C20.1998 13.6731 20.1998 13.6669 20.1998 13.6608C20.1998 13.6546 20.1998 13.6485 20.1998 13.6423C20.1998 13.6361 20.1998 13.63 20.1998 13.6238C20.1998 13.6176 20.1998 13.6114 20.1998 13.6052C20.1998 13.599 20.1998 13.5929 20.1998 13.5866C20.1998 13.5804 20.1998 13.5742 20.1998 13.568C20.1998 13.5618 20.1998 13.5556 20.1998 13.5493C20.1998 13.5431 20.1998 13.5369 20.1998 13.5306C20.1998 13.5244 20.1998 13.5181 20.1998 13.5119C20.1998 13.5056 20.1998 13.4994 20.1998 13.4931C20.1998 13.4868 20.1998 13.4805 20.1998 13.4743C20.1998 13.468 20.1998 13.4617 20.1998 13.4554C20.1998 13.4491 20.1998 13.4428 20.1998 13.4365C20.1998 13.4302 20.1998 13.4239 20.1998 13.4176C20.1998 13.4112 20.1998 13.4049 20.1998 13.3986C20.1998 13.3923 20.1998 13.3859 20.1998 13.3796C20.1998 13.3732 20.1998 13.3669 20.1998 13.3605C20.1998 13.3542 20.1998 13.3478 20.1998 13.3414C20.1998 13.3351 20.1998 13.3287 20.1998 13.3223C20.1998 13.3159 20.1998 13.3096 20.1998 13.3032C20.1998 13.2968 20.1998 13.2904 20.1998 13.284C20.1998 13.2776 20.1998 13.2712 20.1998 13.2648C20.1998 13.2583 20.1998 13.2519 20.1998 13.2455C20.1998 13.2391 20.1998 13.2326 20.1998 13.2262C20.1998 13.2198 20.1998 13.2133 20.1998 13.2069C20.1998 13.2004 20.1998 13.194 20.1998 13.1875C20.1998 13.1811 20.1998 13.1746 20.1998 13.1681C20.1998 13.1617 20.1998 13.1552 20.1998 13.1487C20.1998 13.1422 20.1998 13.1357 20.1998 13.1293C20.1998 13.1228 20.1998 13.1163 20.1998 13.1098C20.1998 13.1033 20.1998 13.0968 20.1998 13.0902C20.1998 13.0837 20.1998 13.0772 20.1998 13.0707C20.1998 13.0642 20.1998 13.0576 20.1998 13.0511C20.1998 13.0446 20.1998 13.0381 20.1998 13.0315C20.1998 13.025 20.1998 13.0184 20.1998 13.0119C20.1998 13.0053 20.1998 12.9988 20.1998 12.9922C20.1998 12.9856 20.1998 12.9791 20.1998 12.9725C20.1998 12.9659 20.1998 12.9594 20.1998 12.9528C20.1998 12.9462 20.1998 12.9396 20.1998 12.933C20.1998 12.9264 20.1998 12.9198 20.1998 12.9132C20.1998 12.9066 20.1998 12.9 20.1998 12.8934C20.1998 12.8868 20.1998 12.8802 20.1998 12.8736C20.1998 12.867 20.1998 12.8603 20.1998 12.8537C20.1998 12.8471 20.1998 12.8405 20.1998 12.8338C20.1998 12.8272 20.1998 12.8206 20.1998 12.8139C20.1998 12.8073 20.1998 12.8006 20.1998 12.794C20.1998 12.7873 20.1998 12.7807 20.1998 12.774C20.1998 12.7673 20.1998 12.7607 20.1998 12.754C20.1998 12.7473 20.1998 12.7407 20.1998 12.734C20.1998 12.7273 20.1998 12.7206 20.1998 12.7139C20.1998 12.7072 20.1998 12.7006 20.1998 12.6939C20.1998 12.6872 20.1998 12.6805 20.1998 12.6738C20.1998 12.6671 20.1998 12.6604 20.1998 12.6537C20.1998 12.6469 20.1998 12.6402 20.1998 12.6335C20.1998 12.6268 20.1998 12.6201 20.1998 12.6133C20.1998 12.6066 20.1998 12.5999 20.1998 12.5932C20.1998 12.5864 20.1998 12.5797 20.1998 12.573C20.1998 12.5662 20.1998 12.5595 20.1998 12.5527C20.1998 12.546 20.1998 12.5392 20.1998 12.5325C20.1998 12.5257 20.1998 12.519 20.1998 12.5122C20.1998 12.5054 20.1998 12.4987 20.1998 12.4919C20.1998 12.4851 20.1998 12.4784 20.1998 12.4716C20.1998 12.4648 20.1998 12.458 20.1998 12.4513C20.1998 12.4445 20.1998 12.4377 20.1998 12.4309C20.1998 12.4241 20.1998 12.4173 20.1998 12.4105C20.1998 12.4037 20.1998 12.3969 20.1998 12.3901C20.1998 12.3833 20.1998 12.3765 20.1998 12.3697C20.1998 12.3629 20.1998 12.3561 20.1998 12.3493C20.1998 12.3425 20.1998 12.3357 20.1998 12.3288C20.1998 12.322 20.1998 12.3152 20.1998 12.3084C20.1998 12.3015 20.1998 12.2947 20.1998 12.2879C20.1998 12.2811 20.1998 12.2742 20.1998 12.2674C20.1998 12.2606 20.1998 12.2537 20.1998 12.2469C20.1998 12.24 20.1998 12.2332 20.1998 12.2263C20.1998 12.2195 20.1998 12.2126 20.1998 12.2058C20.1998 12.1989 20.1998 12.1921 20.1998 12.1852C20.1998 12.1784 20.1998 12.1715 20.1998 12.1646C20.1998 12.1578 20.1998 12.1509 20.1998 12.144C20.1998 12.1372 20.1998 12.1303 20.1998 12.1234C20.1998 12.1166 20.1998 12.1097 20.1998 12.1028C20.1998 12.0959 20.1998 12.0891 20.1998 12.0822C20.1998 12.0753 20.1998 12.0684 20.1998 12.0615C20.1998 12.0546 20.1998 12.0477 20.1998 12.0409C20.1998 12.034 20.1998 12.0271 20.1998 12.0202C20.1998 12.0133 20.1998 12.0064 20.1998 11.9995C20.1998 11.9926 20.1998 11.9857 20.1998 11.9788C20.1998 11.9719 20.1998 11.965 20.1998 11.9581C20.1998 11.9512 20.1998 11.9442 20.1998 11.9373C20.1998 11.9304 20.1998 11.9235 20.1998 11.9166C20.1998 11.9097 20.1998 11.9028 20.1998 11.8958C20.1998 11.8889 20.1998 11.882 20.1998 11.8751C20.1998 11.8682 20.1998 11.8612 20.1998 11.8543C20.1998 11.8474 20.1998 11.8405 20.1998 11.8335C20.1998 11.8266 20.1998 11.8197 20.1998 11.8128C20.1998 11.8058 20.1998 11.7989 20.1998 11.792C20.1998 11.785 20.1998 11.7781 20.1998 11.7711C20.1998 11.7642 20.1998 11.7573 20.1998 11.7503C20.1998 11.7434 20.1998 11.7365 20.1998 11.7295C20.1998 11.7226 20.1998 11.7156 20.1998 11.7087C20.1998 11.7017 20.1998 11.6948 20.1998 11.6878C20.1998 11.6809 20.1998 11.6739 20.1998 11.667C20.1998 11.66 20.1998 11.6531 20.1998 11.6461C20.1998 11.6392 20.1998 11.6322 20.1998 11.6253C20.1998 11.6183 20.1998 11.6114 20.1998 11.6044C20.1998 11.5975 20.1998 11.5905 20.1998 11.5835C20.1998 11.5766 20.1998 11.5696 20.1998 11.5627C20.1998 11.5557 20.1998 11.5488 20.1998 11.5418C20.1998 11.5348 20.1998 11.5279 20.1998 11.5209C20.1998 11.5139 20.1998 11.507 20.1998 11.5C20.1998 11.4931 20.1998 11.4861 20.1998 11.4791C20.1998 11.4722 20.1998 11.4652 20.1998 11.4582C20.1998 11.4513 20.1998 11.4443 20.1998 11.4373C20.1998 11.4304 20.1998 11.4234 20.1998 11.4164C20.1998 11.4095 20.1998 11.4025 20.1998 11.3955C20.1998 11.3886 20.1998 11.3816 20.1998 11.3746C20.1998 11.3676 20.1998 11.3607 20.1998 11.3537C20.1998 11.3467 20.1998 11.3398 20.1998 11.3328C20.1998 11.3258 20.1998 11.3189 20.1998 11.3119C20.1998 11.3049 20.1998 11.2979 20.1998 11.291C20.1998 11.284 20.1998 11.277 20.1998 11.2701C20.1998 11.2631 20.1998 11.2561 20.1998 11.2491C20.1998 11.2422 20.1998 11.2352 20.1998 11.2282C20.1998 11.2213 20.1998 11.2143 20.1998 11.2073C20.1998 11.2003 20.1998 11.1934 20.1998 11.1864C20.1998 11.1794 20.1998 11.1725 20.1998 11.1655C20.1998 11.1585 20.1998 11.1516 20.1998 11.1446C20.1998 11.1376 20.1998 11.1307 20.1998 11.1237C20.1998 11.1167 20.1998 11.1097 20.1998 11.1028C20.1998 11.0958 20.1998 11.0888 20.1998 11.0819C20.1998 11.0749 20.1998 11.0679 20.1998 11.061C20.1998 11.054 20.1998 11.047 20.1998 11.0401C20.1998 11.0331 20.1998 11.0262 20.1998 11.0192C20.1998 11.0122 20.1998 11.0053 20.1998 10.9983C20.1998 10.9913 20.1998 10.9844 20.1998 10.9774C20.1998 10.9705 20.1998 10.9635 20.1998 10.9565C20.1998 10.9496 20.1998 10.9426 20.1998 10.9357C20.1998 10.9287 20.1998 10.9218 20.1998 10.9148C20.1998 10.9078 20.1998 10.9009 20.1998 10.8939C20.1998 10.887 20.1998 10.88 20.1998 10.8731C20.1998 10.8661 20.1998 10.8592 20.1998 10.8522C20.1998 10.8453 20.1998 10.8383 20.1998 10.8314C20.1998 10.8244 20.1998 10.8175 20.1998 10.8106C20.1998 10.8036 20.1998 10.7967 20.1998 10.7897C20.1998 10.7828 20.1998 10.7758 20.1998 10.7689C20.1998 10.762 20.1998 10.755 20.1998 10.7481C20.1998 10.7412 20.1998 10.7342 20.1998 10.7273C20.1998 10.7204 20.1998 10.7134 20.1998 10.7065C20.1998 10.6996 20.1998 10.6926 20.1998 10.6857C20.1998 10.6788 20.1998 10.6719 20.1998 10.6649C20.1998 10.658 20.1998 10.6511 20.1998 10.6442C20.1998 10.6372 20.1998 10.6303 20.1998 10.6234C20.1998 10.6165 20.1998 10.6096 20.1998 10.6027C20.1998 10.5958 20.1998 10.5888 20.1998 10.5819C20.1998 10.575 20.1998 10.5681 20.1998 10.5612C20.1998 10.5543 20.1998 10.5474 20.1998 10.5405C20.1998 10.5336 20.1998 10.5267 20.1998 10.5198C20.1998 10.5129 20.1998 10.506 20.1998 10.4991C20.1998 10.4922 20.1998 10.4853 20.1998 10.4784C20.1998 10.4716 20.1998 10.4647 20.1998 10.4578C20.1998 10.4509 20.1998 10.444 20.1998 10.4371C20.1998 10.4303 20.1998 10.4234 20.1998 10.4165C20.1998 10.4096 20.1998 10.4027 20.1998 10.3959C20.1998 10.389 20.1998 10.3821 20.1998 10.3753C20.1998 10.3684 20.1998 10.3615 20.1998 10.3547C20.1998 10.3478 20.1998 10.341 20.1998 10.3341C20.1998 10.3273 20.1998 10.3204 20.1998 10.3135C20.1998 10.3067 20.1998 10.2998 20.1998 10.293C20.1998 10.2862 20.1998 10.2793 20.1998 10.2725C20.1998 10.2656 20.1998 10.2588 20.1998 10.252C20.1998 10.2451 20.1998 10.2383 20.1998 10.2315C20.1998 10.2246 20.1998 10.2178 20.1998 10.211C20.1998 10.2042 20.1998 10.1973 20.1998 10.1905C20.1998 10.1837 20.1998 10.1769 20.1998 10.1701C20.1998 10.1633 20.1998 10.1565 20.1998 10.1497C20.1998 10.1429 20.1998 10.1361 20.1998 10.1293C20.1998 10.1225 20.1998 10.1157 20.1998 10.1089C20.1998 10.1021 20.1998 10.0953 20.1998 10.0885C20.1998 10.0817 20.1998 10.0749 20.1998 10.0682C20.1998 10.0614 20.1998 10.0546 20.1998 10.0478C20.1998 10.0411 20.1998 10.0343 20.1998 10.0275C20.1998 10.0208 20.1998 10.014 20.1998 10.0072C20.1998 10.0005 20.1998 9.99372 20.1998 9.98697C20.1998 9.98022 20.1998 9.97347 20.1998 9.96673C20.1998 9.95998 20.1998 9.95324 20.1998 9.94651C20.1998 9.93977 20.1998 9.93303 20.1998 9.9263C20.1998 9.91957 20.1998 9.91285 20.1998 9.90613C20.1998 9.8994 20.1998 9.89269 20.1998 9.88597C20.1998 9.87926 20.1998 9.87255 20.1998 9.86584C20.1998 9.85913 20.1998 9.85243 20.1998 9.84573C20.1998 9.83903 20.1998 9.83234 20.1998 9.82564C20.1998 9.81895 20.1998 9.81227 20.1998 9.80558C20.1998 9.7989 20.1998 9.79222 20.1998 9.78555C20.1998 9.77887 20.1998 9.7722 20.1998 9.76554C20.1998 9.75887 20.1998 9.75221 20.1998 9.74555C20.1998 9.73889 20.1998 9.73224 20.1998 9.72559C20.1998 9.71894 20.1998 9.71229 20.1998 9.70565C20.1998 9.69901 20.1998 9.69238 20.1998 9.68574C20.1998 9.67911 20.1998 9.67248 20.1998 9.66586C20.1998 9.65924 20.1998 9.65262 20.1998 9.646C20.1998 9.63939 20.1998 9.63278 20.1998 9.62618C20.1998 9.61957 20.1998 9.61297 20.1998 9.60638C20.1998 9.59978 20.1998 9.59319 20.1998 9.5866C20.1998 9.58002 20.1998 9.57343 20.1998 9.56686C20.1998 9.56028 20.1998 9.55371 20.1998 9.54714C20.1998 9.54057 20.1998 9.53401 20.1998 9.52745C20.1998 9.5209 20.1998 9.51434 20.1998 9.5078C20.1998 9.50125 20.1998 9.49471 20.1998 9.48817C20.1998 9.48163 20.1998 9.4751 20.1998 9.46857C20.1998 9.46204 20.1998 9.45552 20.1998 9.449C20.1998 9.44248 20.1998 9.43597 20.1998 9.42947C20.1998 9.42296 20.1998 9.41646 20.1998 9.40996C20.1998 9.40346 20.1998 9.39697 20.1998 9.39048C20.1998 9.384 20.1998 9.37752 20.1998 9.37104C20.1998 9.36457 20.1998 9.3581 20.1998 9.35163C20.1998 9.34517 20.1998 9.33871 20.1998 9.33225C20.1998 9.3258 20.1998 9.31935 20.1998 9.31291C20.1998 9.30646 20.1998 9.30002 20.1998 9.29359C20.1998 9.28716 20.1998 9.28073 20.1998 9.27431C20.1998 9.26789 20.1998 9.26148 20.1998 9.25507C20.1998 9.24866 20.1998 9.24225 20.1998 9.23586C20.1998 9.22946 20.1998 9.22307 20.1998 9.21668C20.1998 9.21029 20.1998 9.20391 20.1998 9.19754C20.1998 9.19116 20.1998 9.18479 20.1998 9.17843C20.1998 9.17207 20.1998 9.16571 20.1998 9.15936C20.1998 9.15301 20.1998 9.14666 20.1998 9.14032C20.1998 9.13399 20.1998 9.12765 20.1998 9.12133C20.1998 9.115 20.1998 9.10868 20.1998 9.10236C20.1998 9.09605 20.1998 9.08974 20.1998 9.08344C20.1998 9.07713 20.1998 9.07084 20.1998 9.06455C20.1998 9.05826 20.1998 9.05198 20.1998 9.0457C20.1998 9.03942 20.1998 9.03315 20.1998 9.02689C20.1998 9.02062 20.1998 9.01436 20.1998 9.00811C20.1998 9.00186 20.1998 8.99561 20.1998 8.98937C20.1998 8.98314 20.1998 8.9769 20.1998 8.97068C20.1998 8.96445 20.1998 8.95823 20.1998 8.95202C20.1998 8.94581 20.1998 8.9396 20.1998 8.9334C20.1998 8.9272 20.1998 8.92101 20.1998 8.91482C20.1998 8.90864 20.1998 8.90246 20.1998 8.89629C20.1998 8.89011 20.1998 8.88395 20.1998 8.87779C20.1998 8.87163 20.1998 8.86548 20.1998 8.85933C20.1998 8.85319 20.1998 8.84705 20.1998 8.84092C20.1998 8.83479 20.1998 8.82866 20.1998 8.82255C20.1998 8.81643 20.1998 8.81032 20.1998 8.80422C20.1998 8.79811 20.1998 8.79202 20.1998 8.78593C20.1998 8.77984 20.1998 8.77376 20.1998 8.76768C20.1998 8.76161 20.1998 8.75554 20.1998 8.74948C20.1998 8.74342 20.1998 8.73737 20.1998 8.73132C20.1998 8.72528 20.1998 8.71924 20.1998 8.71321C20.1998 8.70718 20.1998 8.70115 20.1998 8.69514C20.1998 8.68912 20.1998 8.68311 20.1998 8.67711C20.1998 8.67111 20.1998 8.66512 20.1998 8.65913C20.1998 8.65314 20.1998 8.64716 20.1998 8.64119C20.1998 8.63522 20.1998 8.62926 20.1998 8.6233C20.1998 8.61735 20.1998 8.6114 20.1998 8.60546C20.1998 8.59952 20.1998 8.59359 20.1998 8.58766C20.1998 8.58174 20.1998 8.57582 20.1998 8.56991C20.1998 8.564 20.1998 8.5581 20.1998 8.5522C20.1998 8.54631 20.1998 8.54042 20.1998 8.53455C20.1998 8.52867 20.1998 8.5228 20.1998 8.51694C20.1998 8.51108 20.1998 8.50522 20.1998 8.49938C20.1998 8.49353 20.1998 8.48769 20.1998 8.48186C20.1998 8.47603 20.1998 8.47021 20.1998 8.4644C20.1998 8.45858 20.1998 8.45278 20.1998 8.44698C20.1998 8.44118 20.1998 8.4354 20.1998 8.42962C20.1998 8.42383 20.1998 8.41806 20.1998 8.4123C20.1998 8.40653 20.1998 8.40078 20.1998 8.39503C20.1998 8.38928 20.1998 8.38355 20.1998 8.37782C20.1998 8.37209 20.1998 8.36636 20.1998 8.36065C20.1998 8.35494 20.1998 8.34923 20.1998 8.34354C20.1998 8.33784 20.1998 8.33215 20.1998 8.32647C20.1998 8.32079 20.1998 8.31512 20.1998 8.30946C20.1998 8.3038 20.1998 8.29815 20.1998 8.2925C20.1998 8.28686 20.1998 8.28122 20.1998 8.2756C20.1998 8.26997 20.1998 8.26435 20.1998 8.25874C20.1998 8.25313 20.1998 8.24753 20.1998 8.24194C20.1998 8.23635 20.1998 8.23077 20.1998 8.22519C20.1998 8.21962 20.1998 8.21406 20.1998 8.2085C20.1998 8.20295 20.1998 8.1974 20.1998 8.19186C20.1998 8.18633 20.1998 8.1808 20.1998 8.17528C20.1998 8.16976 20.1998 8.16425 20.1998 8.15875C20.1998 8.15325 20.1998 8.14776 20.1998 8.14227C20.1998 8.13679 20.1998 8.13132 20.1998 8.12586C20.1998 8.12039 20.1998 8.11494 20.1998 8.10949C20.1998 8.10405 20.1998 8.09861 20.1998 8.09319C20.1998 8.08776 20.1998 8.08235 20.1998 8.07694C20.1998 8.07153 20.1998 8.06613 20.1998 8.06074C20.1998 8.05536 20.1998 8.04998 20.1998 8.04461C20.1998 8.03924 20.1998 8.03388 20.1998 8.02853C20.1998 8.02318 20.1998 8.01784 20.1998 8.01251C20.1998 8.00718 20.1998 8.00186 20.1998 7.99655C20.1998 7.99124 20.1998 7.98594 20.1998 7.98065C20.1998 7.97536 20.1998 7.97008 20.1998 7.9648C20.1998 7.95953 20.1998 7.95427 20.1998 7.94902C20.1998 7.94377 20.1998 7.93853 20.1998 7.9333C20.1998 7.92806 20.1998 7.92284 20.1998 7.91763C20.1998 7.91242 20.1998 7.90722 20.1998 7.90203C20.1998 7.89684 20.1998 7.89166 20.1998 7.88648C20.1998 7.88131 20.1998 7.87615 20.1998 7.871C20.1998 7.86585 20.1998 7.86071 20.1998 7.85558C20.1998 7.85045 20.1998 7.84533 20.1998 7.84022C20.1998 7.83511 20.1998 7.83002 20.1998 7.82493C20.1998 7.81984 20.1998 7.81476 20.1998 7.80969C20.1998 7.80463 20.1998 7.79957 20.1998 7.79452C20.1998 7.78948 20.1998 7.78444 20.1998 7.77941C20.1998 7.77439 20.1998 7.76937 20.1998 7.76437C20.1998 7.75937 20.1998 7.75437 20.1998 7.74939C20.1998 7.74441 20.1998 7.73943 20.1998 7.73447C20.1998 7.72951 20.1998 7.72456 20.1998 7.71962C20.1998 7.71468 20.1998 7.70975 20.1998 7.70483C20.1998 7.69992 20.1998 7.69501 20.1998 7.69011C20.1998 7.68522 20.1998 7.68033 20.1998 7.67546C20.1998 7.67058 20.1998 7.66572 20.1998 7.66087C20.1998 7.65602 20.1998 7.65117 20.1998 7.64634C20.1998 7.64151 20.1998 7.6367 20.1998 7.63189C20.1998 7.62708 20.1998 7.62228 20.1998 7.6175C20.1998 7.61271 20.1998 7.60794 20.1998 7.60318C20.1998 7.59841 20.1998 7.59366 20.1998 7.58892C20.1998 7.58418 20.1998 7.57945 20.1998 7.57473C20.1998 7.57002 20.1998 7.56531 20.1998 7.56062C20.1998 7.55592 20.1998 7.55124 20.1998 7.54657C20.1998 7.54189 20.1998 7.53723 20.1998 7.53259C20.1998 7.52794 20.1998 7.5233 20.1998 7.51868C20.1998 7.51405 20.1998 7.50944 20.1998 7.50483C20.1998 7.50023 20.1998 7.49564 20.1998 7.49106C20.1998 7.48648 20.1998 7.48192 20.1998 7.47736C20.1998 7.47281 20.1998 7.46826 20.1998 7.46373C20.1998 7.4592 20.1998 7.45468 20.1998 7.45017C20.1998 7.44567 20.1998 7.44117 20.1998 7.43669C20.1998 7.4322 20.1998 7.42773 20.1998 7.42327C20.1998 7.41881 20.1998 7.41436 20.1998 7.40993C20.1998 7.40549 20.1998 7.40107 20.1998 7.39666C20.1998 7.39225 20.1998 7.38785 20.1998 7.38346C20.1998 7.37907 20.1998 7.3747 20.1998 7.37034C20.1998 7.36597 20.1998 7.36162 20.1998 7.35729C20.1998 7.35295 20.1998 7.34862 20.1998 7.34431C20.1998 7.34 20.1998 7.33569 20.1998 7.33141C20.1998 7.32712 20.1998 7.32284 20.1998 7.31858C20.1998 7.31432 20.1998 7.31006 20.1998 7.30583C20.1998 7.30159 20.1998 7.29736 20.1998 7.29315C20.1998 7.28893 20.1998 7.28473 20.1998 7.28055C20.1998 7.27636 20.1998 7.27218 20.1998 7.26802C20.1998 7.26386 20.1998 7.25971 20.1998 7.25557C20.1998 7.25143 20.1998 7.24731 20.1998 7.2432C20.1998 7.23909 20.1998 7.23499 20.1998 7.2309C20.1998 7.22682 20.1998 7.22274 20.1998 7.21868C20.1998 7.21462 20.1998 7.21058 20.1998 7.20654C20.1998 7.20251 20.1998 7.19849 20.1998 7.19448C20.1998 7.19047 20.1998 7.18648 20.1998 7.1825C20.1998 7.17851 20.1998 7.17455 20.1998 7.17059C20.1998 7.16664 20.1998 7.16269 20.1998 7.15876C20.1998 7.15484 20.1998 7.15092 20.1998 7.14702C20.1998 7.14312 20.1998 7.13923 20.1998 7.13535C20.1998 7.13148 20.1998 7.12761 20.1998 7.12376C20.1998 7.11992 20.1998 7.11608 20.1998 7.11226C20.1998 7.10844 20.1998 7.10463 20.1998 7.10083C20.1998 7.09704 20.1998 7.09326 20.1998 7.08949C20.1998 7.08572 20.1998 7.08197 20.1998 7.07823C20.1998 7.07449 20.1998 7.07076 20.1998 7.06704C20.1998 7.06333 20.1998 7.05963 20.1998 7.05595C20.1998 7.05226 20.1998 7.04859 20.1998 7.04493C20.1998 7.04127 20.1998 7.03763 20.1998 7.034C20.1998 7.03037 20.1998 7.02675 20.1998 7.02315C20.1998 7.01955 20.1998 7.01596 20.1998 7.01238C20.1998 7.00881 20.1998 7.00525 20.1998 7.0017C20.1998 6.99815 20.1998 6.99462 20.1998 6.9911C20.1998 6.98758 20.1998 6.98408 20.1998 6.98059C20.1998 6.9771 20.1998 6.97362 20.1998 6.97016C20.1998 6.9667 20.1998 6.96325 20.1998 6.95982C20.1998 6.95638 20.1998 6.95297 20.1998 6.94956C20.1998 6.94616 20.1998 6.94277 20.1998 6.93939C20.1998 6.93601 20.1998 6.93265 20.1998 6.9293C20.1998 6.92596 20.1998 6.92263 20.1998 6.91931C20.1998 6.91599 20.1998 6.91269 20.1998 6.9094C20.1998 6.90611 20.1998 6.90283 20.1998 6.89957C20.1998 6.89631 20.1998 6.89307 20.1998 6.88984C20.1998 6.88661 20.1998 6.88339 20.1998 6.88019C20.1998 6.87699 20.1998 6.8738 20.1998 6.87063C20.1998 6.86746 20.1998 6.8643 20.1998 6.86116C20.1998 6.85802 20.1998 6.85489 20.1998 6.85178C20.1998 6.84867 20.1998 6.84557 20.1998 6.84249C20.1998 6.83941 20.1998 6.83634 20.1998 6.83329C20.1998 6.83023 20.1998 6.8272 20.1998 6.82417C20.1998 6.82115 20.1998 6.81815 20.1998 6.81515C20.1998 6.81216 20.1998 6.80918 20.1998 6.80622C20.1998 6.80326 20.1998 6.80032 20.1998 6.79738C20.1998 6.79445 20.1998 6.79154 20.1998 6.78864C20.1998 6.78574 20.1998 6.78285 20.1998 6.77998C20.1998 6.77711 20.1998 6.77426 20.1998 6.77142C20.1998 6.76858 20.1998 6.76576 20.1998 6.76295C20.1998 6.76014 20.1998 6.75735 20.1998 6.75457C20.1998 6.75179 20.1998 6.74903 20.1998 6.74629C20.1998 6.74354 20.1998 6.74081 20.1998 6.7381C20.1998 6.73538 20.1998 6.73268 20.1998 6.73C20.1998 6.72732 20.1998 6.72465 20.1998 6.722C20.1998 6.71935 20.1998 6.71671 20.1998 6.71409C20.1998 6.71147 20.1998 6.70887 20.1998 6.70628C20.1998 6.70369 20.1998 6.70112 20.1998 6.69856C20.1998 6.696 20.1998 6.69346 20.1998 6.69094C20.1998 6.68842 20.1998 6.68591 20.1998 6.68341C20.1998 6.68092 20.1998 6.67845 20.1998 6.67599C20.1998 6.67353 20.1998 6.67108 20.1998 6.66865C20.1998 6.66623 20.1998 6.66381 20.1998 6.66142C20.1998 6.65902 20.1998 6.65664 20.1998 6.65428C20.1998 6.65192 20.1998 6.64957 20.1998 6.64724C20.1998 6.64491 20.1998 6.6426 20.1998 6.6403C20.1998 6.638 20.1998 6.63572 20.1998 6.63346C20.1998 6.63119 20.1998 6.62894 20.1998 6.62671C20.1998 6.62448 20.1998 6.62227 20.1998 6.62007C20.1998 6.61787 20.1998 6.61569 20.1998 6.61352C20.1998 6.61136 20.1998 6.60921 20.1998 6.60708C20.1998 6.60495 20.1998 6.60283 20.1998 6.60073C20.1998 6.59863 20.1998 6.59655 20.1998 6.59449C20.1998 6.59242 20.1998 6.59037 20.1998 6.58834C20.1998 6.58631 20.1998 6.5843 20.1998 6.5823C20.1998 6.5803 20.1998 6.57832 20.1998 6.57636C20.1998 6.5744 20.1998 6.57245 20.1998 6.57052C20.1998 6.56859 20.1998 6.56668 20.1998 6.56478C20.1998 6.56289 20.1998 6.56101 20.1998 6.55915C20.1998 6.55729 20.1998 6.55545 20.1998 6.55362C20.1998 6.55179 20.1998 6.54998 20.1998 6.54819C20.1998 6.5464 20.1998 6.54463 20.1998 6.54287C20.1998 6.54111 20.1998 6.53937 20.1998 6.53765C20.1998 6.53593 20.1998 6.53422 20.1998 6.53253C20.1998 6.53084 20.1998 6.52917 20.1998 6.52752C20.1998 6.52587 20.1998 6.52423 20.1998 6.52262C20.1998 6.521 20.1998 6.5194 20.1998 6.51782C20.1998 6.51623 20.1998 6.51467 20.1998 6.51312C20.1998 6.51157 20.1998 6.51004 20.1998 6.50853C20.1998 6.50702 20.1998 6.50553 20.1998 6.50405C20.1998 6.50257 20.1998 6.50112 20.1998 6.49968C20.1998 6.49824 20.1998 6.49681 20.1998 6.49541C20.1998 6.494 20.1998 6.49262 20.1998 6.49125C20.1998 6.48988 20.1998 6.48853 20.1998 6.4872C20.1998 6.48586 20.1998 6.48455 20.1998 6.48325C20.1998 6.48195 20.1998 6.48068 20.1998 6.47941C20.1998 6.47815 20.1998 6.47691 20.1998 6.47569C20.1998 6.47446 20.1998 6.47326 20.1998 6.47207C20.1998 6.47088 20.1998 6.46971 20.1998 6.46856C20.1998 6.46741 20.1998 6.46628 20.1998 6.46516C20.1998 6.46405 20.1998 6.46295 20.1998 6.46188C20.1998 6.4608 20.1998 6.45974 20.1998 6.4587C20.1998 6.45766 20.1998 6.45664 20.1998 6.45563C20.1998 6.45463 20.1998 6.45364 20.1998 6.45268C20.1998 6.45171 20.1998 6.45076 20.1998 6.44983C20.1998 6.4489 20.1998 6.44799 20.1998 6.4471C20.1998 6.44621 20.1998 6.44534 20.1998 6.44448C20.1998 6.44363 20.1998 6.44279 20.1998 6.44198C20.1998 6.44116 20.1998 6.44036 20.1998 6.43958C20.1998 6.4388 20.1998 6.43804 20.1998 6.4373C20.1998 6.43656 20.1998 6.43584 20.1998 6.43514C20.1998 6.43443 20.1998 6.43375 20.1998 6.43308C20.1998 6.43242 20.1998 6.43177 20.1998 6.43115C20.1998 6.43052 20.1998 6.42991 20.1998 6.42932C20.1998 6.42873 20.1998 6.42816 20.1998 6.42761C20.1998 6.42706 20.1998 6.42653 20.1998 6.42602C20.1998 6.42551 20.1998 6.42502 20.1998 6.42455C20.1998 6.42407 20.1998 6.42362 20.1998 6.42319C20.1998 6.42275 20.1998 6.42234 20.1998 6.42194C20.1998 6.42155 20.1998 6.42117 20.1998 6.42081C20.1998 6.42046 20.1998 6.42012 20.1998 6.4198C20.1998 6.41949 20.1998 6.41919 20.1998 6.41891C20.1998 6.41863 20.1998 6.41838 20.1998 6.41814C20.1998 6.4179 20.1998 6.41768 20.1998 6.41748C20.1998 6.41728 20.1998 6.4171 20.1998 6.41694C20.1998 6.41678 20.1998 6.41664 20.1998 6.41652C20.1998 6.4164 20.1998 6.4163 20.1998 6.41622C20.1998 6.41614 20.1998 6.41608 20.1998 6.41604C20.1998 6.416 20.1998 6.41598 19.1998 6.41598C18.1998 6.41598 18.1998 6.416 18.1998 6.41604C18.1998 6.41608 18.1998 6.41614 18.1998 6.41622C18.1998 6.4163 18.1998 6.4164 18.1998 6.41652C18.1998 6.41664 18.1998 6.41678 18.1998 6.41694C18.1998 6.4171 18.1998 6.41728 18.1998 6.41748C18.1998 6.41768 18.1998 6.4179 18.1998 6.41814C18.1998 6.41838 18.1998 6.41863 18.1998 6.41891C18.1998 6.41919 18.1998 6.41949 18.1998 6.4198C18.1998 6.42012 18.1998 6.42046 18.1998 6.42081C18.1998 6.42117 18.1998 6.42155 18.1998 6.42194C18.1998 6.42234 18.1998 6.42275 18.1998 6.42319C18.1998 6.42362 18.1998 6.42407 18.1998 6.42455C18.1998 6.42502 18.1998 6.42551 18.1998 6.42602C18.1998 6.42653 18.1998 6.42706 18.1998 6.42761C18.1998 6.42816 18.1998 6.42873 18.1998 6.42932C18.1998 6.42991 18.1998 6.43052 18.1998 6.43115C18.1998 6.43177 18.1998 6.43242 18.1998 6.43308C18.1998 6.43375 18.1998 6.43443 18.1998 6.43514C18.1998 6.43584 18.1998 6.43656 18.1998 6.4373C18.1998 6.43804 18.1998 6.4388 18.1998 6.43958C18.1998 6.44036 18.1998 6.44116 18.1998 6.44198C18.1998 6.44279 18.1998 6.44363 18.1998 6.44448C18.1998 6.44534 18.1998 6.44621 18.1998 6.4471C18.1998 6.44799 18.1998 6.4489 18.1998 6.44983C18.1998 6.45076 18.1998 6.45171 18.1998 6.45268C18.1998 6.45364 18.1998 6.45463 18.1998 6.45563C18.1998 6.45664 18.1998 6.45766 18.1998 6.4587C18.1998 6.45974 18.1998 6.4608 18.1998 6.46188C18.1998 6.46295 18.1998 6.46405 18.1998 6.46516C18.1998 6.46628 18.1998 6.46741 18.1998 6.46856C18.1998 6.46971 18.1998 6.47088 18.1998 6.47207C18.1998 6.47326 18.1998 6.47446 18.1998 6.47569C18.1998 6.47691 18.1998 6.47815 18.1998 6.47941C18.1998 6.48068 18.1998 6.48195 18.1998 6.48325C18.1998 6.48455 18.1998 6.48586 18.1998 6.4872C18.1998 6.48853 18.1998 6.48988 18.1998 6.49125C18.1998 6.49262 18.1998 6.494 18.1998 6.49541C18.1998 6.49681 18.1998 6.49824 18.1998 6.49968C18.1998 6.50112 18.1998 6.50257 18.1998 6.50405C18.1998 6.50553 18.1998 6.50702 18.1998 6.50853C18.1998 6.51004 18.1998 6.51157 18.1998 6.51312C18.1998 6.51467 18.1998 6.51623 18.1998 6.51782C18.1998 6.5194 18.1998 6.521 18.1998 6.52262C18.1998 6.52423 18.1998 6.52587 18.1998 6.52752C18.1998 6.52917 18.1998 6.53084 18.1998 6.53253C18.1998 6.53422 18.1998 6.53593 18.1998 6.53765C18.1998 6.53937 18.1998 6.54111 18.1998 6.54287C18.1998 6.54463 18.1998 6.5464 18.1998 6.54819C18.1998 6.54998 18.1998 6.55179 18.1998 6.55362C18.1998 6.55545 18.1998 6.55729 18.1998 6.55915C18.1998 6.56101 18.1998 6.56289 18.1998 6.56478C18.1998 6.56668 18.1998 6.56859 18.1998 6.57052C18.1998 6.57245 18.1998 6.5744 18.1998 6.57636C18.1998 6.57832 18.1998 6.5803 18.1998 6.5823C18.1998 6.5843 18.1998 6.58631 18.1998 6.58834C18.1998 6.59037 18.1998 6.59242 18.1998 6.59449C18.1998 6.59655 18.1998 6.59863 18.1998 6.60073C18.1998 6.60283 18.1998 6.60495 18.1998 6.60708C18.1998 6.60921 18.1998 6.61136 18.1998 6.61352C18.1998 6.61569 18.1998 6.61787 18.1998 6.62007C18.1998 6.62227 18.1998 6.62448 18.1998 6.62671C18.1998 6.62894 18.1998 6.63119 18.1998 6.63346C18.1998 6.63572 18.1998 6.638 18.1998 6.6403C18.1998 6.6426 18.1998 6.64491 18.1998 6.64724C18.1998 6.64957 18.1998 6.65192 18.1998 6.65428C18.1998 6.65664 18.1998 6.65902 18.1998 6.66142C18.1998 6.66381 18.1998 6.66623 18.1998 6.66865C18.1998 6.67108 18.1998 6.67353 18.1998 6.67599C18.1998 6.67845 18.1998 6.68092 18.1998 6.68341C18.1998 6.68591 18.1998 6.68842 18.1998 6.69094C18.1998 6.69346 18.1998 6.696 18.1998 6.69856C18.1998 6.70112 18.1998 6.70369 18.1998 6.70628C18.1998 6.70887 18.1998 6.71147 18.1998 6.71409C18.1998 6.71671 18.1998 6.71935 18.1998 6.722C18.1998 6.72465 18.1998 6.72732 18.1998 6.73C18.1998 6.73268 18.1998 6.73538 18.1998 6.7381C18.1998 6.74081 18.1998 6.74354 18.1998 6.74629C18.1998 6.74903 18.1998 6.75179 18.1998 6.75457C18.1998 6.75735 18.1998 6.76014 18.1998 6.76295C18.1998 6.76576 18.1998 6.76858 18.1998 6.77142C18.1998 6.77426 18.1998 6.77711 18.1998 6.77998C18.1998 6.78285 18.1998 6.78574 18.1998 6.78864C18.1998 6.79154 18.1998 6.79445 18.1998 6.79738C18.1998 6.80032 18.1998 6.80326 18.1998 6.80622C18.1998 6.80918 18.1998 6.81216 18.1998 6.81515C18.1998 6.81815 18.1998 6.82115 18.1998 6.82417C18.1998 6.8272 18.1998 6.83023 18.1998 6.83329C18.1998 6.83634 18.1998 6.83941 18.1998 6.84249C18.1998 6.84557 18.1998 6.84867 18.1998 6.85178C18.1998 6.85489 18.1998 6.85802 18.1998 6.86116C18.1998 6.8643 18.1998 6.86746 18.1998 6.87063C18.1998 6.8738 18.1998 6.87699 18.1998 6.88019C18.1998 6.88339 18.1998 6.88661 18.1998 6.88984C18.1998 6.89307 18.1998 6.89631 18.1998 6.89957C18.1998 6.90283 18.1998 6.90611 18.1998 6.9094C18.1998 6.91269 18.1998 6.91599 18.1998 6.91931C18.1998 6.92263 18.1998 6.92596 18.1998 6.9293C18.1998 6.93265 18.1998 6.93601 18.1998 6.93939C18.1998 6.94277 18.1998 6.94616 18.1998 6.94956C18.1998 6.95297 18.1998 6.95638 18.1998 6.95982C18.1998 6.96325 18.1998 6.9667 18.1998 6.97016C18.1998 6.97362 18.1998 6.9771 18.1998 6.98059C18.1998 6.98408 18.1998 6.98758 18.1998 6.9911C18.1998 6.99462 18.1998 6.99815 18.1998 7.0017C18.1998 7.00525 18.1998 7.00881 18.1998 7.01238C18.1998 7.01596 18.1998 7.01955 18.1998 7.02315C18.1998 7.02675 18.1998 7.03037 18.1998 7.034C18.1998 7.03763 18.1998 7.04127 18.1998 7.04493C18.1998 7.04859 18.1998 7.05226 18.1998 7.05595C18.1998 7.05963 18.1998 7.06333 18.1998 7.06704C18.1998 7.07076 18.1998 7.07449 18.1998 7.07823C18.1998 7.08197 18.1998 7.08572 18.1998 7.08949C18.1998 7.09326 18.1998 7.09704 18.1998 7.10083C18.1998 7.10463 18.1998 7.10844 18.1998 7.11226C18.1998 7.11608 18.1998 7.11992 18.1998 7.12376C18.1998 7.12761 18.1998 7.13148 18.1998 7.13535C18.1998 7.13923 18.1998 7.14312 18.1998 7.14702C18.1998 7.15092 18.1998 7.15484 18.1998 7.15876C18.1998 7.16269 18.1998 7.16664 18.1998 7.17059C18.1998 7.17455 18.1998 7.17851 18.1998 7.1825C18.1998 7.18648 18.1998 7.19047 18.1998 7.19448C18.1998 7.19849 18.1998 7.20251 18.1998 7.20654C18.1998 7.21058 18.1998 7.21462 18.1998 7.21868C18.1998 7.22274 18.1998 7.22682 18.1998 7.2309C18.1998 7.23499 18.1998 7.23909 18.1998 7.2432C18.1998 7.24731 18.1998 7.25143 18.1998 7.25557C18.1998 7.25971 18.1998 7.26386 18.1998 7.26802C18.1998 7.27218 18.1998 7.27636 18.1998 7.28055C18.1998 7.28473 18.1998 7.28893 18.1998 7.29315C18.1998 7.29736 18.1998 7.30159 18.1998 7.30583C18.1998 7.31006 18.1998 7.31432 18.1998 7.31858C18.1998 7.32284 18.1998 7.32712 18.1998 7.33141C18.1998 7.33569 18.1998 7.34 18.1998 7.34431C18.1998 7.34862 18.1998 7.35295 18.1998 7.35729C18.1998 7.36162 18.1998 7.36597 18.1998 7.37034C18.1998 7.3747 18.1998 7.37907 18.1998 7.38346C18.1998 7.38785 18.1998 7.39225 18.1998 7.39666C18.1998 7.40107 18.1998 7.40549 18.1998 7.40993C18.1998 7.41436 18.1998 7.41881 18.1998 7.42327C18.1998 7.42773 18.1998 7.4322 18.1998 7.43669C18.1998 7.44117 18.1998 7.44567 18.1998 7.45017C18.1998 7.45468 18.1998 7.4592 18.1998 7.46373C18.1998 7.46826 18.1998 7.47281 18.1998 7.47736C18.1998 7.48192 18.1998 7.48648 18.1998 7.49106C18.1998 7.49564 18.1998 7.50023 18.1998 7.50483C18.1998 7.50944 18.1998 7.51405 18.1998 7.51868C18.1998 7.5233 18.1998 7.52794 18.1998 7.53259C18.1998 7.53723 18.1998 7.54189 18.1998 7.54657C18.1998 7.55124 18.1998 7.55592 18.1998 7.56062C18.1998 7.56531 18.1998 7.57002 18.1998 7.57473C18.1998 7.57945 18.1998 7.58418 18.1998 7.58892C18.1998 7.59366 18.1998 7.59841 18.1998 7.60318C18.1998 7.60794 18.1998 7.61271 18.1998 7.6175C18.1998 7.62228 18.1998 7.62708 18.1998 7.63189C18.1998 7.6367 18.1998 7.64151 18.1998 7.64634C18.1998 7.65117 18.1998 7.65602 18.1998 7.66087C18.1998 7.66572 18.1998 7.67058 18.1998 7.67546C18.1998 7.68033 18.1998 7.68522 18.1998 7.69011C18.1998 7.69501 18.1998 7.69992 18.1998 7.70483C18.1998 7.70975 18.1998 7.71468 18.1998 7.71962C18.1998 7.72456 18.1998 7.72951 18.1998 7.73447C18.1998 7.73943 18.1998 7.74441 18.1998 7.74939C18.1998 7.75437 18.1998 7.75937 18.1998 7.76437C18.1998 7.76937 18.1998 7.77439 18.1998 7.77941C18.1998 7.78444 18.1998 7.78948 18.1998 7.79452C18.1998 7.79957 18.1998 7.80463 18.1998 7.80969C18.1998 7.81476 18.1998 7.81984 18.1998 7.82493C18.1998 7.83002 18.1998 7.83511 18.1998 7.84022C18.1998 7.84533 18.1998 7.85045 18.1998 7.85558C18.1998 7.86071 18.1998 7.86585 18.1998 7.871C18.1998 7.87615 18.1998 7.88131 18.1998 7.88648C18.1998 7.89166 18.1998 7.89684 18.1998 7.90203C18.1998 7.90722 18.1998 7.91242 18.1998 7.91763C18.1998 7.92284 18.1998 7.92806 18.1998 7.9333C18.1998 7.93853 18.1998 7.94377 18.1998 7.94902C18.1998 7.95427 18.1998 7.95953 18.1998 7.9648C18.1998 7.97008 18.1998 7.97536 18.1998 7.98065C18.1998 7.98594 18.1998 7.99124 18.1998 7.99655C18.1998 8.00186 18.1998 8.00718 18.1998 8.01251C18.1998 8.01784 18.1998 8.02318 18.1998 8.02853C18.1998 8.03388 18.1998 8.03924 18.1998 8.04461C18.1998 8.04998 18.1998 8.05536 18.1998 8.06074C18.1998 8.06613 18.1998 8.07153 18.1998 8.07694C18.1998 8.08235 18.1998 8.08776 18.1998 8.09319C18.1998 8.09861 18.1998 8.10405 18.1998 8.10949C18.1998 8.11494 18.1998 8.12039 18.1998 8.12586C18.1998 8.13132 18.1998 8.13679 18.1998 8.14227C18.1998 8.14776 18.1998 8.15325 18.1998 8.15875C18.1998 8.16425 18.1998 8.16976 18.1998 8.17528C18.1998 8.1808 18.1998 8.18633 18.1998 8.19186C18.1998 8.1974 18.1998 8.20295 18.1998 8.2085C18.1998 8.21406 18.1998 8.21962 18.1998 8.22519C18.1998 8.23077 18.1998 8.23635 18.1998 8.24194C18.1998 8.24753 18.1998 8.25313 18.1998 8.25874C18.1998 8.26435 18.1998 8.26997 18.1998 8.2756C18.1998 8.28122 18.1998 8.28686 18.1998 8.2925C18.1998 8.29815 18.1998 8.3038 18.1998 8.30946C18.1998 8.31512 18.1998 8.32079 18.1998 8.32647C18.1998 8.33215 18.1998 8.33784 18.1998 8.34354C18.1998 8.34923 18.1998 8.35494 18.1998 8.36065C18.1998 8.36636 18.1998 8.37209 18.1998 8.37782C18.1998 8.38355 18.1998 8.38928 18.1998 8.39503C18.1998 8.40078 18.1998 8.40653 18.1998 8.4123C18.1998 8.41806 18.1998 8.42383 18.1998 8.42962C18.1998 8.4354 18.1998 8.44118 18.1998 8.44698C18.1998 8.45278 18.1998 8.45858 18.1998 8.4644C18.1998 8.47021 18.1998 8.47603 18.1998 8.48186C18.1998 8.48769 18.1998 8.49353 18.1998 8.49938C18.1998 8.50522 18.1998 8.51108 18.1998 8.51694C18.1998 8.5228 18.1998 8.52867 18.1998 8.53455C18.1998 8.54042 18.1998 8.54631 18.1998 8.5522C18.1998 8.5581 18.1998 8.564 18.1998 8.56991C18.1998 8.57582 18.1998 8.58174 18.1998 8.58766C18.1998 8.59359 18.1998 8.59952 18.1998 8.60546C18.1998 8.6114 18.1998 8.61735 18.1998 8.6233C18.1998 8.62926 18.1998 8.63522 18.1998 8.64119C18.1998 8.64716 18.1998 8.65314 18.1998 8.65913C18.1998 8.66512 18.1998 8.67111 18.1998 8.67711C18.1998 8.68311 18.1998 8.68912 18.1998 8.69514C18.1998 8.70115 18.1998 8.70718 18.1998 8.71321C18.1998 8.71924 18.1998 8.72528 18.1998 8.73132C18.1998 8.73737 18.1998 8.74342 18.1998 8.74948C18.1998 8.75554 18.1998 8.76161 18.1998 8.76768C18.1998 8.77376 18.1998 8.77984 18.1998 8.78593C18.1998 8.79202 18.1998 8.79811 18.1998 8.80422C18.1998 8.81032 18.1998 8.81643 18.1998 8.82255C18.1998 8.82866 18.1998 8.83479 18.1998 8.84092C18.1998 8.84705 18.1998 8.85319 18.1998 8.85933C18.1998 8.86548 18.1998 8.87163 18.1998 8.87779C18.1998 8.88395 18.1998 8.89011 18.1998 8.89629C18.1998 8.90246 18.1998 8.90864 18.1998 8.91482C18.1998 8.92101 18.1998 8.9272 18.1998 8.9334C18.1998 8.9396 18.1998 8.94581 18.1998 8.95202C18.1998 8.95823 18.1998 8.96445 18.1998 8.97068C18.1998 8.9769 18.1998 8.98314 18.1998 8.98937C18.1998 8.99561 18.1998 9.00186 18.1998 9.00811C18.1998 9.01436 18.1998 9.02062 18.1998 9.02689C18.1998 9.03315 18.1998 9.03942 18.1998 9.0457C18.1998 9.05198 18.1998 9.05826 18.1998 9.06455C18.1998 9.07084 18.1998 9.07713 18.1998 9.08344C18.1998 9.08974 18.1998 9.09605 18.1998 9.10236C18.1998 9.10868 18.1998 9.115 18.1998 9.12133C18.1998 9.12765 18.1998 9.13399 18.1998 9.14032C18.1998 9.14666 18.1998 9.15301 18.1998 9.15936C18.1998 9.16571 18.1998 9.17207 18.1998 9.17843C18.1998 9.18479 18.1998 9.19116 18.1998 9.19754C18.1998 9.20391 18.1998 9.21029 18.1998 9.21668C18.1998 9.22307 18.1998 9.22946 18.1998 9.23586C18.1998 9.24225 18.1998 9.24866 18.1998 9.25507C18.1998 9.26148 18.1998 9.26789 18.1998 9.27431C18.1998 9.28073 18.1998 9.28716 18.1998 9.29359C18.1998 9.30002 18.1998 9.30646 18.1998 9.31291C18.1998 9.31935 18.1998 9.3258 18.1998 9.33225C18.1998 9.33871 18.1998 9.34517 18.1998 9.35163C18.1998 9.3581 18.1998 9.36457 18.1998 9.37104C18.1998 9.37752 18.1998 9.384 18.1998 9.39048C18.1998 9.39697 18.1998 9.40346 18.1998 9.40996C18.1998 9.41646 18.1998 9.42296 18.1998 9.42947C18.1998 9.43597 18.1998 9.44248 18.1998 9.449C18.1998 9.45552 18.1998 9.46204 18.1998 9.46857C18.1998 9.4751 18.1998 9.48163 18.1998 9.48817C18.1998 9.49471 18.1998 9.50125 18.1998 9.5078C18.1998 9.51434 18.1998 9.5209 18.1998 9.52745C18.1998 9.53401 18.1998 9.54057 18.1998 9.54714C18.1998 9.55371 18.1998 9.56028 18.1998 9.56686C18.1998 9.57343 18.1998 9.58002 18.1998 9.5866C18.1998 9.59319 18.1998 9.59978 18.1998 9.60638C18.1998 9.61297 18.1998 9.61957 18.1998 9.62618C18.1998 9.63278 18.1998 9.63939 18.1998 9.646C18.1998 9.65262 18.1998 9.65924 18.1998 9.66586C18.1998 9.67248 18.1998 9.67911 18.1998 9.68574C18.1998 9.69238 18.1998 9.69901 18.1998 9.70565C18.1998 9.71229 18.1998 9.71894 18.1998 9.72559C18.1998 9.73224 18.1998 9.73889 18.1998 9.74555C18.1998 9.75221 18.1998 9.75887 18.1998 9.76554C18.1998 9.7722 18.1998 9.77887 18.1998 9.78555C18.1998 9.79222 18.1998 9.7989 18.1998 9.80558C18.1998 9.81227 18.1998 9.81895 18.1998 9.82564C18.1998 9.83234 18.1998 9.83903 18.1998 9.84573C18.1998 9.85243 18.1998 9.85913 18.1998 9.86584C18.1998 9.87255 18.1998 9.87926 18.1998 9.88597C18.1998 9.89269 18.1998 9.8994 18.1998 9.90613C18.1998 9.91285 18.1998 9.91957 18.1998 9.9263C18.1998 9.93303 18.1998 9.93977 18.1998 9.94651C18.1998 9.95324 18.1998 9.95998 18.1998 9.96673C18.1998 9.97347 18.1998 9.98022 18.1998 9.98697C18.1998 9.99372 18.1998 10.0005 18.1998 10.0072C18.1998 10.014 18.1998 10.0208 18.1998 10.0275C18.1998 10.0343 18.1998 10.0411 18.1998 10.0478C18.1998 10.0546 18.1998 10.0614 18.1998 10.0682C18.1998 10.0749 18.1998 10.0817 18.1998 10.0885C18.1998 10.0953 18.1998 10.1021 18.1998 10.1089C18.1998 10.1157 18.1998 10.1225 18.1998 10.1293C18.1998 10.1361 18.1998 10.1429 18.1998 10.1497C18.1998 10.1565 18.1998 10.1633 18.1998 10.1701C18.1998 10.1769 18.1998 10.1837 18.1998 10.1905C18.1998 10.1973 18.1998 10.2042 18.1998 10.211C18.1998 10.2178 18.1998 10.2246 18.1998 10.2315C18.1998 10.2383 18.1998 10.2451 18.1998 10.252C18.1998 10.2588 18.1998 10.2656 18.1998 10.2725C18.1998 10.2793 18.1998 10.2862 18.1998 10.293C18.1998 10.2998 18.1998 10.3067 18.1998 10.3135C18.1998 10.3204 18.1998 10.3273 18.1998 10.3341C18.1998 10.341 18.1998 10.3478 18.1998 10.3547C18.1998 10.3615 18.1998 10.3684 18.1998 10.3753C18.1998 10.3821 18.1998 10.389 18.1998 10.3959C18.1998 10.4027 18.1998 10.4096 18.1998 10.4165C18.1998 10.4234 18.1998 10.4303 18.1998 10.4371C18.1998 10.444 18.1998 10.4509 18.1998 10.4578C18.1998 10.4647 18.1998 10.4716 18.1998 10.4784C18.1998 10.4853 18.1998 10.4922 18.1998 10.4991C18.1998 10.506 18.1998 10.5129 18.1998 10.5198C18.1998 10.5267 18.1998 10.5336 18.1998 10.5405C18.1998 10.5474 18.1998 10.5543 18.1998 10.5612C18.1998 10.5681 18.1998 10.575 18.1998 10.5819C18.1998 10.5888 18.1998 10.5958 18.1998 10.6027C18.1998 10.6096 18.1998 10.6165 18.1998 10.6234C18.1998 10.6303 18.1998 10.6372 18.1998 10.6442C18.1998 10.6511 18.1998 10.658 18.1998 10.6649C18.1998 10.6719 18.1998 10.6788 18.1998 10.6857C18.1998 10.6926 18.1998 10.6996 18.1998 10.7065C18.1998 10.7134 18.1998 10.7204 18.1998 10.7273C18.1998 10.7342 18.1998 10.7412 18.1998 10.7481C18.1998 10.755 18.1998 10.762 18.1998 10.7689C18.1998 10.7758 18.1998 10.7828 18.1998 10.7897C18.1998 10.7967 18.1998 10.8036 18.1998 10.8106C18.1998 10.8175 18.1998 10.8244 18.1998 10.8314C18.1998 10.8383 18.1998 10.8453 18.1998 10.8522C18.1998 10.8592 18.1998 10.8661 18.1998 10.8731C18.1998 10.88 18.1998 10.887 18.1998 10.8939C18.1998 10.9009 18.1998 10.9078 18.1998 10.9148C18.1998 10.9218 18.1998 10.9287 18.1998 10.9357C18.1998 10.9426 18.1998 10.9496 18.1998 10.9565C18.1998 10.9635 18.1998 10.9705 18.1998 10.9774C18.1998 10.9844 18.1998 10.9913 18.1998 10.9983C18.1998 11.0053 18.1998 11.0122 18.1998 11.0192C18.1998 11.0262 18.1998 11.0331 18.1998 11.0401C18.1998 11.047 18.1998 11.054 18.1998 11.061C18.1998 11.0679 18.1998 11.0749 18.1998 11.0819C18.1998 11.0888 18.1998 11.0958 18.1998 11.1028C18.1998 11.1097 18.1998 11.1167 18.1998 11.1237C18.1998 11.1307 18.1998 11.1376 18.1998 11.1446C18.1998 11.1516 18.1998 11.1585 18.1998 11.1655C18.1998 11.1725 18.1998 11.1794 18.1998 11.1864C18.1998 11.1934 18.1998 11.2003 18.1998 11.2073C18.1998 11.2143 18.1998 11.2213 18.1998 11.2282C18.1998 11.2352 18.1998 11.2422 18.1998 11.2491C18.1998 11.2561 18.1998 11.2631 18.1998 11.2701C18.1998 11.277 18.1998 11.284 18.1998 11.291C18.1998 11.2979 18.1998 11.3049 18.1998 11.3119C18.1998 11.3189 18.1998 11.3258 18.1998 11.3328C18.1998 11.3398 18.1998 11.3467 18.1998 11.3537C18.1998 11.3607 18.1998 11.3676 18.1998 11.3746C18.1998 11.3816 18.1998 11.3886 18.1998 11.3955C18.1998 11.4025 18.1998 11.4095 18.1998 11.4164C18.1998 11.4234 18.1998 11.4304 18.1998 11.4373C18.1998 11.4443 18.1998 11.4513 18.1998 11.4582C18.1998 11.4652 18.1998 11.4722 18.1998 11.4791C18.1998 11.4861 18.1998 11.4931 18.1998 11.5C18.1998 11.507 18.1998 11.5139 18.1998 11.5209C18.1998 11.5279 18.1998 11.5348 18.1998 11.5418C18.1998 11.5488 18.1998 11.5557 18.1998 11.5627C18.1998 11.5696 18.1998 11.5766 18.1998 11.5835C18.1998 11.5905 18.1998 11.5975 18.1998 11.6044C18.1998 11.6114 18.1998 11.6183 18.1998 11.6253C18.1998 11.6322 18.1998 11.6392 18.1998 11.6461C18.1998 11.6531 18.1998 11.66 18.1998 11.667C18.1998 11.6739 18.1998 11.6809 18.1998 11.6878C18.1998 11.6948 18.1998 11.7017 18.1998 11.7087C18.1998 11.7156 18.1998 11.7226 18.1998 11.7295C18.1998 11.7365 18.1998 11.7434 18.1998 11.7503C18.1998 11.7573 18.1998 11.7642 18.1998 11.7711C18.1998 11.7781 18.1998 11.785 18.1998 11.792C18.1998 11.7989 18.1998 11.8058 18.1998 11.8128C18.1998 11.8197 18.1998 11.8266 18.1998 11.8335C18.1998 11.8405 18.1998 11.8474 18.1998 11.8543C18.1998 11.8612 18.1998 11.8682 18.1998 11.8751C18.1998 11.882 18.1998 11.8889 18.1998 11.8958C18.1998 11.9028 18.1998 11.9097 18.1998 11.9166C18.1998 11.9235 18.1998 11.9304 18.1998 11.9373C18.1998 11.9442 18.1998 11.9512 18.1998 11.9581C18.1998 11.965 18.1998 11.9719 18.1998 11.9788C18.1998 11.9857 18.1998 11.9926 18.1998 11.9995C18.1998 12.0064 18.1998 12.0133 18.1998 12.0202C18.1998 12.0271 18.1998 12.034 18.1998 12.0409C18.1998 12.0477 18.1998 12.0546 18.1998 12.0615C18.1998 12.0684 18.1998 12.0753 18.1998 12.0822C18.1998 12.0891 18.1998 12.0959 18.1998 12.1028C18.1998 12.1097 18.1998 12.1166 18.1998 12.1234C18.1998 12.1303 18.1998 12.1372 18.1998 12.144C18.1998 12.1509 18.1998 12.1578 18.1998 12.1646C18.1998 12.1715 18.1998 12.1784 18.1998 12.1852C18.1998 12.1921 18.1998 12.1989 18.1998 12.2058C18.1998 12.2126 18.1998 12.2195 18.1998 12.2263C18.1998 12.2332 18.1998 12.24 18.1998 12.2469C18.1998 12.2537 18.1998 12.2606 18.1998 12.2674C18.1998 12.2742 18.1998 12.2811 18.1998 12.2879C18.1998 12.2947 18.1998 12.3015 18.1998 12.3084C18.1998 12.3152 18.1998 12.322 18.1998 12.3288C18.1998 12.3357 18.1998 12.3425 18.1998 12.3493C18.1998 12.3561 18.1998 12.3629 18.1998 12.3697C18.1998 12.3765 18.1998 12.3833 18.1998 12.3901C18.1998 12.3969 18.1998 12.4037 18.1998 12.4105C18.1998 12.4173 18.1998 12.4241 18.1998 12.4309C18.1998 12.4377 18.1998 12.4445 18.1998 12.4513C18.1998 12.458 18.1998 12.4648 18.1998 12.4716C18.1998 12.4784 18.1998 12.4851 18.1998 12.4919C18.1998 12.4987 18.1998 12.5054 18.1998 12.5122C18.1998 12.519 18.1998 12.5257 18.1998 12.5325C18.1998 12.5392 18.1998 12.546 18.1998 12.5527C18.1998 12.5595 18.1998 12.5662 18.1998 12.573C18.1998 12.5797 18.1998 12.5864 18.1998 12.5932C18.1998 12.5999 18.1998 12.6066 18.1998 12.6133C18.1998 12.6201 18.1998 12.6268 18.1998 12.6335C18.1998 12.6402 18.1998 12.6469 18.1998 12.6537C18.1998 12.6604 18.1998 12.6671 18.1998 12.6738C18.1998 12.6805 18.1998 12.6872 18.1998 12.6939C18.1998 12.7006 18.1998 12.7072 18.1998 12.7139C18.1998 12.7206 18.1998 12.7273 18.1998 12.734C18.1998 12.7407 18.1998 12.7473 18.1998 12.754C18.1998 12.7607 18.1998 12.7673 18.1998 12.774C18.1998 12.7807 18.1998 12.7873 18.1998 12.794C18.1998 12.8006 18.1998 12.8073 18.1998 12.8139C18.1998 12.8206 18.1998 12.8272 18.1998 12.8338C18.1998 12.8405 18.1998 12.8471 18.1998 12.8537C18.1998 12.8603 18.1998 12.867 18.1998 12.8736C18.1998 12.8802 18.1998 12.8868 18.1998 12.8934C18.1998 12.9 18.1998 12.9066 18.1998 12.9132C18.1998 12.9198 18.1998 12.9264 18.1998 12.933C18.1998 12.9396 18.1998 12.9462 18.1998 12.9528C18.1998 12.9594 18.1998 12.9659 18.1998 12.9725C18.1998 12.9791 18.1998 12.9856 18.1998 12.9922C18.1998 12.9988 18.1998 13.0053 18.1998 13.0119C18.1998 13.0184 18.1998 13.025 18.1998 13.0315C18.1998 13.0381 18.1998 13.0446 18.1998 13.0511C18.1998 13.0576 18.1998 13.0642 18.1998 13.0707C18.1998 13.0772 18.1998 13.0837 18.1998 13.0902C18.1998 13.0968 18.1998 13.1033 18.1998 13.1098C18.1998 13.1163 18.1998 13.1228 18.1998 13.1293C18.1998 13.1357 18.1998 13.1422 18.1998 13.1487C18.1998 13.1552 18.1998 13.1617 18.1998 13.1681C18.1998 13.1746 18.1998 13.1811 18.1998 13.1875C18.1998 13.194 18.1998 13.2004 18.1998 13.2069C18.1998 13.2133 18.1998 13.2198 18.1998 13.2262C18.1998 13.2326 18.1998 13.2391 18.1998 13.2455C18.1998 13.2519 18.1998 13.2583 18.1998 13.2648C18.1998 13.2712 18.1998 13.2776 18.1998 13.284C18.1998 13.2904 18.1998 13.2968 18.1998 13.3032C18.1998 13.3096 18.1998 13.3159 18.1998 13.3223C18.1998 13.3287 18.1998 13.3351 18.1998 13.3414C18.1998 13.3478 18.1998 13.3542 18.1998 13.3605C18.1998 13.3669 18.1998 13.3732 18.1998 13.3796C18.1998 13.3859 18.1998 13.3923 18.1998 13.3986C18.1998 13.4049 18.1998 13.4112 18.1998 13.4176C18.1998 13.4239 18.1998 13.4302 18.1998 13.4365C18.1998 13.4428 18.1998 13.4491 18.1998 13.4554C18.1998 13.4617 18.1998 13.468 18.1998 13.4743C18.1998 13.4805 18.1998 13.4868 18.1998 13.4931C18.1998 13.4994 18.1998 13.5056 18.1998 13.5119C18.1998 13.5181 18.1998 13.5244 18.1998 13.5306C18.1998 13.5369 18.1998 13.5431 18.1998 13.5493C18.1998 13.5556 18.1998 13.5618 18.1998 13.568C18.1998 13.5742 18.1998 13.5804 18.1998 13.5866C18.1998 13.5929 18.1998 13.599 18.1998 13.6052C18.1998 13.6114 18.1998 13.6176 18.1998 13.6238C18.1998 13.63 18.1998 13.6361 18.1998 13.6423C18.1998 13.6485 18.1998 13.6546 18.1998 13.6608C18.1998 13.6669 18.1998 13.6731 18.1998 13.6792C18.1998 13.6853 18.1998 13.6915 18.1998 13.6976C18.1998 13.7037 18.1998 13.7098 18.1998 13.7159C18.1998 13.722 18.1998 13.7281 18.1998 13.7342C18.1998 13.7403 18.1998 13.7464 18.1998 13.7525C18.1998 13.7586 18.1998 13.7647 18.1998 13.7707C18.1998 13.7768 18.1998 13.7828 18.1998 13.7889C18.1998 13.7949 18.1998 13.801 18.1998 13.807C18.1998 13.8131 18.1998 13.8191 18.1998 13.8251C18.1998 13.8311 18.1998 13.8372 18.1998 13.8432C18.1998 13.8492 18.1998 13.8552 18.1998 13.8612C18.1998 13.8671 18.1998 13.8731 18.1998 13.8791C18.1998 13.8851 18.1998 13.8911 18.1998 13.897C18.1998 13.903 18.1998 13.9089 18.1998 13.9149C18.1998 13.9208 18.1998 13.9268 18.1998 13.9327C18.1998 13.9386 18.1998 13.9445 18.1998 13.9505C18.1998 13.9564 18.1998 13.9623 18.1998 13.9682C18.1998 13.9741 18.1998 13.98 18.1998 13.9859C18.1998 13.9917 18.1998 13.9976 18.1998 14.0035C18.1998 14.0094 18.1998 14.0152 18.1998 14.0211C18.1998 14.0269 18.1998 14.0328 18.1998 14.0386C18.1998 14.0444 18.1998 14.0503 18.1998 14.0561C18.1998 14.0619 18.1998 14.0677 18.1998 14.0735C18.1998 14.0793 18.1998 14.0851 18.1998 14.0909C18.1998 14.0967 18.1998 14.1025 18.1998 14.1082C18.1998 14.114 18.1998 14.1198 18.1998 14.1255C18.1998 14.1313 18.1998 14.137 18.1998 14.1428C18.1998 14.1485 18.1998 14.1542 18.1998 14.1599C18.1998 14.1657 18.1998 14.1714 18.1998 14.1771C18.1998 14.1828 18.1998 14.1885 18.1998 14.1941C18.1998 14.1998 18.1998 14.2055 18.1998 14.2112C18.1998 14.2168 18.1998 14.2225 18.1998 14.2282C18.1998 14.2338 18.1998 14.2395 18.1998 14.2451C18.1998 14.2507 18.1998 14.2563 18.1998 14.262C18.1998 14.2676 18.1998 14.2732 18.1998 14.2788C18.1998 14.2844 18.1998 14.29 18.1998 14.2955C18.1998 14.3011 18.1998 14.3067 18.1998 14.3123C18.1998 14.3178 18.1998 14.3234 18.1998 14.3289C18.1998 14.3345 18.1998 14.34 18.1998 14.3455C18.1998 14.351 18.1998 14.3566 18.1998 14.3621C18.1998 14.3676 18.1998 14.3731 18.1998 14.3786C18.1998 14.3841 18.1998 14.3895 18.1998 14.395C18.1998 14.4005 18.1998 14.4059 18.1998 14.4114C18.1998 14.4168 18.1998 14.4223 18.1998 14.4277C18.1998 14.4331 18.1998 14.4386 18.1998 14.444H20.1998ZM19.647 5.52156L14.057 2.72654L13.1626 4.51539L18.7526 7.31041L19.647 5.52156ZM10.837 4.5154C11.569 4.14941 12.4306 4.14941 13.1626 4.51539L14.057 2.72654C12.762 2.07903 11.2376 2.07903 9.94262 2.72654L10.837 4.5154ZM14.6998 10.5161L11.9998 10.5161L11.9998 12.5161H14.6998V10.5161ZM11.9998 10.5161H9.29981L9.29981 12.5161L11.9998 12.5161L11.9998 10.5161ZM12.9998 14.216V11.5161H10.9998L10.9998 14.216H12.9998ZM12.9998 11.5161V8.81598H10.9998V11.5161H12.9998Z" fill="#EA6B26"/>
</svg>
