<svg width="64" height="65" viewBox="0 0 64 65" fill="none" xmlns="http://www.w3.org/2000/svg">
<rect y="0.628418" width="64" height="64" rx="32" fill="#33915C"/>
<path d="M18 31.6284C17.4477 31.6284 17 32.0761 17 32.6284C17 33.1807 17.4477 33.6284 18 33.6284V31.6284ZM46.7071 33.3355C47.0976 32.945 47.0976 32.3118 46.7071 31.9213L40.3431 25.5574C39.9526 25.1668 39.3195 25.1668 38.9289 25.5574C38.5384 25.9479 38.5384 26.581 38.9289 26.9716L44.5858 32.6284L38.9289 38.2853C38.5384 38.6758 38.5384 39.309 38.9289 39.6995C39.3195 40.09 39.9526 40.09 40.3431 39.6995L46.7071 33.3355ZM18 33.6284H46V31.6284H18V33.6284Z" fill="white"/>
</svg>
