<svg width="64" height="65" viewBox="0 0 64 65" fill="none" xmlns="http://www.w3.org/2000/svg">
<rect y="0.628418" width="64" height="64" rx="32" fill="#33915C"/>
<path d="M17.2929 31.9213C16.9024 32.3118 16.9024 32.945 17.2929 33.3355L23.6569 39.6995C24.0474 40.09 24.6805 40.09 25.0711 39.6995C25.4616 39.309 25.4616 38.6758 25.0711 38.2853L19.4142 32.6284L25.0711 26.9716C25.4616 26.581 25.4616 25.9479 25.0711 25.5574C24.6805 25.1668 24.0474 25.1668 23.6569 25.5574L17.2929 31.9213ZM46 33.6284C46.5523 33.6284 47 33.1807 47 32.6284C47 32.0761 46.5523 31.6284 46 31.6284V33.6284ZM18 33.6284H46V31.6284H18V33.6284Z" fill="white"/>
</svg>
