<svg width="18" height="18" viewBox="0 0 18 18" fill="none" xmlns="http://www.w3.org/2000/svg">
<path d="M7.74933 1.55547C8.04869 0.634158 9.3521 0.634158 9.65145 1.55547L11.0129 5.74554C11.1468 6.15757 11.5307 6.43653 11.9639 6.43653H16.3696C17.3384 6.43653 17.7411 7.67614 16.9574 8.24554L13.3931 10.8352C13.0427 11.0898 12.896 11.5412 13.0299 11.9532L14.3913 16.1433C14.6907 17.0646 13.6362 17.8307 12.8525 17.2613L9.28818 14.6717C8.93769 14.417 8.46309 14.417 8.11261 14.6717L4.54832 17.2613C3.7646 17.8307 2.71012 17.0646 3.00947 16.1433L4.37091 11.9532C4.50479 11.5412 4.35813 11.0898 4.00764 10.8352L0.44335 8.24554C-0.340363 7.67614 0.0624123 6.43653 1.03114 6.43653H5.43684C5.87007 6.43653 6.25402 6.15757 6.3879 5.74554L7.74933 1.55547Z" fill="white"/>
</svg>
