<svg width="18" height="18" viewBox="0 0 18 18" fill="none" xmlns="http://www.w3.org/2000/svg">
<path d="M7.74933 1.35576C8.04869 0.434451 9.3521 0.434451 9.65145 1.35576L11.0129 5.54584C11.1468 5.95786 11.5307 6.23682 11.9639 6.23682H16.3696C17.3384 6.23682 17.7411 7.47643 16.9574 8.04584L13.3931 10.6354C13.0427 10.8901 12.896 11.3415 13.0299 11.7535L14.3913 15.9436C14.6907 16.8649 13.6362 17.631 12.8525 17.0616L9.28818 14.472C8.93769 14.2173 8.46309 14.2173 8.11261 14.472L4.54832 17.0616C3.7646 17.631 2.71012 16.8649 3.00947 15.9436L4.37091 11.7535C4.50479 11.3415 4.35813 10.8901 4.00764 10.6354L0.44335 8.04584C-0.340363 7.47643 0.0624123 6.23682 1.03114 6.23682H5.43684C5.87007 6.23682 6.25402 5.95786 6.3879 5.54584L7.74933 1.35576Z" fill="#EA6B26"/>
</svg>
