<svg width="155" height="143" viewBox="0 0 155 143" fill="none" xmlns="http://www.w3.org/2000/svg">
<path d="M110.478 74.0996L104.042 72.6748L144.716 36.9154L145.056 36.6168V36.1644V2.62842V1.62842H144.056H12.728H11.728V2.62842V45.3804V46.3804H12.728H71.807L38.9186 77.68L38.608 77.9756V78.4044V109.124V110.124H39.608H73.144C80.2031 110.124 85.3119 111.557 88.6428 114.254L88.6543 114.263L88.666 114.272C91.9655 116.786 93.648 120.396 93.648 125.252C93.648 128.675 92.8352 131.446 91.2743 133.631L91.2601 133.651L91.2468 133.672C89.8543 135.838 87.6653 137.509 84.5891 138.645C81.6572 139.619 77.8535 140.124 73.144 140.124C64.9169 140.124 56.7668 138.53 48.6883 135.334C40.6053 131.965 32.5856 126.988 24.6306 120.387L23.681 119.599L23.1068 120.691L2.11484 160.627L1.72901 161.361L2.37892 161.876C11.535 169.132 22.9097 174.984 36.4794 179.45L36.4903 179.454C50.0695 183.751 63.9099 185.9 78.008 185.9C93.3036 185.9 106.59 183.409 117.839 178.39L117.846 178.387C129.254 173.201 138.111 166.007 144.371 156.79C150.635 147.569 153.76 137.045 153.76 125.252C153.76 111.561 149.681 100.297 141.464 91.5511C133.462 82.6828 123.119 76.8704 110.479 74.0999C110.479 74.0998 110.478 74.0997 110.478 74.0996Z" stroke="#33915C" stroke-width="2"/>
</svg>
