<svg width="153" height="143" viewBox="0 0 153 143" fill="none" xmlns="http://www.w3.org/2000/svg">
<path d="M150.968 138.076H87.8137L113.783 112.395L113.787 112.392C123.893 102.285 132.299 92.2524 138.997 82.2913C145.916 72.0857 149.408 61.6544 149.408 51.0124C149.408 41.0733 146.439 32.4032 140.489 25.049C134.734 17.5541 126.818 11.8264 116.786 7.84671C106.918 3.69326 95.6922 1.62842 83.128 1.62842C69.0126 1.62842 55.2413 4.12494 41.8195 9.1151C28.4256 14.0949 15.2983 20.9602 2.43769 29.7055L1.70568 30.2032L2.11096 30.9902L24.127 73.7422L24.6878 74.8313L25.6426 74.0638C34.2972 67.1061 42.8515 61.6035 51.3047 57.5459L51.312 57.5425L51.3192 57.5389C59.7656 53.3157 67.2897 51.2444 73.912 51.2444C77.7106 51.2444 80.4315 52.0724 82.2318 53.5726L82.2661 53.6012L82.3028 53.6266C84.2111 54.9477 85.2 56.9199 85.2 59.7164C85.2 62.5048 83.9534 65.8916 81.2719 69.9137L81.2638 69.926L81.256 69.9384C78.7368 73.9691 75.6238 77.9256 71.9116 81.8069C71.9109 81.8076 71.9101 81.8084 71.9094 81.8092L9.19363 146.573L8.90922 146.866L8.91202 147.275L9.16802 184.651L9.17483 185.644H10.168H150.968H151.968V184.644V139.076V138.076H150.968Z" stroke="#33915C" stroke-width="2"/>
</svg>
