<svg width="24" height="25" viewBox="0 0 24 25" fill="none" xmlns="http://www.w3.org/2000/svg">
<path d="M23.7609 7.42832C23.7609 7.42832 23.5266 5.77363 22.8047 5.04707C21.8906 4.09082 20.8688 4.08613 20.4 4.02988C17.0438 3.78613 12.0047 3.78613 12.0047 3.78613H11.9953C11.9953 3.78613 6.95625 3.78613 3.6 4.02988C3.13125 4.08613 2.10938 4.09082 1.19531 5.04707C0.473438 5.77363 0.24375 7.42832 0.24375 7.42832C0.24375 7.42832 0 9.37363 0 11.3143V13.133C0 15.0736 0.239062 17.0189 0.239062 17.0189C0.239062 17.0189 0.473437 18.6736 1.19062 19.4002C2.10469 20.3564 3.30469 20.3236 3.83906 20.4268C5.76094 20.6096 12 20.6658 12 20.6658C12 20.6658 17.0438 20.6564 20.4 20.4174C20.8688 20.3611 21.8906 20.3564 22.8047 19.4002C23.5266 18.6736 23.7609 17.0189 23.7609 17.0189C23.7609 17.0189 24 15.0783 24 13.133V11.3143C24 9.37363 23.7609 7.42832 23.7609 7.42832ZM9.52031 15.3408V8.59551L16.0031 11.9799L9.52031 15.3408Z" fill="#FEFFFB"/>
</svg>
