<svg width="192" height="190" viewBox="0 0 192 190" fill="none" xmlns="http://www.w3.org/2000/svg">
<path fill-rule="evenodd" clip-rule="evenodd" d="M30.45 46.6811C37.6511 39.4822 47.4165 35.4381 57.5988 35.4381C67.7811 35.4381 77.5466 39.4822 84.7476 46.6811L95.9988 57.9227L107.25 46.6811C110.792 43.0135 115.03 40.0881 119.714 38.0756C124.399 36.0631 129.438 35.0038 134.537 34.9595C139.636 34.9152 144.692 35.8867 149.411 37.8175C154.131 39.7483 158.418 42.5996 162.024 46.2051C165.629 49.8106 168.48 54.098 170.411 58.8172C172.342 63.5365 173.314 68.593 173.269 73.6917C173.225 78.7904 172.166 83.8293 170.153 88.5142C168.141 93.1992 165.215 97.4364 161.548 100.979L95.9988 166.537L30.45 100.979C23.2511 93.7776 19.207 84.0122 19.207 73.8299C19.207 63.6476 23.2511 53.8821 30.45 46.6811V46.6811Z" stroke="#E3D4C2" stroke-width="16" stroke-linejoin="round"/>
</svg>
