<svg width="142" height="163" viewBox="0 0 142 163" fill="none" xmlns="http://www.w3.org/2000/svg">
<path d="M94 74.0283C84.2907 49.0334 66 30.4697 30.4362 30.4697C-8.85066 30.4697 -40.6758 59.1977 -40.6758 94.6613" stroke="#D3E7D2" stroke-width="16" stroke-miterlimit="10" stroke-linecap="round"/>
<path d="M67.0267 60.4961C59.4749 47.106 46.8888 36.3939 31.4258 30.4697" stroke="#D3E7D2" stroke-width="16" stroke-miterlimit="10"/>
<path d="M73.5 130.773C78.984 140.024 88.064 146.029 98.2229 146.029C115.034 146.029 128.61 129.637 128.61 109.43C128.61 89.2228 115.034 72.9111 98.2229 72.9111C94.3571 72.9111 90.6712 73.8038 87.2549 75.3457" stroke="#D3E7D2" stroke-width="16" stroke-miterlimit="10"/>
<path d="M32.1406 96.6867C32.1406 116.894 45.7156 133.286 62.5272 133.286C79.3388 133.286 92.9139 116.894 92.9139 96.6867C92.9139 76.4797 79.3388 60.0869 62.5272 60.0869C45.7156 60.0869 32.1406 76.4797 32.1406 96.6867Z" stroke="#D3E7D2" stroke-width="16" stroke-miterlimit="10"/>
<path d="M39.4258 21.302C39.4258 21.302 67.475 -15.5412 124.383 -2.39452C124.383 -2.39452 96.3334 34.4487 39.4258 21.302Z" stroke="#D3E7D2" stroke-width="16" stroke-miterlimit="10"/>
<path d="M35.2635 31.5059C35.2635 31.5059 -5.02118 23.7543 -1.93147 -15.0172C-1.93147 -15.0172 38.3533 -7.26552 35.2635 31.5059Z" stroke="#D3E7D2" stroke-width="16" stroke-miterlimit="10"/>
</svg>
